<svg height="24" viewBox="0 0 24 24" width="24" xmlns="http://www.w3.org/2000/svg"><g fill="none" fill-rule="evenodd"><circle cx="12" cy="12" fill="#fff" fill-rule="nonzero" r="12"/><g fill="#3d3d3d" fill-rule="evenodd"><g transform="matrix(-1 0 0 -1 21.375 21.75)"><path d="m3.05797994 10.7955853c-1.03535156 0-1.875.8396485-1.875 1.875 0 1.0353516.83964844 1.875 1.875 1.875s1.875-.8396484 1.875-1.875c0-1.0353515-.83964844-1.875-1.875-1.875z" fill-opacity=".06" transform="matrix(-.46947156 -.88294759 .88294759 -.46947156 -6.693848 21.3191)"/><path d="m2.68841249 9.96072601c-1.03535156 0-1.875.83964849-1.875 1.87499999 0 1.0353516.83964844 1.875 1.875 1.875 1.03535157 0 1.875-.8396484 1.875-1.875 0-1.0353515-.83964843-1.87499999-1.875-1.87499999z" fill-opacity=".12" transform="matrix(-.34202014 -.93969262 .93969262 -.34202014 -7.514041 18.410064)"/><path d="m2.42863863 9.08546165c-1.03535157 0-1.875.83964844-1.875 1.87500005 0 1.0353515.83964843 1.875 1.875 1.875 1.03535156 0 1.875-.8396485 1.875-1.875 0-1.03535161-.83964844-1.87500005-1.875-1.87500005z" fill-opacity=".18" transform="matrix(-.22495105 -.97437006 .97437006 -.22495105 -7.704582 15.792423)"/><path d="m2.28292382 8.18416406c-1.03535156 0-1.875.83964844-1.875 1.87500004 0 1.0353515.83964844 1.875 1.875 1.875s1.875-.8396485 1.875-1.875c0-1.0353516-.83964844-1.87500004-1.875-1.87500004z" fill-opacity=".24" transform="matrix(-.10452846 -.9945219 .9945219 -.10452846 -7.482504 13.381051)"/><path d="m2.25366071 7.27163251c-1.03535156 0-1.875.83964844-1.875 1.875 0 1.03535159.83964844 1.87499999 1.875 1.87499999s1.875-.8396484 1.875-1.87499999c0-1.03535156-.83964844-1.875-1.875-1.875z" fill-opacity=".3" transform="matrix(.0348995 -.99939083 .99939083 .0348995 -6.966052 11.079708)"/><path d="m2.34132979 6.36285075c-1.03535156 0-1.875.83964844-1.875 1.875s.83964844 1.87499995 1.875 1.87499995c1.03535157 0 1.875-.83964839 1.875-1.87499995s-.83964843-1.875-1.875-1.875z" fill-opacity=".36" transform="matrix(.15643447 -.98768834 .98768834 .15643447 -6.161364 9.261672)"/><path d="m2.54449155 5.47274095c-1.03535157 0-1.875.83964843-1.875 1.875 0 1.03535156.83964843 1.875 1.875 1.875 1.03535156 0 1.875-.83964844 1.875-1.875 0-1.03535157-.83964844-1.875-1.875-1.875z" fill-opacity=".42" transform="matrix(.2923717 -.95630476 .95630476 .2923717 -5.226125 7.632779)"/><path d="m2.85981006 4.61591868c-1.03535156 0-1.875.83964844-1.875 1.875s.83964844 1.875 1.875 1.875 1.875-.83964844 1.875-1.875-.83964844-1.875-1.875-1.875z" fill-opacity=".48" transform="matrix(.40673664 -.91354546 .91354546 .40673664 -4.233129 6.463391)"/><path d="m3.28210781 3.80645295c-1.03535156 0-1.875.83964844-1.875 1.875s.83964844 1.875 1.875 1.875c1.03535157 0 1.875-.83964844 1.875-1.875s-.83964843-1.875-1.875-1.875z" fill-opacity=".54" transform="matrix(.51503807 -.8571673 .8571673 .51503807 -3.278258 5.568604)"/><path d="m3.80445069 3.05763516c-1.03535157 0-1.875.83964844-1.875 1.875s.83964843 1.875 1.875 1.875c1.03535156 0 1.875-.83964844 1.875-1.875s-.83964844-1.875-1.875-1.875z" fill-opacity=".6" transform="matrix(.62932039 -.77714596 .77714596 .62932039 -2.423145 4.785041)"/><path d="m4.41826183 2.38176088c-1.03535157 0-1.875.83964844-1.875 1.875s.83964843 1.875 1.875 1.875c1.03535156 0 1.875-.83964844 1.875-1.875s-.83964844-1.875-1.875-1.875z" fill-opacity=".66" transform="matrix(.7193398 -.69465837 .69465837 .7193398 -1.716964 4.263886)"/><path d="m5.11346247 1.78992794c-1.03535156 0-1.875.83964844-1.875 1.875 0 1.03535157.83964844 1.875 1.875 1.875s1.875-.83964843 1.875-1.875c0-1.03535156-.83964844-1.875-1.875-1.875z" fill-opacity=".72" transform="matrix(.79863551 -.60181502 .60181502 .79863551 -1.175939 3.815345)"/><path d="m5.87863744 1.29185423c-1.03535156 0-1.875.83964844-1.875 1.875 0 1.03535157.83964844 1.875 1.875 1.875s1.875-.83964843 1.875-1.875c0-1.03535156-.83964844-1.875-1.875-1.875z" fill-opacity=".78" transform="matrix(.87461971 -.48480962 .48480962 .87461971 -.798256 3.247081)"/><path d="m6.70122259.8957181c-1.03535156 0-1.875.83964844-1.875 1.875 0 1.03535157.83964844 1.875 1.875 1.875s1.875-.83964843 1.875-1.875c0-1.03535156-.83964844-1.875-1.875-1.875z" fill-opacity=".84" transform="matrix(.92718385 -.37460659 .37460659 .92718385 -.549972 2.712075)"/><path d="m7.56771109.6080241c-1.03535156 0-1.875.83964844-1.875 1.875s.83964844 1.875 1.875 1.875 1.875-.83964844 1.875-1.875-.83964844-1.875-1.875-1.875z" fill-opacity=".9" transform="matrix(.96592583 -.25881905 .25881905 .96592583 -.38479 2.043275)"/><path d="m8.46387522.43349615c-1.03535156 0-1.875.83964844-1.875 1.875s.83964844 1.875 1.875 1.875c1.03535157 0 1.87499998-.83964844 1.87499998-1.875s-.83964841-1.875-1.87499998-1.875z" fill-opacity=".96" transform="matrix(.99254615 -.12186934 .12186934 .99254615 -.218246 1.048694)"/><path d="m9.375.375c-1.03535156 0-1.875.83964844-1.875 1.875s.83964844 1.875 1.875 1.875c1.0353516 0 1.875-.83964844 1.875-1.875s-.8396484-1.875-1.875-1.875z"/></g><g transform="translate(2.625 2.625)"><path d="m3.05797994 10.7955853c-1.03535156 0-1.875.8396485-1.875 1.875 0 1.0353516.83964844 1.875 1.875 1.875s1.875-.8396484 1.875-1.875c0-1.0353515-.83964844-1.875-1.875-1.875z" fill-opacity=".06" transform="matrix(-.46947156 -.88294759 .88294759 -.46947156 -6.693848 21.3191)"/><path d="m2.68841249 9.96072601c-1.03535156 0-1.875.83964849-1.875 1.87499999 0 1.0353516.83964844 1.875 1.875 1.875 1.03535157 0 1.875-.8396484 1.875-1.875 0-1.0353515-.83964843-1.87499999-1.875-1.87499999z" fill-opacity=".12" transform="matrix(-.34202014 -.93969262 .93969262 -.34202014 -7.514041 18.410064)"/><path d="m2.42863863 9.08546165c-1.03535157 0-1.875.83964844-1.875 1.87500005 0 1.0353515.83964843 1.875 1.875 1.875 1.03535156 0 1.875-.8396485 1.875-1.875 0-1.03535161-.83964844-1.87500005-1.875-1.87500005z" fill-opacity=".18" transform="matrix(-.22495105 -.97437006 .97437006 -.22495105 -7.704582 15.792423)"/><path d="m2.28292382 8.18416406c-1.03535156 0-1.875.83964844-1.875 1.87500004 0 1.0353515.83964844 1.875 1.875 1.875s1.875-.8396485 1.875-1.875c0-1.0353516-.83964844-1.87500004-1.875-1.87500004z" fill-opacity=".24" transform="matrix(-.10452846 -.9945219 .9945219 -.10452846 -7.482504 13.381051)"/><path d="m2.25366071 7.27163251c-1.03535156 0-1.875.83964844-1.875 1.875 0 1.03535159.83964844 1.87499999 1.875 1.87499999s1.875-.8396484 1.875-1.87499999c0-1.03535156-.83964844-1.875-1.875-1.875z" fill-opacity=".3" transform="matrix(.0348995 -.99939083 .99939083 .0348995 -6.966052 11.079708)"/><path d="m2.34132979 6.36285075c-1.03535156 0-1.875.83964844-1.875 1.875s.83964844 1.87499995 1.875 1.87499995c1.03535157 0 1.875-.83964839 1.875-1.87499995s-.83964843-1.875-1.875-1.875z" fill-opacity=".36" transform="matrix(.15643447 -.98768834 .98768834 .15643447 -6.161364 9.261672)"/><path d="m2.54449155 5.47274095c-1.03535157 0-1.875.83964843-1.875 1.875 0 1.03535156.83964843 1.875 1.875 1.875 1.03535156 0 1.875-.83964844 1.875-1.875 0-1.03535157-.83964844-1.875-1.875-1.875z" fill-opacity=".42" transform="matrix(.2923717 -.95630476 .95630476 .2923717 -5.226125 7.632779)"/><path d="m2.85981006 4.61591868c-1.03535156 0-1.875.83964844-1.875 1.875s.83964844 1.875 1.875 1.875 1.875-.83964844 1.875-1.875-.83964844-1.875-1.875-1.875z" fill-opacity=".48" transform="matrix(.40673664 -.91354546 .91354546 .40673664 -4.233129 6.463391)"/><path d="m3.28210781 3.80645295c-1.03535156 0-1.875.83964844-1.875 1.875s.83964844 1.875 1.875 1.875c1.03535157 0 1.875-.83964844 1.875-1.875s-.83964843-1.875-1.875-1.875z" fill-opacity=".54" transform="matrix(.51503807 -.8571673 .8571673 .51503807 -3.278258 5.568604)"/><path d="m3.80445069 3.05763516c-1.03535157 0-1.875.83964844-1.875 1.875s.83964843 1.875 1.875 1.875c1.03535156 0 1.875-.83964844 1.875-1.875s-.83964844-1.875-1.875-1.875z" fill-opacity=".6" transform="matrix(.62932039 -.77714596 .77714596 .62932039 -2.423145 4.785041)"/><path d="m4.41826183 2.38176088c-1.03535157 0-1.875.83964844-1.875 1.875s.83964843 1.875 1.875 1.875c1.03535156 0 1.875-.83964844 1.875-1.875s-.83964844-1.875-1.875-1.875z" fill-opacity=".66" transform="matrix(.7193398 -.69465837 .69465837 .7193398 -1.716964 4.263886)"/><path d="m5.11346247 1.78992794c-1.03535156 0-1.875.83964844-1.875 1.875 0 1.03535157.83964844 1.875 1.875 1.875s1.875-.83964843 1.875-1.875c0-1.03535156-.83964844-1.875-1.875-1.875z" fill-opacity=".72" transform="matrix(.79863551 -.60181502 .60181502 .79863551 -1.175939 3.815345)"/><path d="m5.87863744 1.29185423c-1.03535156 0-1.875.83964844-1.875 1.875 0 1.03535157.83964844 1.875 1.875 1.875s1.875-.83964843 1.875-1.875c0-1.03535156-.83964844-1.875-1.875-1.875z" fill-opacity=".78" transform="matrix(.87461971 -.48480962 .48480962 .87461971 -.798256 3.247081)"/><path d="m6.70122259.8957181c-1.03535156 0-1.875.83964844-1.875 1.875 0 1.03535157.83964844 1.875 1.875 1.875s1.875-.83964843 1.875-1.875c0-1.03535156-.83964844-1.875-1.875-1.875z" fill-opacity=".84" transform="matrix(.92718385 -.37460659 .37460659 .92718385 -.549972 2.712075)"/><path d="m7.56771109.6080241c-1.03535156 0-1.875.83964844-1.875 1.875s.83964844 1.875 1.875 1.875 1.875-.83964844 1.875-1.875-.83964844-1.875-1.875-1.875z" fill-opacity=".9" transform="matrix(.96592583 -.25881905 .25881905 .96592583 -.38479 2.043275)"/><path d="m8.46387522.43349615c-1.03535156 0-1.875.83964844-1.875 1.875s.83964844 1.875 1.875 1.875c1.03535157 0 1.87499998-.83964844 1.87499998-1.875s-.83964841-1.875-1.87499998-1.875z" fill-opacity=".96" transform="matrix(.99254615 -.12186934 .12186934 .99254615 -.218246 1.048694)"/><path d="m9.375.375c-1.03535156 0-1.875.83964844-1.875 1.875s.83964844 1.875 1.875 1.875c1.0353516 0 1.875-.83964844 1.875-1.875s-.8396484-1.875-1.875-1.875z"/></g></g></g></svg>