<?xml version="1.0" encoding="UTF-8"?>
<svg width="24px" height="24px" viewBox="0 0 24 24" version="1.1" xmlns="http://www.w3.org/2000/svg" xmlns:xlink="http://www.w3.org/1999/xlink">
    <!-- Generator: Sketch 52.5 (67469) - http://www.bohemiancoding.com/sketch -->
    <title>icon-24</title>
    <desc>Created with Sketch.</desc>
    <g id="icon-24" stroke="none" stroke-width="1" fill="none" fill-rule="evenodd">
        <g id="Default">
            <circle id="Background" fill="#FFFFFF" fill-rule="nonzero" cx="12" cy="12" r="12"></circle>
            <g id="Glow-2" stroke-width="1" fill-rule="evenodd" transform="translate(15.750000, 14.062500) scale(-1, -1) translate(-15.750000, -14.062500) translate(10.125000, 6.375000)" fill="#3D3D3D">
                <path d="M3.05797994,10.7955853 C2.02262838,10.7955853 1.18297994,11.6352338 1.18297994,12.6705853 C1.18297994,13.7059369 2.02262838,14.5455853 3.05797994,14.5455853 C4.0933315,14.5455853 4.93297994,13.7059369 4.93297994,12.6705853 C4.93297994,11.6352338 4.0933315,10.7955853 3.05797994,10.7955853 Z" id="Path" fill-opacity="0.06" transform="translate(3.057980, 12.670585) rotate(242.000000) translate(-3.057980, -12.670585) "></path>
                <path d="M2.68841249,9.96072601 C1.65306093,9.96072601 0.813412493,10.8003745 0.813412493,11.835726 C0.813412493,12.8710776 1.65306093,13.710726 2.68841249,13.710726 C3.72376406,13.710726 4.56341249,12.8710776 4.56341249,11.835726 C4.56341249,10.8003745 3.72376406,9.96072601 2.68841249,9.96072601 Z" id="Path" fill-opacity="0.12" transform="translate(2.688412, 11.835726) rotate(250.000000) translate(-2.688412, -11.835726) "></path>
                <path d="M2.42863863,9.08546165 C1.39328706,9.08546165 0.553638626,9.92511009 0.553638626,10.9604617 C0.553638626,11.9958132 1.39328706,12.8354617 2.42863863,12.8354617 C3.46399019,12.8354617 4.30363863,11.9958132 4.30363863,10.9604617 C4.30363863,9.92511009 3.46399019,9.08546165 2.42863863,9.08546165 Z" id="Path" fill-opacity="0.18" transform="translate(2.428639, 10.960462) rotate(257.000000) translate(-2.428639, -10.960462) "></path>
                <path d="M2.28292382,8.18416406 C1.24757226,8.18416406 0.40792382,9.0238125 0.40792382,10.0591641 C0.40792382,11.0945156 1.24757226,11.9341641 2.28292382,11.9341641 C3.31827538,11.9341641 4.15792382,11.0945156 4.15792382,10.0591641 C4.15792382,9.0238125 3.31827538,8.18416406 2.28292382,8.18416406 Z" id="Path" fill-opacity="0.24" transform="translate(2.282924, 10.059164) rotate(264.000000) translate(-2.282924, -10.059164) "></path>
                <path d="M2.25366071,7.27163251 C1.21830915,7.27163251 0.37866071,8.11128095 0.37866071,9.14663251 C0.37866071,10.1819841 1.21830915,11.0216325 2.25366071,11.0216325 C3.28901227,11.0216325 4.12866071,10.1819841 4.12866071,9.14663251 C4.12866071,8.11128095 3.28901227,7.27163251 2.25366071,7.27163251 Z" id="Path" fill-opacity="0.3" transform="translate(2.253661, 9.146633) rotate(272.000000) translate(-2.253661, -9.146633) "></path>
                <path d="M2.34132979,6.36285075 C1.30597823,6.36285075 0.466329793,7.20249919 0.466329793,8.23785075 C0.466329793,9.27320231 1.30597823,10.1128507 2.34132979,10.1128507 C3.37668136,10.1128507 4.21632979,9.27320231 4.21632979,8.23785075 C4.21632979,7.20249919 3.37668136,6.36285075 2.34132979,6.36285075 Z" id="Path" fill-opacity="0.36" transform="translate(2.341330, 8.237851) rotate(279.000000) translate(-2.341330, -8.237851) "></path>
                <path d="M2.54449155,5.47274095 C1.50913998,5.47274095 0.669491547,6.31238938 0.669491547,7.34774095 C0.669491547,8.38309251 1.50913998,9.22274095 2.54449155,9.22274095 C3.57984311,9.22274095 4.41949155,8.38309251 4.41949155,7.34774095 C4.41949155,6.31238938 3.57984311,5.47274095 2.54449155,5.47274095 Z" id="Path" fill-opacity="0.42" transform="translate(2.544492, 7.347741) rotate(287.000000) translate(-2.544492, -7.347741) "></path>
                <path d="M2.85981006,4.61591868 C1.8244585,4.61591868 0.984810061,5.45556712 0.984810061,6.49091868 C0.984810061,7.52627024 1.8244585,8.36591868 2.85981006,8.36591868 C3.89516162,8.36591868 4.73481006,7.52627024 4.73481006,6.49091868 C4.73481006,5.45556712 3.89516162,4.61591868 2.85981006,4.61591868 Z" id="Path" fill-opacity="0.48" transform="translate(2.859810, 6.490919) rotate(294.000000) translate(-2.859810, -6.490919) "></path>
                <path d="M3.28210781,3.80645295 C2.24675625,3.80645295 1.40710781,4.64610139 1.40710781,5.68145295 C1.40710781,6.71680451 2.24675625,7.55645295 3.28210781,7.55645295 C4.31745938,7.55645295 5.15710781,6.71680451 5.15710781,5.68145295 C5.15710781,4.64610139 4.31745938,3.80645295 3.28210781,3.80645295 Z" id="Path" fill-opacity="0.54" transform="translate(3.282108, 5.681453) rotate(301.000000) translate(-3.282108, -5.681453) "></path>
                <path d="M3.80445069,3.05763516 C2.76909912,3.05763516 1.92945069,3.8972836 1.92945069,4.93263516 C1.92945069,5.96798672 2.76909912,6.80763516 3.80445069,6.80763516 C4.83980225,6.80763516 5.67945069,5.96798672 5.67945069,4.93263516 C5.67945069,3.8972836 4.83980225,3.05763516 3.80445069,3.05763516 Z" id="Path" fill-opacity="0.6" transform="translate(3.804451, 4.932635) rotate(309.000000) translate(-3.804451, -4.932635) "></path>
                <path d="M4.41826183,2.38176088 C3.38291026,2.38176088 2.54326183,3.22140932 2.54326183,4.25676088 C2.54326183,5.29211244 3.38291026,6.13176088 4.41826183,6.13176088 C5.45361339,6.13176088 6.29326183,5.29211244 6.29326183,4.25676088 C6.29326183,3.22140932 5.45361339,2.38176088 4.41826183,2.38176088 Z" id="Path" fill-opacity="0.66" transform="translate(4.418262, 4.256761) rotate(316.000000) translate(-4.418262, -4.256761) "></path>
                <path d="M5.11346247,1.78992794 C4.07811091,1.78992794 3.23846247,2.62957638 3.23846247,3.66492794 C3.23846247,4.70027951 4.07811091,5.53992794 5.11346247,5.53992794 C6.14881403,5.53992794 6.98846247,4.70027951 6.98846247,3.66492794 C6.98846247,2.62957638 6.14881403,1.78992794 5.11346247,1.78992794 Z" id="Path" fill-opacity="0.72" transform="translate(5.113462, 3.664928) rotate(323.000000) translate(-5.113462, -3.664928) "></path>
                <path d="M5.87863744,1.29185423 C4.84328588,1.29185423 4.00363744,2.13150267 4.00363744,3.16685423 C4.00363744,4.2022058 4.84328588,5.04185423 5.87863744,5.04185423 C6.913989,5.04185423 7.75363744,4.2022058 7.75363744,3.16685423 C7.75363744,2.13150267 6.913989,1.29185423 5.87863744,1.29185423 Z" id="Path" fill-opacity="0.78" transform="translate(5.878637, 3.166854) rotate(331.000000) translate(-5.878637, -3.166854) "></path>
                <path d="M6.70122259,0.895718104 C5.66587103,0.895718104 4.82622259,1.73536654 4.82622259,2.7707181 C4.82622259,3.80606967 5.66587103,4.6457181 6.70122259,4.6457181 C7.73657415,4.6457181 8.57622259,3.80606967 8.57622259,2.7707181 C8.57622259,1.73536654 7.73657415,0.895718104 6.70122259,0.895718104 Z" id="Path" fill-opacity="0.84" transform="translate(6.701223, 2.770718) rotate(338.000000) translate(-6.701223, -2.770718) "></path>
                <path d="M7.56771109,0.608024101 C6.53235953,0.608024101 5.69271109,1.44767254 5.69271109,2.4830241 C5.69271109,3.51837566 6.53235953,4.3580241 7.56771109,4.3580241 C8.60306265,4.3580241 9.44271109,3.51837566 9.44271109,2.4830241 C9.44271109,1.44767254 8.60306265,0.608024101 7.56771109,0.608024101 Z" id="Path" fill-opacity="0.9" transform="translate(7.567711, 2.483024) rotate(345.000000) translate(-7.567711, -2.483024) "></path>
                <path d="M8.46387522,0.433496152 C7.42852366,0.433496152 6.58887522,1.27314459 6.58887522,2.30849615 C6.58887522,3.34384771 7.42852366,4.18349615 8.46387522,4.18349615 C9.49922679,4.18349615 10.3388752,3.34384771 10.3388752,2.30849615 C10.3388752,1.27314459 9.49922679,0.433496152 8.46387522,0.433496152 Z" id="Path" fill-opacity="0.96" transform="translate(8.463875, 2.308496) rotate(353.000000) translate(-8.463875, -2.308496) "></path>
                <path d="M9.375,0.375 C8.33964844,0.375 7.5,1.21464844 7.5,2.25 C7.5,3.28535156 8.33964844,4.125 9.375,4.125 C10.4103516,4.125 11.25,3.28535156 11.25,2.25 C11.25,1.21464844 10.4103516,0.375 9.375,0.375 Z" id="Path"></path>
            </g>
            <g id="Glow-1" stroke-width="1" fill-rule="evenodd" transform="translate(2.625000, 2.625000)" fill="#3D3D3D">
                <path d="M3.05797994,10.7955853 C2.02262838,10.7955853 1.18297994,11.6352338 1.18297994,12.6705853 C1.18297994,13.7059369 2.02262838,14.5455853 3.05797994,14.5455853 C4.0933315,14.5455853 4.93297994,13.7059369 4.93297994,12.6705853 C4.93297994,11.6352338 4.0933315,10.7955853 3.05797994,10.7955853 Z" id="Path" fill-opacity="0.06" transform="translate(3.057980, 12.670585) rotate(242.000000) translate(-3.057980, -12.670585) "></path>
                <path d="M2.68841249,9.96072601 C1.65306093,9.96072601 0.813412493,10.8003745 0.813412493,11.835726 C0.813412493,12.8710776 1.65306093,13.710726 2.68841249,13.710726 C3.72376406,13.710726 4.56341249,12.8710776 4.56341249,11.835726 C4.56341249,10.8003745 3.72376406,9.96072601 2.68841249,9.96072601 Z" id="Path" fill-opacity="0.12" transform="translate(2.688412, 11.835726) rotate(250.000000) translate(-2.688412, -11.835726) "></path>
                <path d="M2.42863863,9.08546165 C1.39328706,9.08546165 0.553638626,9.92511009 0.553638626,10.9604617 C0.553638626,11.9958132 1.39328706,12.8354617 2.42863863,12.8354617 C3.46399019,12.8354617 4.30363863,11.9958132 4.30363863,10.9604617 C4.30363863,9.92511009 3.46399019,9.08546165 2.42863863,9.08546165 Z" id="Path" fill-opacity="0.18" transform="translate(2.428639, 10.960462) rotate(257.000000) translate(-2.428639, -10.960462) "></path>
                <path d="M2.28292382,8.18416406 C1.24757226,8.18416406 0.40792382,9.0238125 0.40792382,10.0591641 C0.40792382,11.0945156 1.24757226,11.9341641 2.28292382,11.9341641 C3.31827538,11.9341641 4.15792382,11.0945156 4.15792382,10.0591641 C4.15792382,9.0238125 3.31827538,8.18416406 2.28292382,8.18416406 Z" id="Path" fill-opacity="0.24" transform="translate(2.282924, 10.059164) rotate(264.000000) translate(-2.282924, -10.059164) "></path>
                <path d="M2.25366071,7.27163251 C1.21830915,7.27163251 0.37866071,8.11128095 0.37866071,9.14663251 C0.37866071,10.1819841 1.21830915,11.0216325 2.25366071,11.0216325 C3.28901227,11.0216325 4.12866071,10.1819841 4.12866071,9.14663251 C4.12866071,8.11128095 3.28901227,7.27163251 2.25366071,7.27163251 Z" id="Path" fill-opacity="0.3" transform="translate(2.253661, 9.146633) rotate(272.000000) translate(-2.253661, -9.146633) "></path>
                <path d="M2.34132979,6.36285075 C1.30597823,6.36285075 0.466329793,7.20249919 0.466329793,8.23785075 C0.466329793,9.27320231 1.30597823,10.1128507 2.34132979,10.1128507 C3.37668136,10.1128507 4.21632979,9.27320231 4.21632979,8.23785075 C4.21632979,7.20249919 3.37668136,6.36285075 2.34132979,6.36285075 Z" id="Path" fill-opacity="0.36" transform="translate(2.341330, 8.237851) rotate(279.000000) translate(-2.341330, -8.237851) "></path>
                <path d="M2.54449155,5.47274095 C1.50913998,5.47274095 0.669491547,6.31238938 0.669491547,7.34774095 C0.669491547,8.38309251 1.50913998,9.22274095 2.54449155,9.22274095 C3.57984311,9.22274095 4.41949155,8.38309251 4.41949155,7.34774095 C4.41949155,6.31238938 3.57984311,5.47274095 2.54449155,5.47274095 Z" id="Path" fill-opacity="0.42" transform="translate(2.544492, 7.347741) rotate(287.000000) translate(-2.544492, -7.347741) "></path>
                <path d="M2.85981006,4.61591868 C1.8244585,4.61591868 0.984810061,5.45556712 0.984810061,6.49091868 C0.984810061,7.52627024 1.8244585,8.36591868 2.85981006,8.36591868 C3.89516162,8.36591868 4.73481006,7.52627024 4.73481006,6.49091868 C4.73481006,5.45556712 3.89516162,4.61591868 2.85981006,4.61591868 Z" id="Path" fill-opacity="0.48" transform="translate(2.859810, 6.490919) rotate(294.000000) translate(-2.859810, -6.490919) "></path>
                <path d="M3.28210781,3.80645295 C2.24675625,3.80645295 1.40710781,4.64610139 1.40710781,5.68145295 C1.40710781,6.71680451 2.24675625,7.55645295 3.28210781,7.55645295 C4.31745938,7.55645295 5.15710781,6.71680451 5.15710781,5.68145295 C5.15710781,4.64610139 4.31745938,3.80645295 3.28210781,3.80645295 Z" id="Path" fill-opacity="0.54" transform="translate(3.282108, 5.681453) rotate(301.000000) translate(-3.282108, -5.681453) "></path>
                <path d="M3.80445069,3.05763516 C2.76909912,3.05763516 1.92945069,3.8972836 1.92945069,4.93263516 C1.92945069,5.96798672 2.76909912,6.80763516 3.80445069,6.80763516 C4.83980225,6.80763516 5.67945069,5.96798672 5.67945069,4.93263516 C5.67945069,3.8972836 4.83980225,3.05763516 3.80445069,3.05763516 Z" id="Path" fill-opacity="0.6" transform="translate(3.804451, 4.932635) rotate(309.000000) translate(-3.804451, -4.932635) "></path>
                <path d="M4.41826183,2.38176088 C3.38291026,2.38176088 2.54326183,3.22140932 2.54326183,4.25676088 C2.54326183,5.29211244 3.38291026,6.13176088 4.41826183,6.13176088 C5.45361339,6.13176088 6.29326183,5.29211244 6.29326183,4.25676088 C6.29326183,3.22140932 5.45361339,2.38176088 4.41826183,2.38176088 Z" id="Path" fill-opacity="0.66" transform="translate(4.418262, 4.256761) rotate(316.000000) translate(-4.418262, -4.256761) "></path>
                <path d="M5.11346247,1.78992794 C4.07811091,1.78992794 3.23846247,2.62957638 3.23846247,3.66492794 C3.23846247,4.70027951 4.07811091,5.53992794 5.11346247,5.53992794 C6.14881403,5.53992794 6.98846247,4.70027951 6.98846247,3.66492794 C6.98846247,2.62957638 6.14881403,1.78992794 5.11346247,1.78992794 Z" id="Path" fill-opacity="0.72" transform="translate(5.113462, 3.664928) rotate(323.000000) translate(-5.113462, -3.664928) "></path>
                <path d="M5.87863744,1.29185423 C4.84328588,1.29185423 4.00363744,2.13150267 4.00363744,3.16685423 C4.00363744,4.2022058 4.84328588,5.04185423 5.87863744,5.04185423 C6.913989,5.04185423 7.75363744,4.2022058 7.75363744,3.16685423 C7.75363744,2.13150267 6.913989,1.29185423 5.87863744,1.29185423 Z" id="Path" fill-opacity="0.78" transform="translate(5.878637, 3.166854) rotate(331.000000) translate(-5.878637, -3.166854) "></path>
                <path d="M6.70122259,0.895718104 C5.66587103,0.895718104 4.82622259,1.73536654 4.82622259,2.7707181 C4.82622259,3.80606967 5.66587103,4.6457181 6.70122259,4.6457181 C7.73657415,4.6457181 8.57622259,3.80606967 8.57622259,2.7707181 C8.57622259,1.73536654 7.73657415,0.895718104 6.70122259,0.895718104 Z" id="Path" fill-opacity="0.84" transform="translate(6.701223, 2.770718) rotate(338.000000) translate(-6.701223, -2.770718) "></path>
                <path d="M7.56771109,0.608024101 C6.53235953,0.608024101 5.69271109,1.44767254 5.69271109,2.4830241 C5.69271109,3.51837566 6.53235953,4.3580241 7.56771109,4.3580241 C8.60306265,4.3580241 9.44271109,3.51837566 9.44271109,2.4830241 C9.44271109,1.44767254 8.60306265,0.608024101 7.56771109,0.608024101 Z" id="Path" fill-opacity="0.9" transform="translate(7.567711, 2.483024) rotate(345.000000) translate(-7.567711, -2.483024) "></path>
                <path d="M8.46387522,0.433496152 C7.42852366,0.433496152 6.58887522,1.27314459 6.58887522,2.30849615 C6.58887522,3.34384771 7.42852366,4.18349615 8.46387522,4.18349615 C9.49922679,4.18349615 10.3388752,3.34384771 10.3388752,2.30849615 C10.3388752,1.27314459 9.49922679,0.433496152 8.46387522,0.433496152 Z" id="Path" fill-opacity="0.96" transform="translate(8.463875, 2.308496) rotate(353.000000) translate(-8.463875, -2.308496) "></path>
                <path d="M9.375,0.375 C8.33964844,0.375 7.5,1.21464844 7.5,2.25 C7.5,3.28535156 8.33964844,4.125 9.375,4.125 C10.4103516,4.125 11.25,3.28535156 11.25,2.25 C11.25,1.21464844 10.4103516,0.375 9.375,0.375 Z" id="Path"></path>
            </g>
        </g>
    </g>
</svg>