<svg height="16" viewBox="0 0 16 16" width="16" xmlns="http://www.w3.org/2000/svg"><g fill="none" fill-rule="evenodd"><circle cx="8" cy="8" fill="#fff" fill-rule="nonzero" r="8"/><g fill="#3d3d3d" fill-rule="evenodd"><g transform="matrix(-1 0 0 -1 14.25 14.5)"><path d="m2.03865329 7.19705688c-.69023437 0-1.24999999.55976562-1.24999999 1.25 0 .69023437.55976562 1.25 1.24999999 1.25.69023438 0 1.25-.55976563 1.25-1.25 0-.69023438-.55976562-1.25-1.25-1.25z" fill-opacity=".06" transform="matrix(-.46947156 -.88294759 .88294759 -.46947156 -4.462566 14.212734)"/><path d="m1.792275 6.64048401c-.69023438 0-1.25.55976562-1.25 1.25 0 .69023437.55976562 1.25 1.25 1.25.69023437 0 1.25-.55976563 1.25-1.25 0-.69023438-.55976563-1.25-1.25-1.25z" fill-opacity=".12" transform="matrix(-.34202014 -.93969262 .93969262 -.34202014 -5.00936 12.273376)"/><path d="m1.61909242 6.05697444c-.69023438 0-1.25.55976562-1.25 1.25 0 .69023437.55976562 1.25 1.25 1.25.69023437 0 1.25-.55976563 1.25-1.25 0-.69023438-.55976563-1.25-1.25-1.25z" fill-opacity=".18" transform="matrix(-.22495105 -.97437006 .97437006 -.22495105 -5.136388 10.52828)"/><path d="m1.52194921 5.45610937c-.69023437 0-1.25.55976563-1.25 1.25 0 .69023438.55976563 1.25 1.25 1.25.69023438 0 1.25-.55976562 1.25-1.25 0-.69023437-.55976562-1.25-1.25-1.25z" fill-opacity=".24" transform="matrix(-.10452846 -.9945219 .9945219 -.10452846 -4.988336 8.9207)"/><path d="m1.50244047 4.84775501c-.69023437 0-1.25.55976562-1.25 1.25 0 .69023437.55976563 1.25 1.25 1.25.69023438 0 1.25-.55976563 1.25-1.25 0-.69023438-.55976562-1.25-1.25-1.25z" fill-opacity=".3" transform="matrix(.0348995 -.99939083 .99939083 .0348995 -4.644035 7.386471)"/><path d="m1.56088653 4.2419005c-.69023438 0-1.25.55976562-1.25 1.25 0 .69023437.55976562 1.25 1.25 1.25.69023437 0 1.25-.55976563 1.25-1.25 0-.69023438-.55976563-1.25-1.25-1.25z" fill-opacity=".36" transform="matrix(.15643447 -.98768834 .98768834 .15643447 -4.107575 6.174447)"/><path d="m1.6963277 3.64849396c-.69023438 0-1.25.55976563-1.25 1.25 0 .69023438.55976562 1.25 1.25 1.25.69023437 0 1.25-.55976562 1.25-1.25 0-.69023437-.55976563-1.25-1.25-1.25z" fill-opacity=".42" transform="matrix(.2923717 -.95630476 .95630476 .2923717 -3.484083 5.088519)"/><path d="m1.90654004 3.07727912c-.69023437 0-1.25.55976563-1.25 1.25 0 .69023438.55976563 1.25 1.25 1.25.69023438 0 1.25-.55976562 1.25-1.25 0-.69023437-.55976562-1.25-1.25-1.25z" fill-opacity=".48" transform="matrix(.40673664 -.91354546 .91354546 .40673664 -2.822086 4.308927)"/><path d="m2.18807188 2.5376353c-.69023438 0-1.25.55976563-1.25 1.25 0 .69023438.55976562 1.25 1.25 1.25.69023437 0 1.25-.55976562 1.25-1.25 0-.69023437-.55976563-1.25-1.25-1.25z" fill-opacity=".54" transform="matrix(.51503807 -.8571673 .8571673 .51503807 -2.185505 3.712403)"/><path d="m2.53630046 2.03842344c-.69023438 0-1.25.55976563-1.25 1.25 0 .69023438.55976562 1.25 1.25 1.25.69023437 0 1.25-.55976562 1.25-1.25 0-.69023437-.55976563-1.25-1.25-1.25z" fill-opacity=".6" transform="matrix(.62932039 -.77714596 .77714596 .62932039 -1.61543 3.190027)"/><path d="m2.94550788 1.58784059c-.69023437 0-1.25.55976562-1.25 1.25 0 .69023437.55976563 1.25 1.25 1.25.69023438 0 1.25-.55976563 1.25-1.25 0-.69023438-.55976562-1.25-1.25-1.25z" fill-opacity=".66" transform="matrix(.7193398 -.69465837 .69465837 .7193398 -1.144643 2.842591)"/><path d="m3.40897498 1.1932853c-.69023437 0-1.25.55976562-1.25 1.25 0 .69023437.55976563 1.25 1.25 1.25.69023438 0 1.25-.55976563 1.25-1.25 0-.69023438-.55976562-1.25-1.25-1.25z" fill-opacity=".72" transform="matrix(.79863551 -.60181502 .60181502 .79863551 -.783959 2.543563)"/><path d="m3.91909163.86123616c-.69023438 0-1.25.55976562-1.25 1.25 0 .69023437.55976562 1.25 1.25 1.25.69023437 0 1.25-.55976563 1.25-1.25 0-.69023438-.55976563-1.25-1.25-1.25z" fill-opacity=".78" transform="matrix(.87461971 -.48480962 .48480962 .87461971 -.532171 2.164721)"/><path d="m4.46748173.5971454c-.69023438 0-1.25.55976563-1.25 1.25 0 .69023438.55976562 1.25 1.25 1.25.69023437 0 1.25-.55976562 1.25-1.25 0-.69023437-.55976563-1.25-1.25-1.25z" fill-opacity=".84" transform="matrix(.92718385 -.37460659 .37460659 .92718385 -.366648 1.80805)"/><path d="m5.04514073.4053494c-.69023438 0-1.25.55976563-1.25 1.25 0 .69023438.55976562 1.25 1.25 1.25.69023437 0 1.25-.55976562 1.25-1.25 0-.69023437-.55976563-1.25-1.25-1.25z" fill-opacity=".9" transform="matrix(.96592583 -.25881905 .25881905 .96592583 -.256527 1.362183)"/><path d="m5.64258348.28899743c-.69023437 0-1.25.55976563-1.25 1.25 0 .69023438.55976563 1.25 1.25 1.25.69023438 0 1.25-.55976562 1.25-1.25 0-.69023437-.55976562-1.25-1.25-1.25z" fill-opacity=".96" transform="matrix(.99254615 -.12186934 .12186934 .99254615 -.145498 .699129)"/><path d="m6.25.25c-.69023438 0-1.25.55976563-1.25 1.25s.55976563 1.25 1.25 1.25 1.25-.55976563 1.25-1.25-.55976562-1.25-1.25-1.25z"/></g><g transform="translate(1.75 1.75)"><path d="m2.03865329 7.19705688c-.69023437 0-1.24999999.55976562-1.24999999 1.25 0 .69023437.55976562 1.25 1.24999999 1.25.69023438 0 1.25-.55976563 1.25-1.25 0-.69023438-.55976562-1.25-1.25-1.25z" fill-opacity=".06" transform="matrix(-.46947156 -.88294759 .88294759 -.46947156 -4.462566 14.212734)"/><path d="m1.792275 6.64048401c-.69023438 0-1.25.55976562-1.25 1.25 0 .69023437.55976562 1.25 1.25 1.25.69023437 0 1.25-.55976563 1.25-1.25 0-.69023438-.55976563-1.25-1.25-1.25z" fill-opacity=".12" transform="matrix(-.34202014 -.93969262 .93969262 -.34202014 -5.00936 12.273376)"/><path d="m1.61909242 6.05697444c-.69023438 0-1.25.55976562-1.25 1.25 0 .69023437.55976562 1.25 1.25 1.25.69023437 0 1.25-.55976563 1.25-1.25 0-.69023438-.55976563-1.25-1.25-1.25z" fill-opacity=".18" transform="matrix(-.22495105 -.97437006 .97437006 -.22495105 -5.136388 10.52828)"/><path d="m1.52194921 5.45610937c-.69023437 0-1.25.55976563-1.25 1.25 0 .69023438.55976563 1.25 1.25 1.25.69023438 0 1.25-.55976562 1.25-1.25 0-.69023437-.55976562-1.25-1.25-1.25z" fill-opacity=".24" transform="matrix(-.10452846 -.9945219 .9945219 -.10452846 -4.988336 8.9207)"/><path d="m1.50244047 4.84775501c-.69023437 0-1.25.55976562-1.25 1.25 0 .69023437.55976563 1.25 1.25 1.25.69023438 0 1.25-.55976563 1.25-1.25 0-.69023438-.55976562-1.25-1.25-1.25z" fill-opacity=".3" transform="matrix(.0348995 -.99939083 .99939083 .0348995 -4.644035 7.386471)"/><path d="m1.56088653 4.2419005c-.69023438 0-1.25.55976562-1.25 1.25 0 .69023437.55976562 1.25 1.25 1.25.69023437 0 1.25-.55976563 1.25-1.25 0-.69023438-.55976563-1.25-1.25-1.25z" fill-opacity=".36" transform="matrix(.15643447 -.98768834 .98768834 .15643447 -4.107575 6.174447)"/><path d="m1.6963277 3.64849396c-.69023438 0-1.25.55976563-1.25 1.25 0 .69023438.55976562 1.25 1.25 1.25.69023437 0 1.25-.55976562 1.25-1.25 0-.69023437-.55976563-1.25-1.25-1.25z" fill-opacity=".42" transform="matrix(.2923717 -.95630476 .95630476 .2923717 -3.484083 5.088519)"/><path d="m1.90654004 3.07727912c-.69023437 0-1.25.55976563-1.25 1.25 0 .69023438.55976563 1.25 1.25 1.25.69023438 0 1.25-.55976562 1.25-1.25 0-.69023437-.55976562-1.25-1.25-1.25z" fill-opacity=".48" transform="matrix(.40673664 -.91354546 .91354546 .40673664 -2.822086 4.308927)"/><path d="m2.18807188 2.5376353c-.69023438 0-1.25.55976563-1.25 1.25 0 .69023438.55976562 1.25 1.25 1.25.69023437 0 1.25-.55976562 1.25-1.25 0-.69023437-.55976563-1.25-1.25-1.25z" fill-opacity=".54" transform="matrix(.51503807 -.8571673 .8571673 .51503807 -2.185505 3.712403)"/><path d="m2.53630046 2.03842344c-.69023438 0-1.25.55976563-1.25 1.25 0 .69023438.55976562 1.25 1.25 1.25.69023437 0 1.25-.55976562 1.25-1.25 0-.69023437-.55976563-1.25-1.25-1.25z" fill-opacity=".6" transform="matrix(.62932039 -.77714596 .77714596 .62932039 -1.61543 3.190027)"/><path d="m2.94550788 1.58784059c-.69023437 0-1.25.55976562-1.25 1.25 0 .69023437.55976563 1.25 1.25 1.25.69023438 0 1.25-.55976563 1.25-1.25 0-.69023438-.55976562-1.25-1.25-1.25z" fill-opacity=".66" transform="matrix(.7193398 -.69465837 .69465837 .7193398 -1.144643 2.842591)"/><path d="m3.40897498 1.1932853c-.69023437 0-1.25.55976562-1.25 1.25 0 .69023437.55976563 1.25 1.25 1.25.69023438 0 1.25-.55976563 1.25-1.25 0-.69023438-.55976562-1.25-1.25-1.25z" fill-opacity=".72" transform="matrix(.79863551 -.60181502 .60181502 .79863551 -.783959 2.543563)"/><path d="m3.91909163.86123616c-.69023438 0-1.25.55976562-1.25 1.25 0 .69023437.55976562 1.25 1.25 1.25.69023437 0 1.25-.55976563 1.25-1.25 0-.69023438-.55976563-1.25-1.25-1.25z" fill-opacity=".78" transform="matrix(.87461971 -.48480962 .48480962 .87461971 -.532171 2.164721)"/><path d="m4.46748173.5971454c-.69023438 0-1.25.55976563-1.25 1.25 0 .69023438.55976562 1.25 1.25 1.25.69023437 0 1.25-.55976562 1.25-1.25 0-.69023437-.55976563-1.25-1.25-1.25z" fill-opacity=".84" transform="matrix(.92718385 -.37460659 .37460659 .92718385 -.366648 1.80805)"/><path d="m5.04514073.4053494c-.69023438 0-1.25.55976563-1.25 1.25 0 .69023438.55976562 1.25 1.25 1.25.69023437 0 1.25-.55976562 1.25-1.25 0-.69023437-.55976563-1.25-1.25-1.25z" fill-opacity=".9" transform="matrix(.96592583 -.25881905 .25881905 .96592583 -.256527 1.362183)"/><path d="m5.64258348.28899743c-.69023437 0-1.25.55976563-1.25 1.25 0 .69023438.55976563 1.25 1.25 1.25.69023438 0 1.25-.55976562 1.25-1.25 0-.69023437-.55976562-1.25-1.25-1.25z" fill-opacity=".96" transform="matrix(.99254615 -.12186934 .12186934 .99254615 -.145498 .699129)"/><path d="m6.25.25c-.69023438 0-1.25.55976563-1.25 1.25s.55976563 1.25 1.25 1.25 1.25-.55976563 1.25-1.25-.55976562-1.25-1.25-1.25z"/></g></g></g></svg>