<svg xmlns="http://www.w3.org/2000/svg" width="96" height="96" viewBox="0 0 96 96">
  <path fill="rgba(12, 12, 13, 0.8)" d="M48,0 C21.4904516,0 0,21.4902581 0,48 C0,74.5097419 21.4904516,96 48,96 C74.5095484,96 96,74.5095484 96,48 C96,21.4904516 74.5097419,0 48,0 Z M73.1827111,22.8178065 C85.8502096,35.4851613 86.7312519,54.8463871 77.1847565,68.4249677 L27.5748387,18.816 C41.1628639,9.26322581 60.5221803,10.1576129 73.1827111,22.8178065 Z M22.8179248,73.1821935 C10.1504262,60.5148387 9.26938399,41.1536129 18.8158794,27.5750323 L68.4257972,77.184 C54.8379656,86.7367742 35.4784556,85.8425806 22.8179248,73.1821935 Z"/>
</svg>
