<svg height="128" viewBox="0 0 128 128" width="128" xmlns="http://www.w3.org/2000/svg"><g fill="none" fill-rule="evenodd"><circle cx="64" cy="64" fill="#fff" fill-rule="nonzero" r="64"/><g fill="#3d3d3d" fill-rule="evenodd"><g transform="matrix(-1 0 0 -1 114 116)"><path d="m16.3092264 57.576455c-5.521875 0-10.00000004 4.478125-10.00000004 10s4.47812504 10 10.00000004 10 10-4.478125 10-10-4.478125-10-10-10z" fill-opacity=".06" transform="matrix(-.46947156 -.88294759 .88294759 -.46947156 -35.700524 113.701871)"/><path d="m14.3382 53.1238721c-5.52187504 0-10.00000004 4.478125-10.00000004 10s4.478125 10 10.00000004 10c5.521875 0 10-4.478125 10-10s-4.478125-10-10-10z" fill-opacity=".12" transform="matrix(-.34202014 -.93969262 .93969262 -.34202014 -40.074883 98.187008)"/><path d="m12.9527393 48.4557955c-5.52187496 0-9.99999996 4.478125-9.99999996 10s4.478125 10 9.99999996 10c5.521875 0 10-4.478125 10-10s-4.478125-10-10-10z" fill-opacity=".18" transform="matrix(-.22495105 -.97437006 .97437006 -.22495105 -41.091105 84.226249)"/><path d="m12.1755937 43.648875c-5.52187499 0-9.99999999 4.478125-9.99999999 10s4.478125 10 9.99999999 10c5.521875 0 10-4.478125 10-10s-4.478125-10-10-10z" fill-opacity=".24" transform="matrix(-.10452846 -.9945219 .9945219 -.10452846 -39.906691 71.365604)"/><path d="m12.0195238 38.7820401c-5.52187502 0-10.00000002 4.478125-10.00000002 10s4.478125 10 10.00000002 10c5.521875 0 10-4.478125 10-10s-4.478125-10-10-10z" fill-opacity=".3" transform="matrix(.0348995 -.99939083 .99939083 .0348995 -37.152275 59.091773)"/><path d="m12.4870922 33.935204c-5.52187497 0-9.99999997 4.478125-9.99999997 10s4.478125 10 9.99999997 10c5.521875 0 10-4.478125 10-10s-4.478125-10-10-10z" fill-opacity=".36" transform="matrix(.15643447 -.98768834 .98768834 .15643447 -32.860608 49.395579)"/><path d="m13.5706216 29.1879517c-5.52187502 0-10.00000002 4.478125-10.00000002 10s4.478125 10 10.00000002 10c5.521875 0 10-4.478125 10-10s-4.478125-10-10-10z" fill-opacity=".42" transform="matrix(.2923717 -.95630476 .95630476 .2923717 -27.872669 40.708154)"/><path d="m15.2523203 24.618233c-5.52187497 0-9.99999997 4.478125-9.99999997 10s4.478125 10 9.99999997 10c5.521875 0 10-4.478125 10-10s-4.478125-10-10-10z" fill-opacity=".48" transform="matrix(.40673664 -.91354546 .91354546 .40673664 -22.576687 34.471417)"/><path d="m17.504575 20.3010824c-5.521875 0-9.99999999 4.478125-9.99999999 10s4.47812499 10 9.99999999 10 10-4.478125 10-10-4.478125-10-10-10z" fill-opacity=".54" transform="matrix(.51503807 -.8571673 .8571673 .51503807 -17.484044 29.69922)"/><path d="m20.2904037 16.3073875c-5.521875 0-10 4.478125-10 10s4.478125 10 10 10 10-4.478125 10-10-4.478125-10-10-10z" fill-opacity=".6" transform="matrix(.62932039 -.77714596 .77714596 .62932039 -12.923441 25.520218)"/><path d="m23.5640631 12.7027247c-5.521875 0-10 4.478125-10 10s4.478125 10 10 10 10-4.478125 10-10-4.478125-10-10-10z" fill-opacity=".66" transform="matrix(.7193398 -.69465837 .69465837 .7193398 -9.157143 22.740725)"/><path d="m27.2717998 9.54628237c-5.521875 0-10 4.47812503-10 10.00000003s4.478125 10 10 10 10-4.478125 10-10-4.478125-10.00000003-10-10.00000003z" fill-opacity=".72" transform="matrix(.79863551 -.60181502 .60181502 .79863551 -6.271674 20.348506)"/><path d="m31.352733 6.88988924c-5.521875 0-10 4.47812496-10 9.99999996s4.478125 10 10 10 10-4.478125 10-10-4.478125-9.99999996-10-9.99999996z" fill-opacity=".78" transform="matrix(.87461971 -.48480962 .48480962 .87461971 -4.257366 17.317766)"/><path d="m35.7398538 4.77716322c-5.521875 0-10 4.478125-10 9.99999998 0 5.521875 4.478125 10 10 10s10-4.478125 10-10c0-5.52187498-4.478125-9.99999998-10-9.99999998z" fill-opacity=".84" transform="matrix(.92718385 -.37460659 .37460659 .92718385 -2.933184 14.464401)"/><path d="m40.3611258 3.2427952c-5.521875 0-10 4.478125-10 10s4.478125 10 10 10 10-4.478125 10-10-4.478125-10-10-10z" fill-opacity=".9" transform="matrix(.96592583 -.25881905 .25881905 .96592583 -2.052216 10.897465)"/><path d="m45.1406679 2.31197947c-5.521875 0-10 4.478125-10 10.00000003 0 5.521875 4.478125 10 10 10s10-4.478125 10-10c0-5.52187503-4.478125-10.00000003-10-10.00000003z" fill-opacity=".96" transform="matrix(.99254615 -.12186934 .12186934 .99254615 -1.163981 5.593035)"/><path d="m50 2c-5.521875 0-10 4.478125-10 10s4.478125 10 10 10 10-4.478125 10-10-4.478125-10-10-10z"/></g><g transform="translate(14 14)"><path d="m16.3092264 57.576455c-5.521875 0-10.00000004 4.478125-10.00000004 10s4.47812504 10 10.00000004 10 10-4.478125 10-10-4.478125-10-10-10z" fill-opacity=".06" transform="matrix(-.46947156 -.88294759 .88294759 -.46947156 -35.700524 113.701871)"/><path d="m14.3382 53.1238721c-5.52187504 0-10.00000004 4.478125-10.00000004 10s4.478125 10 10.00000004 10c5.521875 0 10-4.478125 10-10s-4.478125-10-10-10z" fill-opacity=".12" transform="matrix(-.34202014 -.93969262 .93969262 -.34202014 -40.074883 98.187008)"/><path d="m12.9527393 48.4557955c-5.52187496 0-9.99999996 4.478125-9.99999996 10s4.478125 10 9.99999996 10c5.521875 0 10-4.478125 10-10s-4.478125-10-10-10z" fill-opacity=".18" transform="matrix(-.22495105 -.97437006 .97437006 -.22495105 -41.091105 84.226249)"/><path d="m12.1755937 43.648875c-5.52187499 0-9.99999999 4.478125-9.99999999 10s4.478125 10 9.99999999 10c5.521875 0 10-4.478125 10-10s-4.478125-10-10-10z" fill-opacity=".24" transform="matrix(-.10452846 -.9945219 .9945219 -.10452846 -39.906691 71.365604)"/><path d="m12.0195238 38.7820401c-5.52187502 0-10.00000002 4.478125-10.00000002 10s4.478125 10 10.00000002 10c5.521875 0 10-4.478125 10-10s-4.478125-10-10-10z" fill-opacity=".3" transform="matrix(.0348995 -.99939083 .99939083 .0348995 -37.152275 59.091773)"/><path d="m12.4870922 33.935204c-5.52187497 0-9.99999997 4.478125-9.99999997 10s4.478125 10 9.99999997 10c5.521875 0 10-4.478125 10-10s-4.478125-10-10-10z" fill-opacity=".36" transform="matrix(.15643447 -.98768834 .98768834 .15643447 -32.860608 49.395579)"/><path d="m13.5706216 29.1879517c-5.52187502 0-10.00000002 4.478125-10.00000002 10s4.478125 10 10.00000002 10c5.521875 0 10-4.478125 10-10s-4.478125-10-10-10z" fill-opacity=".42" transform="matrix(.2923717 -.95630476 .95630476 .2923717 -27.872669 40.708154)"/><path d="m15.2523203 24.618233c-5.52187497 0-9.99999997 4.478125-9.99999997 10s4.478125 10 9.99999997 10c5.521875 0 10-4.478125 10-10s-4.478125-10-10-10z" fill-opacity=".48" transform="matrix(.40673664 -.91354546 .91354546 .40673664 -22.576687 34.471417)"/><path d="m17.504575 20.3010824c-5.521875 0-9.99999999 4.478125-9.99999999 10s4.47812499 10 9.99999999 10 10-4.478125 10-10-4.478125-10-10-10z" fill-opacity=".54" transform="matrix(.51503807 -.8571673 .8571673 .51503807 -17.484044 29.69922)"/><path d="m20.2904037 16.3073875c-5.521875 0-10 4.478125-10 10s4.478125 10 10 10 10-4.478125 10-10-4.478125-10-10-10z" fill-opacity=".6" transform="matrix(.62932039 -.77714596 .77714596 .62932039 -12.923441 25.520218)"/><path d="m23.5640631 12.7027247c-5.521875 0-10 4.478125-10 10s4.478125 10 10 10 10-4.478125 10-10-4.478125-10-10-10z" fill-opacity=".66" transform="matrix(.7193398 -.69465837 .69465837 .7193398 -9.157143 22.740725)"/><path d="m27.2717998 9.54628237c-5.521875 0-10 4.47812503-10 10.00000003s4.478125 10 10 10 10-4.478125 10-10-4.478125-10.00000003-10-10.00000003z" fill-opacity=".72" transform="matrix(.79863551 -.60181502 .60181502 .79863551 -6.271674 20.348506)"/><path d="m31.352733 6.88988924c-5.521875 0-10 4.47812496-10 9.99999996s4.478125 10 10 10 10-4.478125 10-10-4.478125-9.99999996-10-9.99999996z" fill-opacity=".78" transform="matrix(.87461971 -.48480962 .48480962 .87461971 -4.257366 17.317766)"/><path d="m35.7398538 4.77716322c-5.521875 0-10 4.478125-10 9.99999998 0 5.521875 4.478125 10 10 10s10-4.478125 10-10c0-5.52187498-4.478125-9.99999998-10-9.99999998z" fill-opacity=".84" transform="matrix(.92718385 -.37460659 .37460659 .92718385 -2.933184 14.464401)"/><path d="m40.3611258 3.2427952c-5.521875 0-10 4.478125-10 10s4.478125 10 10 10 10-4.478125 10-10-4.478125-10-10-10z" fill-opacity=".9" transform="matrix(.96592583 -.25881905 .25881905 .96592583 -2.052216 10.897465)"/><path d="m45.1406679 2.31197947c-5.521875 0-10 4.478125-10 10.00000003 0 5.521875 4.478125 10 10 10s10-4.478125 10-10c0-5.52187503-4.478125-10.00000003-10-10.00000003z" fill-opacity=".96" transform="matrix(.99254615 -.12186934 .12186934 .99254615 -1.163981 5.593035)"/><path d="m50 2c-5.521875 0-10 4.478125-10 10s4.478125 10 10 10 10-4.478125 10-10-4.478125-10-10-10z"/></g></g></g></svg>