<?xml version="1.0" encoding="UTF-8"?>
<svg width="16px" height="16px" viewBox="0 0 16 16" version="1.1" xmlns="http://www.w3.org/2000/svg" xmlns:xlink="http://www.w3.org/1999/xlink">
    <!-- Generator: Sketch 52.5 (67469) - http://www.bohemiancoding.com/sketch -->
    <title>icon-16-disabled</title>
    <desc>Created with Sketch.</desc>
    <g id="icon-16-disabled" stroke="none" stroke-width="1" fill="none" fill-rule="evenodd">
        <g id="Disabled" fill-rule="nonzero">
            <circle id="Background" fill="#FFFFFF" cx="8" cy="8" r="8"></circle>
            <path d="M5.5,5.375 C5.5,5.02982203 5.77982203,4.75 6.125,4.75 C6.47017797,4.75 6.75,5.02982203 6.75,5.375 L6.75,10.625 C6.75,10.970178 6.47017797,11.25 6.125,11.25 C5.77982203,11.25 5.5,10.970178 5.5,10.625 L5.5,5.375 Z" id="Line" fill-opacity="0.8" fill="#0C0C0D"></path>
            <path d="M9.25,5.375 C9.25,5.02982203 9.52982203,4.75 9.875,4.75 C10.220178,4.75 10.5,5.02982203 10.5,5.375 L10.5,10.625 C10.5,10.970178 10.220178,11.25 9.875,11.25 C9.52982203,11.25 9.25,10.970178 9.25,10.625 L9.25,5.375 Z" id="Line" fill-opacity="0.8" fill="#0C0C0D"></path>
        </g>
    </g>
</svg>