<svg xmlns="http://www.w3.org/2000/svg" width="128" height="128" viewBox="0 0 128 128">
  <path fill="rgba(12, 12, 13, 0.8)" d="M64,0 C28.6451613,0 0,28.6451613 0,64 C0,99.3548387 28.6451613,128 64,128 C99.3548387,128 128,99.3548387 128,64 C128,28.6451613 99.3548387,0 64,0 Z M64,112 C37.48,112 16,90.52 16,64 C16,37.48 37.48,16 64,16 C90.52,16 112,37.48 112,64 C112,90.52 90.52,112 64,112 Z M84,44.1666667 L84,83.8333333 C84,86.125 82.2139535,88 80.0310078,88 L71.9689922,88 C69.7860465,88 68,86.125 68,83.8333333 L68,44.1666667 C68,41.875 69.7860465,40 71.9689922,40 L80.0310078,40 C82.2139535,40 84,41.875 84,44.1666667 Z M60,44.1666667 L60,83.8333333 C60,86.125 58.2139535,88 56.0310078,88 L47.9689922,88 C45.7860465,88 44,86.125 44,83.8333333 L44,44.1666667 C44,41.875 45.7860465,40 47.9689922,40 L56.0310078,40 C58.2139535,40 60,41.875 60,44.1666667 Z"/>
</svg>
