<svg height="48" viewBox="0 0 48 48" width="48" xmlns="http://www.w3.org/2000/svg"><g fill="none" fill-rule="evenodd"><circle cx="24" cy="24" fill="#fff" fill-rule="nonzero" r="24"/><g fill="#3d3d3d" fill-rule="evenodd"><g transform="matrix(-1 0 0 -1 42.75 43.5)"><path d="m6.11595988 21.5911706c-2.07070312 0-3.75 1.6792969-3.75 3.75 0 2.0707032 1.67929688 3.75 3.75 3.75 2.07070313 0 3.75-1.6792968 3.75-3.75 0-2.0707031-1.67929687-3.75-3.75-3.75z" fill-opacity=".06" transform="matrix(-.46947156 -.88294759 .88294759 -.46947156 -13.387697 42.638202)"/><path d="m5.37682499 19.921452c-2.07070313 0-3.75 1.6792969-3.75 3.75 0 2.0707032 1.67929687 3.75 3.75 3.75 2.07070312 0 3.75-1.6792968 3.75-3.75 0-2.0707031-1.67929688-3.75-3.75-3.75z" fill-opacity=".12" transform="matrix(-.34202014 -.93969262 .93969262 -.34202014 -15.028081 36.820128)"/><path d="m4.85727725 18.1709233c-2.07070312 0-3.75 1.6792969-3.75 3.75s1.67929688 3.75 3.75 3.75c2.07070313 0 3.75-1.6792969 3.75-3.75s-1.67929687-3.75-3.75-3.75z" fill-opacity=".18" transform="matrix(-.22495105 -.97437006 .97437006 -.22495105 -15.409165 31.584843)"/><path d="m4.56584764 16.3683281c-2.07070312 0-3.75 1.6792969-3.75 3.75s1.67929688 3.75 3.75 3.75c2.07070313 0 3.75-1.6792969 3.75-3.75s-1.67929687-3.75-3.75-3.75z" fill-opacity=".24" transform="matrix(-.10452846 -.9945219 .9945219 -.10452846 -14.965009 26.762102)"/><path d="m4.50732142 14.543265c-2.07070313 0-3.75 1.6792969-3.75 3.75s1.67929687 3.75 3.75 3.75c2.07070312 0 3.75-1.6792969 3.75-3.75s-1.67929688-3.75-3.75-3.75z" fill-opacity=".3" transform="matrix(.0348995 -.99939083 .99939083 .0348995 -13.932103 22.159415)"/><path d="m4.68265959 12.7257015c-2.07070313 0-3.75 1.6792969-3.75 3.75s1.67929687 3.75 3.75 3.75c2.07070312 0 3.75-1.6792969 3.75-3.75s-1.67929688-3.75-3.75-3.75z" fill-opacity=".36" transform="matrix(.15643447 -.98768834 .98768834 .15643447 -12.322727 18.523342)"/><path d="m5.08898309 10.9454819c-2.07070312 0-3.75 1.6792969-3.75 3.75s1.67929688 3.75 3.75 3.75c2.07070313 0 3.75-1.6792969 3.75-3.75s-1.67929687-3.75-3.75-3.75z" fill-opacity=".42" transform="matrix(.2923717 -.95630476 .95630476 .2923717 -10.452251 15.265558)"/><path d="m5.71962012 9.23183736c-2.07070312 0-3.75 1.67929684-3.75 3.75000004 0 2.0707031 1.67929688 3.75 3.75 3.75 2.07070313 0 3.75-1.6792969 3.75-3.75 0-2.0707032-1.67929687-3.75000004-3.75-3.75000004z" fill-opacity=".48" transform="matrix(.40673664 -.91354546 .91354546 .40673664 -8.466257 12.926781)"/><path d="m6.56421563 7.6129059c-2.07070313 0-3.75 1.67929688-3.75 3.75 0 2.0707031 1.67929687 3.75 3.75 3.75 2.07070312 0 3.74999997-1.6792969 3.74999997-3.75 0-2.07070312-1.67929685-3.75-3.74999997-3.75z" fill-opacity=".54" transform="matrix(.51503807 -.8571673 .8571673 .51503807 -6.556517 11.137208)"/><path d="m7.60890137 6.11527032c-2.07070312 0-3.75 1.67929688-3.75 3.75 0 2.07070308 1.67929688 3.74999998 3.75 3.74999998 2.07070313 0 3.75000003-1.6792969 3.75000003-3.74999998 0-2.07070312-1.6792969-3.75-3.75000003-3.75z" fill-opacity=".6" transform="matrix(.62932039 -.77714596 .77714596 .62932039 -4.84629 9.570081)"/><path d="m8.83652365 4.76352176c-2.07070312 0-3.75 1.67929688-3.75 3.75 0 2.07070314 1.67929688 3.75000004 3.75 3.75000004 2.07070315 0 3.75000005-1.6792969 3.75000005-3.75000004 0-2.07070312-1.6792969-3.75-3.75000005-3.75z" fill-opacity=".66" transform="matrix(.7193398 -.69465837 .69465837 .7193398 -3.433929 8.527772)"/><path d="m10.2269249 3.57985589c-2.07070308 0-3.74999996 1.67929687-3.74999996 3.75 0 2.07070312 1.67929688 3.75000001 3.74999996 3.75000001 2.0707032 0 3.75-1.67929689 3.75-3.75000001 0-2.07070313-1.6792968-3.75-3.75-3.75z" fill-opacity=".72" transform="matrix(.79863551 -.60181502 .60181502 .79863551 -2.351878 7.63069)"/><path d="m11.7572749 2.58370847c-2.07070314 0-3.75000002 1.67929687-3.75000002 3.75 0 2.07070312 1.67929688 3.75000003 3.75000002 3.75000003 2.0707031 0 3.75-1.67929691 3.75-3.75000003 0-2.07070313-1.6792969-3.75-3.75-3.75z" fill-opacity=".78" transform="matrix(.87461971 -.48480962 .48480962 .87461971 -1.596512 6.494162)"/><path d="m13.4024452 1.79143621c-2.0707031 0-3.75000002 1.67929687-3.75000002 3.75 0 2.07070312 1.67929692 3.75 3.75000002 3.75s3.75-1.67929688 3.75-3.75c0-2.07070313-1.6792969-3.75-3.75-3.75z" fill-opacity=".84" transform="matrix(.92718385 -.37460659 .37460659 .92718385 -1.099944 5.42415)"/><path d="m15.1354222 1.2160482c-2.0707031 0-3.75 1.67929688-3.75 3.75 0 2.07070313 1.6792969 3.75 3.75 3.75s3.75-1.67929687 3.75-3.75c0-2.07070312-1.6792969-3.75-3.75-3.75z" fill-opacity=".9" transform="matrix(.96592583 -.25881905 .25881905 .96592583 -.769581 4.086549)"/><path d="m16.9277504.8669923c-2.0707031 0-3.75 1.67929688-3.75 3.75 0 2.07070313 1.6792969 3.75 3.75 3.75 2.0707032 0 3.75-1.67929687 3.75-3.75 0-2.07070312-1.6792968-3.75-3.75-3.75z" fill-opacity=".96" transform="matrix(.99254615 -.12186934 .12186934 .99254615 -.436493 2.097388)"/><path d="m18.75.75c-2.0707031 0-3.75 1.67929688-3.75 3.75s1.6792969 3.75 3.75 3.75 3.75-1.67929688 3.75-3.75-1.6792969-3.75-3.75-3.75z"/></g><g transform="translate(5.25 5.25)"><path d="m6.11595988 21.5911706c-2.07070312 0-3.75 1.6792969-3.75 3.75 0 2.0707032 1.67929688 3.75 3.75 3.75 2.07070313 0 3.75-1.6792968 3.75-3.75 0-2.0707031-1.67929687-3.75-3.75-3.75z" fill-opacity=".06" transform="matrix(-.46947156 -.88294759 .88294759 -.46947156 -13.387697 42.638202)"/><path d="m5.37682499 19.921452c-2.07070313 0-3.75 1.6792969-3.75 3.75 0 2.0707032 1.67929687 3.75 3.75 3.75 2.07070312 0 3.75-1.6792968 3.75-3.75 0-2.0707031-1.67929688-3.75-3.75-3.75z" fill-opacity=".12" transform="matrix(-.34202014 -.93969262 .93969262 -.34202014 -15.028081 36.820128)"/><path d="m4.85727725 18.1709233c-2.07070312 0-3.75 1.6792969-3.75 3.75s1.67929688 3.75 3.75 3.75c2.07070313 0 3.75-1.6792969 3.75-3.75s-1.67929687-3.75-3.75-3.75z" fill-opacity=".18" transform="matrix(-.22495105 -.97437006 .97437006 -.22495105 -15.409165 31.584843)"/><path d="m4.56584764 16.3683281c-2.07070312 0-3.75 1.6792969-3.75 3.75s1.67929688 3.75 3.75 3.75c2.07070313 0 3.75-1.6792969 3.75-3.75s-1.67929687-3.75-3.75-3.75z" fill-opacity=".24" transform="matrix(-.10452846 -.9945219 .9945219 -.10452846 -14.965009 26.762102)"/><path d="m4.50732142 14.543265c-2.07070313 0-3.75 1.6792969-3.75 3.75s1.67929687 3.75 3.75 3.75c2.07070312 0 3.75-1.6792969 3.75-3.75s-1.67929688-3.75-3.75-3.75z" fill-opacity=".3" transform="matrix(.0348995 -.99939083 .99939083 .0348995 -13.932103 22.159415)"/><path d="m4.68265959 12.7257015c-2.07070313 0-3.75 1.6792969-3.75 3.75s1.67929687 3.75 3.75 3.75c2.07070312 0 3.75-1.6792969 3.75-3.75s-1.67929688-3.75-3.75-3.75z" fill-opacity=".36" transform="matrix(.15643447 -.98768834 .98768834 .15643447 -12.322727 18.523342)"/><path d="m5.08898309 10.9454819c-2.07070312 0-3.75 1.6792969-3.75 3.75s1.67929688 3.75 3.75 3.75c2.07070313 0 3.75-1.6792969 3.75-3.75s-1.67929687-3.75-3.75-3.75z" fill-opacity=".42" transform="matrix(.2923717 -.95630476 .95630476 .2923717 -10.452251 15.265558)"/><path d="m5.71962012 9.23183736c-2.07070312 0-3.75 1.67929684-3.75 3.75000004 0 2.0707031 1.67929688 3.75 3.75 3.75 2.07070313 0 3.75-1.6792969 3.75-3.75 0-2.0707032-1.67929687-3.75000004-3.75-3.75000004z" fill-opacity=".48" transform="matrix(.40673664 -.91354546 .91354546 .40673664 -8.466257 12.926781)"/><path d="m6.56421563 7.6129059c-2.07070313 0-3.75 1.67929688-3.75 3.75 0 2.0707031 1.67929687 3.75 3.75 3.75 2.07070312 0 3.74999997-1.6792969 3.74999997-3.75 0-2.07070312-1.67929685-3.75-3.74999997-3.75z" fill-opacity=".54" transform="matrix(.51503807 -.8571673 .8571673 .51503807 -6.556517 11.137208)"/><path d="m7.60890137 6.11527032c-2.07070312 0-3.75 1.67929688-3.75 3.75 0 2.07070308 1.67929688 3.74999998 3.75 3.74999998 2.07070313 0 3.75000003-1.6792969 3.75000003-3.74999998 0-2.07070312-1.6792969-3.75-3.75000003-3.75z" fill-opacity=".6" transform="matrix(.62932039 -.77714596 .77714596 .62932039 -4.84629 9.570081)"/><path d="m8.83652365 4.76352176c-2.07070312 0-3.75 1.67929688-3.75 3.75 0 2.07070314 1.67929688 3.75000004 3.75 3.75000004 2.07070315 0 3.75000005-1.6792969 3.75000005-3.75000004 0-2.07070312-1.6792969-3.75-3.75000005-3.75z" fill-opacity=".66" transform="matrix(.7193398 -.69465837 .69465837 .7193398 -3.433929 8.527772)"/><path d="m10.2269249 3.57985589c-2.07070308 0-3.74999996 1.67929687-3.74999996 3.75 0 2.07070312 1.67929688 3.75000001 3.74999996 3.75000001 2.0707032 0 3.75-1.67929689 3.75-3.75000001 0-2.07070313-1.6792968-3.75-3.75-3.75z" fill-opacity=".72" transform="matrix(.79863551 -.60181502 .60181502 .79863551 -2.351878 7.63069)"/><path d="m11.7572749 2.58370847c-2.07070314 0-3.75000002 1.67929687-3.75000002 3.75 0 2.07070312 1.67929688 3.75000003 3.75000002 3.75000003 2.0707031 0 3.75-1.67929691 3.75-3.75000003 0-2.07070313-1.6792969-3.75-3.75-3.75z" fill-opacity=".78" transform="matrix(.87461971 -.48480962 .48480962 .87461971 -1.596512 6.494162)"/><path d="m13.4024452 1.79143621c-2.0707031 0-3.75000002 1.67929687-3.75000002 3.75 0 2.07070312 1.67929692 3.75 3.75000002 3.75s3.75-1.67929688 3.75-3.75c0-2.07070313-1.6792969-3.75-3.75-3.75z" fill-opacity=".84" transform="matrix(.92718385 -.37460659 .37460659 .92718385 -1.099944 5.42415)"/><path d="m15.1354222 1.2160482c-2.0707031 0-3.75 1.67929688-3.75 3.75 0 2.07070313 1.6792969 3.75 3.75 3.75s3.75-1.67929687 3.75-3.75c0-2.07070312-1.6792969-3.75-3.75-3.75z" fill-opacity=".9" transform="matrix(.96592583 -.25881905 .25881905 .96592583 -.769581 4.086549)"/><path d="m16.9277504.8669923c-2.0707031 0-3.75 1.67929688-3.75 3.75 0 2.07070313 1.6792969 3.75 3.75 3.75 2.0707032 0 3.75-1.67929687 3.75-3.75 0-2.07070312-1.6792968-3.75-3.75-3.75z" fill-opacity=".96" transform="matrix(.99254615 -.12186934 .12186934 .99254615 -.436493 2.097388)"/><path d="m18.75.75c-2.0707031 0-3.75 1.67929688-3.75 3.75s1.6792969 3.75 3.75 3.75 3.75-1.67929688 3.75-3.75-1.6792969-3.75-3.75-3.75z"/></g></g></g></svg>