<svg height="96" viewBox="0 0 96 96" width="96" xmlns="http://www.w3.org/2000/svg"><g fill="none" fill-rule="evenodd"><circle cx="48" cy="48" fill="#fff" fill-rule="nonzero" r="48"/><g fill="#3d3d3d" fill-rule="evenodd"><g transform="matrix(-1 0 0 -1 85.5 87)"><path d="m12.2319198 43.1823413c-4.14140628 0-7.50000003 3.3585937-7.50000003 7.5 0 4.1414062 3.35859375 7.5 7.50000003 7.5 4.1414062 0 7.5-3.3585938 7.5-7.5 0-4.1414063-3.3585938-7.5-7.5-7.5z" fill-opacity=".06" transform="matrix(-.46947156 -.88294759 .88294759 -.46947156 -26.775392 85.276403)"/><path d="m10.75365 39.8429041c-4.14140628 0-7.50000003 3.3585937-7.50000003 7.5 0 4.1414062 3.35859375 7.5 7.50000003 7.5 4.1414062 0 7.5-3.3585938 7.5-7.5 0-4.1414063-3.3585938-7.5-7.5-7.5z" fill-opacity=".12" transform="matrix(-.34202014 -.93969262 .93969262 -.34202014 -30.056163 73.640256)"/><path d="m9.7145545 36.3418466c-4.14140625 0-7.5 3.3585938-7.5 7.5 0 4.1414063 3.35859375 7.5 7.5 7.5 4.1414063 0 7.5-3.3585937 7.5-7.5 0-4.1414062-3.3585937-7.5-7.5-7.5z" fill-opacity=".18" transform="matrix(-.22495105 -.97437006 .97437006 -.22495105 -30.818329 63.169688)"/><path d="m9.13169528 32.7366562c-4.14140625 0-7.5 3.3585938-7.5 7.5 0 4.1414063 3.35859375 7.5 7.5 7.5 4.14140622 0 7.50000002-3.3585937 7.50000002-7.5 0-4.1414062-3.3585938-7.5-7.50000002-7.5z" fill-opacity=".24" transform="matrix(-.10452846 -.9945219 .9945219 -.10452846 -29.930018 53.524202)"/><path d="m9.01464284 29.08653c-4.14140625 0-7.5 3.3585938-7.5 7.5 0 4.1414063 3.35859375 7.5 7.5 7.5 4.14140626 0 7.49999996-3.3585937 7.49999996-7.5 0-4.1414062-3.3585937-7.5-7.49999996-7.5z" fill-opacity=".3" transform="matrix(.0348995 -.99939083 .99939083 .0348995 -27.864206 44.31883)"/><path d="m9.36531917 25.451403c-4.14140625 0-7.5 3.3585937-7.5 7.5 0 4.1414062 3.35859375 7.5 7.5 7.5 4.14140623 0 7.50000003-3.3585938 7.50000003-7.5 0-4.1414063-3.3585938-7.5-7.50000003-7.5z" fill-opacity=".36" transform="matrix(.15643447 -.98768834 .98768834 .15643447 -24.645456 37.046684)"/><path d="m10.1779662 21.8909638c-4.14140626 0-7.50000001 3.3585937-7.50000001 7.5 0 4.1414062 3.35859375 7.5 7.50000001 7.5 4.1414062 0 7.5-3.3585938 7.5-7.5 0-4.1414063-3.3585938-7.5-7.5-7.5z" fill-opacity=".42" transform="matrix(.2923717 -.95630476 .95630476 .2923717 -20.904502 30.531115)"/><path d="m11.4392402 18.4636747c-4.14140621 0-7.49999996 3.3585938-7.49999996 7.5 0 4.1414063 3.35859375 7.5 7.49999996 7.5 4.1414063 0 7.5-3.3585937 7.5-7.5 0-4.1414062-3.3585937-7.5-7.5-7.5z" fill-opacity=".48" transform="matrix(.40673664 -.91354546 .91354546 .40673664 -16.932515 25.853563)"/><path d="m13.1284313 15.2258118c-4.1414063 0-7.50000005 3.3585938-7.50000005 7.5 0 4.1414063 3.35859375 7.5 7.50000005 7.5 4.1414062 0 7.5-3.3585937 7.5-7.5 0-4.1414062-3.3585938-7.5-7.5-7.5z" fill-opacity=".54" transform="matrix(.51503807 -.8571673 .8571673 .51503807 -13.113034 22.274415)"/><path d="m15.2178027 12.2305406c-4.1414062 0-7.49999995 3.3585938-7.49999995 7.5 0 4.1414063 3.35859375 7.5 7.49999995 7.5 4.1414063 0 7.5-3.3585937 7.5-7.5 0-4.1414062-3.3585937-7.5-7.5-7.5z" fill-opacity=".6" transform="matrix(.62932039 -.77714596 .77714596 .62932039 -9.692581 19.140163)"/><path d="m17.6730473 9.52704352c-4.1414062 0-7.5 3.35859378-7.5 7.49999998 0 4.1414063 3.3585938 7.5 7.5 7.5 4.1414063 0 7.5-3.3585937 7.5-7.5 0-4.1414062-3.3585937-7.49999998-7.5-7.49999998z" fill-opacity=".66" transform="matrix(.7193398 -.69465837 .69465837 .7193398 -6.867858 17.055544)"/><path d="m20.4538499 7.15971178c-4.1414063 0-7.5 3.35859372-7.5 7.50000002 0 4.1414062 3.3585937 7.5 7.5 7.5 4.1414062 0 7.5-3.3585938 7.5-7.5 0-4.1414063-3.3585938-7.50000002-7.5-7.50000002z" fill-opacity=".72" transform="matrix(.79863551 -.60181502 .60181502 .79863551 -4.703756 15.26138)"/><path d="m23.5145498 5.16741693c-4.1414063 0-7.5 3.35859375-7.5 7.49999997 0 4.1414063 3.3585937 7.5 7.5 7.5 4.1414062 0 7.5-3.3585937 7.5-7.5 0-4.14140622-3.3585938-7.49999997-7.5-7.49999997z" fill-opacity=".78" transform="matrix(.87461971 -.48480962 .48480962 .87461971 -3.193024 12.988325)"/><path d="m26.8048904 3.58287242c-4.1414063 0-7.5 3.35859375-7.5 7.49999998 0 4.1414063 3.3585937 7.5 7.5 7.5 4.1414062 0 7.5-3.3585937 7.5-7.5 0-4.14140623-3.3585938-7.49999998-7.5-7.49999998z" fill-opacity=".84" transform="matrix(.92718385 -.37460659 .37460659 .92718385 -2.199888 10.848301)"/><path d="m30.2708444 2.4320964c-4.1414063 0-7.5 3.35859375-7.5 7.5 0 4.1414063 3.3585937 7.5 7.5 7.5 4.1414062 0 7.5-3.3585937 7.5-7.5 0-4.14140625-3.3585938-7.5-7.5-7.5z" fill-opacity=".9" transform="matrix(.96592583 -.25881905 .25881905 .96592583 -1.539162 8.173099)"/><path d="m33.8555009 1.73398461c-4.1414063 0-7.5 3.35859375-7.5 7.5 0 4.14140629 3.3585937 7.49999999 7.5 7.49999999 4.1414062 0 7.5-3.3585937 7.5-7.49999999 0-4.14140625-3.3585938-7.5-7.5-7.5z" fill-opacity=".96" transform="matrix(.99254615 -.12186934 .12186934 .99254615 -.872986 4.194776)"/><path d="m37.5 1.5c-4.1414063 0-7.5 3.35859375-7.5 7.5 0 4.1414062 3.3585938 7.5 7.5 7.5s7.5-3.3585938 7.5-7.5c0-4.14140625-3.3585937-7.5-7.5-7.5z"/></g><g transform="translate(10.5 10.5)"><path d="m12.2319198 43.1823413c-4.14140628 0-7.50000003 3.3585937-7.50000003 7.5 0 4.1414062 3.35859375 7.5 7.50000003 7.5 4.1414062 0 7.5-3.3585938 7.5-7.5 0-4.1414063-3.3585938-7.5-7.5-7.5z" fill-opacity=".06" transform="matrix(-.46947156 -.88294759 .88294759 -.46947156 -26.775392 85.276403)"/><path d="m10.75365 39.8429041c-4.14140628 0-7.50000003 3.3585937-7.50000003 7.5 0 4.1414062 3.35859375 7.5 7.50000003 7.5 4.1414062 0 7.5-3.3585938 7.5-7.5 0-4.1414063-3.3585938-7.5-7.5-7.5z" fill-opacity=".12" transform="matrix(-.34202014 -.93969262 .93969262 -.34202014 -30.056163 73.640256)"/><path d="m9.7145545 36.3418466c-4.14140625 0-7.5 3.3585938-7.5 7.5 0 4.1414063 3.35859375 7.5 7.5 7.5 4.1414063 0 7.5-3.3585937 7.5-7.5 0-4.1414062-3.3585937-7.5-7.5-7.5z" fill-opacity=".18" transform="matrix(-.22495105 -.97437006 .97437006 -.22495105 -30.818329 63.169688)"/><path d="m9.13169528 32.7366562c-4.14140625 0-7.5 3.3585938-7.5 7.5 0 4.1414063 3.35859375 7.5 7.5 7.5 4.14140622 0 7.50000002-3.3585937 7.50000002-7.5 0-4.1414062-3.3585938-7.5-7.50000002-7.5z" fill-opacity=".24" transform="matrix(-.10452846 -.9945219 .9945219 -.10452846 -29.930018 53.524202)"/><path d="m9.01464284 29.08653c-4.14140625 0-7.5 3.3585938-7.5 7.5 0 4.1414063 3.35859375 7.5 7.5 7.5 4.14140626 0 7.49999996-3.3585937 7.49999996-7.5 0-4.1414062-3.3585937-7.5-7.49999996-7.5z" fill-opacity=".3" transform="matrix(.0348995 -.99939083 .99939083 .0348995 -27.864206 44.31883)"/><path d="m9.36531917 25.451403c-4.14140625 0-7.5 3.3585937-7.5 7.5 0 4.1414062 3.35859375 7.5 7.5 7.5 4.14140623 0 7.50000003-3.3585938 7.50000003-7.5 0-4.1414063-3.3585938-7.5-7.50000003-7.5z" fill-opacity=".36" transform="matrix(.15643447 -.98768834 .98768834 .15643447 -24.645456 37.046684)"/><path d="m10.1779662 21.8909638c-4.14140626 0-7.50000001 3.3585937-7.50000001 7.5 0 4.1414062 3.35859375 7.5 7.50000001 7.5 4.1414062 0 7.5-3.3585938 7.5-7.5 0-4.1414063-3.3585938-7.5-7.5-7.5z" fill-opacity=".42" transform="matrix(.2923717 -.95630476 .95630476 .2923717 -20.904502 30.531115)"/><path d="m11.4392402 18.4636747c-4.14140621 0-7.49999996 3.3585938-7.49999996 7.5 0 4.1414063 3.35859375 7.5 7.49999996 7.5 4.1414063 0 7.5-3.3585937 7.5-7.5 0-4.1414062-3.3585937-7.5-7.5-7.5z" fill-opacity=".48" transform="matrix(.40673664 -.91354546 .91354546 .40673664 -16.932515 25.853563)"/><path d="m13.1284313 15.2258118c-4.1414063 0-7.50000005 3.3585938-7.50000005 7.5 0 4.1414063 3.35859375 7.5 7.50000005 7.5 4.1414062 0 7.5-3.3585937 7.5-7.5 0-4.1414062-3.3585938-7.5-7.5-7.5z" fill-opacity=".54" transform="matrix(.51503807 -.8571673 .8571673 .51503807 -13.113034 22.274415)"/><path d="m15.2178027 12.2305406c-4.1414062 0-7.49999995 3.3585938-7.49999995 7.5 0 4.1414063 3.35859375 7.5 7.49999995 7.5 4.1414063 0 7.5-3.3585937 7.5-7.5 0-4.1414062-3.3585937-7.5-7.5-7.5z" fill-opacity=".6" transform="matrix(.62932039 -.77714596 .77714596 .62932039 -9.692581 19.140163)"/><path d="m17.6730473 9.52704352c-4.1414062 0-7.5 3.35859378-7.5 7.49999998 0 4.1414063 3.3585938 7.5 7.5 7.5 4.1414063 0 7.5-3.3585937 7.5-7.5 0-4.1414062-3.3585937-7.49999998-7.5-7.49999998z" fill-opacity=".66" transform="matrix(.7193398 -.69465837 .69465837 .7193398 -6.867858 17.055544)"/><path d="m20.4538499 7.15971178c-4.1414063 0-7.5 3.35859372-7.5 7.50000002 0 4.1414062 3.3585937 7.5 7.5 7.5 4.1414062 0 7.5-3.3585938 7.5-7.5 0-4.1414063-3.3585938-7.50000002-7.5-7.50000002z" fill-opacity=".72" transform="matrix(.79863551 -.60181502 .60181502 .79863551 -4.703756 15.26138)"/><path d="m23.5145498 5.16741693c-4.1414063 0-7.5 3.35859375-7.5 7.49999997 0 4.1414063 3.3585937 7.5 7.5 7.5 4.1414062 0 7.5-3.3585937 7.5-7.5 0-4.14140622-3.3585938-7.49999997-7.5-7.49999997z" fill-opacity=".78" transform="matrix(.87461971 -.48480962 .48480962 .87461971 -3.193024 12.988325)"/><path d="m26.8048904 3.58287242c-4.1414063 0-7.5 3.35859375-7.5 7.49999998 0 4.1414063 3.3585937 7.5 7.5 7.5 4.1414062 0 7.5-3.3585937 7.5-7.5 0-4.14140623-3.3585938-7.49999998-7.5-7.49999998z" fill-opacity=".84" transform="matrix(.92718385 -.37460659 .37460659 .92718385 -2.199888 10.848301)"/><path d="m30.2708444 2.4320964c-4.1414063 0-7.5 3.35859375-7.5 7.5 0 4.1414063 3.3585937 7.5 7.5 7.5 4.1414062 0 7.5-3.3585937 7.5-7.5 0-4.14140625-3.3585938-7.5-7.5-7.5z" fill-opacity=".9" transform="matrix(.96592583 -.25881905 .25881905 .96592583 -1.539162 8.173099)"/><path d="m33.8555009 1.73398461c-4.1414063 0-7.5 3.35859375-7.5 7.5 0 4.14140629 3.3585937 7.49999999 7.5 7.49999999 4.1414062 0 7.5-3.3585937 7.5-7.49999999 0-4.14140625-3.3585938-7.5-7.5-7.5z" fill-opacity=".96" transform="matrix(.99254615 -.12186934 .12186934 .99254615 -.872986 4.194776)"/><path d="m37.5 1.5c-4.1414063 0-7.5 3.35859375-7.5 7.5 0 4.1414062 3.3585938 7.5 7.5 7.5s7.5-3.3585938 7.5-7.5c0-4.14140625-3.3585937-7.5-7.5-7.5z"/></g></g></g></svg>