<svg xmlns="http://www.w3.org/2000/svg" width="128" height="128" viewBox="0 0 128 128">
  <path fill="context-fill" fill-opacity="context-fill-opacity" d="M64,0 C28.6539355,0 0,28.6536774 0,64 C0,99.3463226 28.6539355,128 64,128 C99.3460645,128 128,99.3460645 128,64 C128,28.6539355 99.3463226,0 64,0 Z M97.5769481,30.4237419 C114.466946,47.3135484 115.641669,73.1285161 102.913009,91.2332903 L36.7664516,25.088 C54.8838185,12.3509677 80.6962404,13.5434839 97.5769481,30.4237419 Z M30.4238998,97.5762581 C13.5339017,80.6864516 12.3591787,54.8714839 25.0878392,36.7667097 L91.2343962,102.912 C73.1172874,115.649032 47.3046074,114.456774 30.4238998,97.5762581 Z"/>
</svg>
