<svg xmlns="http://www.w3.org/2000/svg" width="24" height="24" viewBox="0 0 24 24">
  <path fill="rgba(12, 12, 13, 0.8)" d="M12,0 C5.37096774,0 0,5.37096774 0,12 C0,18.6290323 5.37096774,24 12,24 C18.6290323,24 24,18.6290323 24,12 C24,5.37096774 18.6290323,0 12,0 Z M12,21 C7.0275,21 3,16.9725 3,12 C3,7.0275 7.0275,3 12,3 C16.9725,3 21,7.0275 21,12 C21,16.9725 16.9725,21 12,21 Z M15.75,8.28125 L15.75,15.71875 C15.75,16.1484375 15.4151163,16.5 15.005814,16.5 L13.494186,16.5 C13.0848837,16.5 12.75,16.1484375 12.75,15.71875 L12.75,8.28125 C12.75,7.8515625 13.0848837,7.5 13.494186,7.5 L15.005814,7.5 C15.4151163,7.5 15.75,7.8515625 15.75,8.28125 Z M11.25,8.28125 L11.25,15.71875 C11.25,16.1484375 10.9151163,16.5 10.505814,16.5 L8.99418605,16.5 C8.58488372,16.5 8.25,16.1484375 8.25,15.71875 L8.25,8.28125 C8.25,7.8515625 8.58488372,7.5 8.99418605,7.5 L10.505814,7.5 C10.9151163,7.5 11.25,7.8515625 11.25,8.28125 Z"/>
</svg>
