<?xml version="1.0" encoding="UTF-8"?>
<svg width="32px" height="32px" viewBox="0 0 32 32" version="1.1" xmlns="http://www.w3.org/2000/svg" xmlns:xlink="http://www.w3.org/1999/xlink">
    <!-- Generator: Sketch 52.5 (67469) - http://www.bohemiancoding.com/sketch -->
    <title>icon-32</title>
    <desc>Created with Sketch.</desc>
    <g id="icon-32" stroke="none" stroke-width="1" fill="none" fill-rule="evenodd">
        <g id="Default">
            <circle id="Background" fill="#FFFFFF" fill-rule="nonzero" cx="16" cy="16" r="16"></circle>
            <g id="Glow-2" stroke-width="1" fill-rule="evenodd" transform="translate(21.000000, 18.750000) scale(-1, -1) translate(-21.000000, -18.750000) translate(13.500000, 8.500000)" fill="#3D3D3D">
                <path d="M4.07730659,14.3941138 C2.69683784,14.3941138 1.57730659,15.513645 1.57730659,16.8941138 C1.57730659,18.2745825 2.69683784,19.3941138 4.07730659,19.3941138 C5.45777534,19.3941138 6.57730659,18.2745825 6.57730659,16.8941138 C6.57730659,15.513645 5.45777534,14.3941138 4.07730659,14.3941138 Z" id="Path" fill-opacity="0.06" transform="translate(4.077307, 16.894114) rotate(242.000000) translate(-4.077307, -16.894114) "></path>
                <path d="M3.58454999,13.280968 C2.20408124,13.280968 1.08454999,14.4004993 1.08454999,15.780968 C1.08454999,17.1614368 2.20408124,18.280968 3.58454999,18.280968 C4.96501874,18.280968 6.08454999,17.1614368 6.08454999,15.780968 C6.08454999,14.4004993 4.96501874,13.280968 3.58454999,13.280968 Z" id="Path" fill-opacity="0.12" transform="translate(3.584550, 15.780968) rotate(250.000000) translate(-3.584550, -15.780968) "></path>
                <path d="M3.23818483,12.1139489 C1.85771608,12.1139489 0.738184834,13.2334801 0.738184834,14.6139489 C0.738184834,15.9944176 1.85771608,17.1139489 3.23818483,17.1139489 C4.61865358,17.1139489 5.73818483,15.9944176 5.73818483,14.6139489 C5.73818483,13.2334801 4.61865358,12.1139489 3.23818483,12.1139489 Z" id="Path" fill-opacity="0.18" transform="translate(3.238185, 14.613949) rotate(257.000000) translate(-3.238185, -14.613949) "></path>
                <path d="M3.04389843,10.9122187 C1.66342968,10.9122187 0.543898427,12.03175 0.543898427,13.4122187 C0.543898427,14.7926875 1.66342968,15.9122187 3.04389843,15.9122187 C4.42436718,15.9122187 5.54389843,14.7926875 5.54389843,13.4122187 C5.54389843,12.03175 4.42436718,10.9122187 3.04389843,10.9122187 Z" id="Path" fill-opacity="0.24" transform="translate(3.043898, 13.412219) rotate(264.000000) translate(-3.043898, -13.412219) "></path>
                <path d="M3.00488095,9.69551001 C1.6244122,9.69551001 0.504880946,10.8150413 0.504880946,12.19551 C0.504880946,13.5759788 1.6244122,14.69551 3.00488095,14.69551 C4.3853497,14.69551 5.50488095,13.5759788 5.50488095,12.19551 C5.50488095,10.8150413 4.3853497,9.69551001 3.00488095,9.69551001 Z" id="Path" fill-opacity="0.3" transform="translate(3.004881, 12.195510) rotate(272.000000) translate(-3.004881, -12.195510) "></path>
                <path d="M3.12177306,8.483801 C1.74130431,8.483801 0.621773058,9.60333225 0.621773058,10.983801 C0.621773058,12.3642697 1.74130431,13.483801 3.12177306,13.483801 C4.50224181,13.483801 5.62177306,12.3642697 5.62177306,10.983801 C5.62177306,9.60333225 4.50224181,8.483801 3.12177306,8.483801 Z" id="Path" fill-opacity="0.36" transform="translate(3.121773, 10.983801) rotate(279.000000) translate(-3.121773, -10.983801) "></path>
                <path d="M3.3926554,7.29698793 C2.01218665,7.29698793 0.892655396,8.41651918 0.892655396,9.79698793 C0.892655396,11.1774567 2.01218665,12.2969879 3.3926554,12.2969879 C4.77312415,12.2969879 5.8926554,11.1774567 5.8926554,9.79698793 C5.8926554,8.41651918 4.77312415,7.29698793 3.3926554,7.29698793 Z" id="Path" fill-opacity="0.42" transform="translate(3.392655, 9.796988) rotate(287.000000) translate(-3.392655, -9.796988) "></path>
                <path d="M3.81308008,6.15455824 C2.43261133,6.15455824 1.31308008,7.27408949 1.31308008,8.65455824 C1.31308008,10.035027 2.43261133,11.1545582 3.81308008,11.1545582 C5.19354883,11.1545582 6.31308008,10.035027 6.31308008,8.65455824 C6.31308008,7.27408949 5.19354883,6.15455824 3.81308008,6.15455824 Z" id="Path" fill-opacity="0.48" transform="translate(3.813080, 8.654558) rotate(294.000000) translate(-3.813080, -8.654558) "></path>
                <path d="M4.37614375,5.0752706 C2.995675,5.0752706 1.87614375,6.19480185 1.87614375,7.5752706 C1.87614375,8.95573935 2.995675,10.0752706 4.37614375,10.0752706 C5.7566125,10.0752706 6.87614375,8.95573935 6.87614375,7.5752706 C6.87614375,6.19480185 5.7566125,5.0752706 4.37614375,5.0752706 Z" id="Path" fill-opacity="0.54" transform="translate(4.376144, 7.575271) rotate(301.000000) translate(-4.376144, -7.575271) "></path>
                <path d="M5.07260092,4.07684688 C3.69213217,4.07684688 2.57260092,5.19637813 2.57260092,6.57684688 C2.57260092,7.95731563 3.69213217,9.07684688 5.07260092,9.07684688 C6.45306967,9.07684688 7.57260092,7.95731563 7.57260092,6.57684688 C7.57260092,5.19637813 6.45306967,4.07684688 5.07260092,4.07684688 Z" id="Path" fill-opacity="0.6" transform="translate(5.072601, 6.576847) rotate(309.000000) translate(-5.072601, -6.576847) "></path>
                <path d="M5.89101577,3.17568117 C4.51054702,3.17568117 3.39101577,4.29521242 3.39101577,5.67568117 C3.39101577,7.05614992 4.51054702,8.17568117 5.89101577,8.17568117 C7.27148452,8.17568117 8.39101577,7.05614992 8.39101577,5.67568117 C8.39101577,4.29521242 7.27148452,3.17568117 5.89101577,3.17568117 Z" id="Path" fill-opacity="0.66" transform="translate(5.891016, 5.675681) rotate(316.000000) translate(-5.891016, -5.675681) "></path>
                <path d="M6.81794996,2.38657059 C5.43748121,2.38657059 4.31794996,3.50610184 4.31794996,4.88657059 C4.31794996,6.26703934 5.43748121,7.38657059 6.81794996,7.38657059 C8.19841871,7.38657059 9.31794996,6.26703934 9.31794996,4.88657059 C9.31794996,3.50610184 8.19841871,2.38657059 6.81794996,2.38657059 Z" id="Path" fill-opacity="0.72" transform="translate(6.817950, 4.886571) rotate(323.000000) translate(-6.817950, -4.886571) "></path>
                <path d="M7.83818326,1.72247231 C6.45771451,1.72247231 5.33818326,2.84200356 5.33818326,4.22247231 C5.33818326,5.60294106 6.45771451,6.72247231 7.83818326,6.72247231 C9.21865201,6.72247231 10.3381833,5.60294106 10.3381833,4.22247231 C10.3381833,2.84200356 9.21865201,1.72247231 7.83818326,1.72247231 Z" id="Path" fill-opacity="0.78" transform="translate(7.838183, 4.222472) rotate(331.000000) translate(-7.838183, -4.222472) "></path>
                <path d="M8.93496345,1.19429081 C7.5544947,1.19429081 6.43496345,2.31382206 6.43496345,3.69429081 C6.43496345,5.07475956 7.5544947,6.19429081 8.93496345,6.19429081 C10.3154322,6.19429081 11.4349635,5.07475956 11.4349635,3.69429081 C11.4349635,2.31382206 10.3154322,1.19429081 8.93496345,1.19429081 Z" id="Path" fill-opacity="0.84" transform="translate(8.934963, 3.694291) rotate(338.000000) translate(-8.934963, -3.694291) "></path>
                <path d="M10.0902815,0.810698801 C8.7098127,0.810698801 7.59028145,1.93023005 7.59028145,3.3106988 C7.59028145,4.69116755 8.7098127,5.8106988 10.0902815,5.8106988 C11.4707502,5.8106988 12.5902815,4.69116755 12.5902815,3.3106988 C12.5902815,1.93023005 11.4707502,0.810698801 10.0902815,0.810698801 Z" id="Path" fill-opacity="0.9" transform="translate(10.090281, 3.310699) rotate(345.000000) translate(-10.090281, -3.310699) "></path>
                <path d="M11.285167,0.577994869 C9.90469821,0.577994869 8.78516696,1.69752612 8.78516696,3.07799487 C8.78516696,4.45846362 9.90469821,5.57799487 11.285167,5.57799487 C12.6656357,5.57799487 13.785167,4.45846362 13.785167,3.07799487 C13.785167,1.69752612 12.6656357,0.577994869 11.285167,0.577994869 Z" id="Path" fill-opacity="0.96" transform="translate(11.285167, 3.077995) rotate(353.000000) translate(-11.285167, -3.077995) "></path>
                <path d="M12.5,0.5 C11.1195312,0.5 10,1.61953125 10,3 C10,4.38046875 11.1195313,5.5 12.5,5.5 C13.8804687,5.5 15,4.38046875 15,3 C15,1.61953125 13.8804688,0.5 12.5,0.5 Z" id="Path"></path>
            </g>
            <g id="Glow-1" stroke-width="1" fill-rule="evenodd" transform="translate(3.500000, 3.500000)" fill="#3D3D3D">
                <path d="M4.07730659,14.3941138 C2.69683784,14.3941138 1.57730659,15.513645 1.57730659,16.8941138 C1.57730659,18.2745825 2.69683784,19.3941138 4.07730659,19.3941138 C5.45777534,19.3941138 6.57730659,18.2745825 6.57730659,16.8941138 C6.57730659,15.513645 5.45777534,14.3941138 4.07730659,14.3941138 Z" id="Path" fill-opacity="0.06" transform="translate(4.077307, 16.894114) rotate(242.000000) translate(-4.077307, -16.894114) "></path>
                <path d="M3.58454999,13.280968 C2.20408124,13.280968 1.08454999,14.4004993 1.08454999,15.780968 C1.08454999,17.1614368 2.20408124,18.280968 3.58454999,18.280968 C4.96501874,18.280968 6.08454999,17.1614368 6.08454999,15.780968 C6.08454999,14.4004993 4.96501874,13.280968 3.58454999,13.280968 Z" id="Path" fill-opacity="0.12" transform="translate(3.584550, 15.780968) rotate(250.000000) translate(-3.584550, -15.780968) "></path>
                <path d="M3.23818483,12.1139489 C1.85771608,12.1139489 0.738184834,13.2334801 0.738184834,14.6139489 C0.738184834,15.9944176 1.85771608,17.1139489 3.23818483,17.1139489 C4.61865358,17.1139489 5.73818483,15.9944176 5.73818483,14.6139489 C5.73818483,13.2334801 4.61865358,12.1139489 3.23818483,12.1139489 Z" id="Path" fill-opacity="0.18" transform="translate(3.238185, 14.613949) rotate(257.000000) translate(-3.238185, -14.613949) "></path>
                <path d="M3.04389843,10.9122187 C1.66342968,10.9122187 0.543898427,12.03175 0.543898427,13.4122187 C0.543898427,14.7926875 1.66342968,15.9122187 3.04389843,15.9122187 C4.42436718,15.9122187 5.54389843,14.7926875 5.54389843,13.4122187 C5.54389843,12.03175 4.42436718,10.9122187 3.04389843,10.9122187 Z" id="Path" fill-opacity="0.24" transform="translate(3.043898, 13.412219) rotate(264.000000) translate(-3.043898, -13.412219) "></path>
                <path d="M3.00488095,9.69551001 C1.6244122,9.69551001 0.504880946,10.8150413 0.504880946,12.19551 C0.504880946,13.5759788 1.6244122,14.69551 3.00488095,14.69551 C4.3853497,14.69551 5.50488095,13.5759788 5.50488095,12.19551 C5.50488095,10.8150413 4.3853497,9.69551001 3.00488095,9.69551001 Z" id="Path" fill-opacity="0.3" transform="translate(3.004881, 12.195510) rotate(272.000000) translate(-3.004881, -12.195510) "></path>
                <path d="M3.12177306,8.483801 C1.74130431,8.483801 0.621773058,9.60333225 0.621773058,10.983801 C0.621773058,12.3642697 1.74130431,13.483801 3.12177306,13.483801 C4.50224181,13.483801 5.62177306,12.3642697 5.62177306,10.983801 C5.62177306,9.60333225 4.50224181,8.483801 3.12177306,8.483801 Z" id="Path" fill-opacity="0.36" transform="translate(3.121773, 10.983801) rotate(279.000000) translate(-3.121773, -10.983801) "></path>
                <path d="M3.3926554,7.29698793 C2.01218665,7.29698793 0.892655396,8.41651918 0.892655396,9.79698793 C0.892655396,11.1774567 2.01218665,12.2969879 3.3926554,12.2969879 C4.77312415,12.2969879 5.8926554,11.1774567 5.8926554,9.79698793 C5.8926554,8.41651918 4.77312415,7.29698793 3.3926554,7.29698793 Z" id="Path" fill-opacity="0.42" transform="translate(3.392655, 9.796988) rotate(287.000000) translate(-3.392655, -9.796988) "></path>
                <path d="M3.81308008,6.15455824 C2.43261133,6.15455824 1.31308008,7.27408949 1.31308008,8.65455824 C1.31308008,10.035027 2.43261133,11.1545582 3.81308008,11.1545582 C5.19354883,11.1545582 6.31308008,10.035027 6.31308008,8.65455824 C6.31308008,7.27408949 5.19354883,6.15455824 3.81308008,6.15455824 Z" id="Path" fill-opacity="0.48" transform="translate(3.813080, 8.654558) rotate(294.000000) translate(-3.813080, -8.654558) "></path>
                <path d="M4.37614375,5.0752706 C2.995675,5.0752706 1.87614375,6.19480185 1.87614375,7.5752706 C1.87614375,8.95573935 2.995675,10.0752706 4.37614375,10.0752706 C5.7566125,10.0752706 6.87614375,8.95573935 6.87614375,7.5752706 C6.87614375,6.19480185 5.7566125,5.0752706 4.37614375,5.0752706 Z" id="Path" fill-opacity="0.54" transform="translate(4.376144, 7.575271) rotate(301.000000) translate(-4.376144, -7.575271) "></path>
                <path d="M5.07260092,4.07684688 C3.69213217,4.07684688 2.57260092,5.19637813 2.57260092,6.57684688 C2.57260092,7.95731563 3.69213217,9.07684688 5.07260092,9.07684688 C6.45306967,9.07684688 7.57260092,7.95731563 7.57260092,6.57684688 C7.57260092,5.19637813 6.45306967,4.07684688 5.07260092,4.07684688 Z" id="Path" fill-opacity="0.6" transform="translate(5.072601, 6.576847) rotate(309.000000) translate(-5.072601, -6.576847) "></path>
                <path d="M5.89101577,3.17568117 C4.51054702,3.17568117 3.39101577,4.29521242 3.39101577,5.67568117 C3.39101577,7.05614992 4.51054702,8.17568117 5.89101577,8.17568117 C7.27148452,8.17568117 8.39101577,7.05614992 8.39101577,5.67568117 C8.39101577,4.29521242 7.27148452,3.17568117 5.89101577,3.17568117 Z" id="Path" fill-opacity="0.66" transform="translate(5.891016, 5.675681) rotate(316.000000) translate(-5.891016, -5.675681) "></path>
                <path d="M6.81794996,2.38657059 C5.43748121,2.38657059 4.31794996,3.50610184 4.31794996,4.88657059 C4.31794996,6.26703934 5.43748121,7.38657059 6.81794996,7.38657059 C8.19841871,7.38657059 9.31794996,6.26703934 9.31794996,4.88657059 C9.31794996,3.50610184 8.19841871,2.38657059 6.81794996,2.38657059 Z" id="Path" fill-opacity="0.72" transform="translate(6.817950, 4.886571) rotate(323.000000) translate(-6.817950, -4.886571) "></path>
                <path d="M7.83818326,1.72247231 C6.45771451,1.72247231 5.33818326,2.84200356 5.33818326,4.22247231 C5.33818326,5.60294106 6.45771451,6.72247231 7.83818326,6.72247231 C9.21865201,6.72247231 10.3381833,5.60294106 10.3381833,4.22247231 C10.3381833,2.84200356 9.21865201,1.72247231 7.83818326,1.72247231 Z" id="Path" fill-opacity="0.78" transform="translate(7.838183, 4.222472) rotate(331.000000) translate(-7.838183, -4.222472) "></path>
                <path d="M8.93496345,1.19429081 C7.5544947,1.19429081 6.43496345,2.31382206 6.43496345,3.69429081 C6.43496345,5.07475956 7.5544947,6.19429081 8.93496345,6.19429081 C10.3154322,6.19429081 11.4349635,5.07475956 11.4349635,3.69429081 C11.4349635,2.31382206 10.3154322,1.19429081 8.93496345,1.19429081 Z" id="Path" fill-opacity="0.84" transform="translate(8.934963, 3.694291) rotate(338.000000) translate(-8.934963, -3.694291) "></path>
                <path d="M10.0902815,0.810698801 C8.7098127,0.810698801 7.59028145,1.93023005 7.59028145,3.3106988 C7.59028145,4.69116755 8.7098127,5.8106988 10.0902815,5.8106988 C11.4707502,5.8106988 12.5902815,4.69116755 12.5902815,3.3106988 C12.5902815,1.93023005 11.4707502,0.810698801 10.0902815,0.810698801 Z" id="Path" fill-opacity="0.9" transform="translate(10.090281, 3.310699) rotate(345.000000) translate(-10.090281, -3.310699) "></path>
                <path d="M11.285167,0.577994869 C9.90469821,0.577994869 8.78516696,1.69752612 8.78516696,3.07799487 C8.78516696,4.45846362 9.90469821,5.57799487 11.285167,5.57799487 C12.6656357,5.57799487 13.785167,4.45846362 13.785167,3.07799487 C13.785167,1.69752612 12.6656357,0.577994869 11.285167,0.577994869 Z" id="Path" fill-opacity="0.96" transform="translate(11.285167, 3.077995) rotate(353.000000) translate(-11.285167, -3.077995) "></path>
                <path d="M12.5,0.5 C11.1195312,0.5 10,1.61953125 10,3 C10,4.38046875 11.1195313,5.5 12.5,5.5 C13.8804687,5.5 15,4.38046875 15,3 C15,1.61953125 13.8804688,0.5 12.5,0.5 Z" id="Path"></path>
            </g>
        </g>
    </g>
</svg>