<?xml version="1.0" encoding="UTF-8"?>
<svg width="96px" height="96px" viewBox="0 0 96 96" version="1.1" xmlns="http://www.w3.org/2000/svg" xmlns:xlink="http://www.w3.org/1999/xlink">
    <!-- Generator: Sketch 52.5 (67469) - http://www.bohemiancoding.com/sketch -->
    <title>icon-96</title>
    <desc>Created with Sketch.</desc>
    <g id="icon-96" stroke="none" stroke-width="1" fill="none" fill-rule="evenodd">
        <g id="Default">
            <circle id="Background" fill="#FFFFFF" fill-rule="nonzero" cx="48" cy="48" r="48"></circle>
            <g id="Glow-2" stroke-width="1" fill-rule="evenodd" transform="translate(63.000000, 56.250000) scale(-1, -1) translate(-63.000000, -56.250000) translate(40.500000, 25.500000)" fill="#3D3D3D">
                <path d="M12.2319198,43.1823413 C8.09051352,43.1823413 4.73191977,46.540935 4.73191977,50.6823413 C4.73191977,54.8237475 8.09051352,58.1823413 12.2319198,58.1823413 C16.373326,58.1823413 19.7319198,54.8237475 19.7319198,50.6823413 C19.7319198,46.540935 16.373326,43.1823413 12.2319198,43.1823413 Z" id="Path" fill-opacity="0.06" transform="translate(12.231920, 50.682341) rotate(242.000000) translate(-12.231920, -50.682341) "></path>
                <path d="M10.75365,39.8429041 C6.61224372,39.8429041 3.25364997,43.2014978 3.25364997,47.3429041 C3.25364997,51.4843103 6.61224372,54.8429041 10.75365,54.8429041 C14.8950562,54.8429041 18.25365,51.4843103 18.25365,47.3429041 C18.25365,43.2014978 14.8950562,39.8429041 10.75365,39.8429041 Z" id="Path" fill-opacity="0.12" transform="translate(10.753650, 47.342904) rotate(250.000000) translate(-10.753650, -47.342904) "></path>
                <path d="M9.7145545,36.3418466 C5.57314825,36.3418466 2.2145545,39.7004404 2.2145545,43.8418466 C2.2145545,47.9832529 5.57314825,51.3418466 9.7145545,51.3418466 C13.8559608,51.3418466 17.2145545,47.9832529 17.2145545,43.8418466 C17.2145545,39.7004404 13.8559608,36.3418466 9.7145545,36.3418466 Z" id="Path" fill-opacity="0.18" transform="translate(9.714555, 43.841847) rotate(257.000000) translate(-9.714555, -43.841847) "></path>
                <path d="M9.13169528,32.7366562 C4.99028903,32.7366562 1.63169528,36.09525 1.63169528,40.2366562 C1.63169528,44.3780625 4.99028903,47.7366562 9.13169528,47.7366562 C13.2731015,47.7366562 16.6316953,44.3780625 16.6316953,40.2366562 C16.6316953,36.09525 13.2731015,32.7366562 9.13169528,32.7366562 Z" id="Path" fill-opacity="0.24" transform="translate(9.131695, 40.236656) rotate(264.000000) translate(-9.131695, -40.236656) "></path>
                <path d="M9.01464284,29.08653 C4.87323659,29.08653 1.51464284,32.4451238 1.51464284,36.58653 C1.51464284,40.7279363 4.87323659,44.08653 9.01464284,44.08653 C13.1560491,44.08653 16.5146428,40.7279363 16.5146428,36.58653 C16.5146428,32.4451238 13.1560491,29.08653 9.01464284,29.08653 Z" id="Path" fill-opacity="0.3" transform="translate(9.014643, 36.586530) rotate(272.000000) translate(-9.014643, -36.586530) "></path>
                <path d="M9.36531917,25.451403 C5.22391292,25.451403 1.86531917,28.8099967 1.86531917,32.951403 C1.86531917,37.0928092 5.22391292,40.451403 9.36531917,40.451403 C13.5067254,40.451403 16.8653192,37.0928092 16.8653192,32.951403 C16.8653192,28.8099967 13.5067254,25.451403 9.36531917,25.451403 Z" id="Path" fill-opacity="0.36" transform="translate(9.365319, 32.951403) rotate(279.000000) translate(-9.365319, -32.951403) "></path>
                <path d="M10.1779662,21.8909638 C6.03655994,21.8909638 2.67796619,25.2495575 2.67796619,29.3909638 C2.67796619,33.53237 6.03655994,36.8909638 10.1779662,36.8909638 C14.3193724,36.8909638 17.6779662,33.53237 17.6779662,29.3909638 C17.6779662,25.2495575 14.3193724,21.8909638 10.1779662,21.8909638 Z" id="Path" fill-opacity="0.42" transform="translate(10.177966, 29.390964) rotate(287.000000) translate(-10.177966, -29.390964) "></path>
                <path d="M11.4392402,18.4636747 C7.29783399,18.4636747 3.93924024,21.8222685 3.93924024,25.9636747 C3.93924024,30.105081 7.29783399,33.4636747 11.4392402,33.4636747 C15.5806465,33.4636747 18.9392402,30.105081 18.9392402,25.9636747 C18.9392402,21.8222685 15.5806465,18.4636747 11.4392402,18.4636747 Z" id="Path" fill-opacity="0.48" transform="translate(11.439240, 25.963675) rotate(294.000000) translate(-11.439240, -25.963675) "></path>
                <path d="M13.1284313,15.2258118 C8.987025,15.2258118 5.62843125,18.5844056 5.62843125,22.7258118 C5.62843125,26.8672181 8.987025,30.2258118 13.1284313,30.2258118 C17.2698375,30.2258118 20.6284313,26.8672181 20.6284313,22.7258118 C20.6284313,18.5844056 17.2698375,15.2258118 13.1284313,15.2258118 Z" id="Path" fill-opacity="0.54" transform="translate(13.128431, 22.725812) rotate(301.000000) translate(-13.128431, -22.725812) "></path>
                <path d="M15.2178027,12.2305406 C11.0763965,12.2305406 7.71780275,15.5891344 7.71780275,19.7305406 C7.71780275,23.8719469 11.0763965,27.2305406 15.2178027,27.2305406 C19.359209,27.2305406 22.7178027,23.8719469 22.7178027,19.7305406 C22.7178027,15.5891344 19.359209,12.2305406 15.2178027,12.2305406 Z" id="Path" fill-opacity="0.6" transform="translate(15.217803, 19.730541) rotate(309.000000) translate(-15.217803, -19.730541) "></path>
                <path d="M17.6730473,9.52704352 C13.5316411,9.52704352 10.1730473,12.8856373 10.1730473,17.0270435 C10.1730473,21.1684498 13.5316411,24.5270435 17.6730473,24.5270435 C21.8144536,24.5270435 25.1730473,21.1684498 25.1730473,17.0270435 C25.1730473,12.8856373 21.8144536,9.52704352 17.6730473,9.52704352 Z" id="Path" fill-opacity="0.66" transform="translate(17.673047, 17.027044) rotate(316.000000) translate(-17.673047, -17.027044) "></path>
                <path d="M20.4538499,7.15971178 C16.3124436,7.15971178 12.9538499,10.5183055 12.9538499,14.6597118 C12.9538499,18.801118 16.3124436,22.1597118 20.4538499,22.1597118 C24.5952561,22.1597118 27.9538499,18.801118 27.9538499,14.6597118 C27.9538499,10.5183055 24.5952561,7.15971178 20.4538499,7.15971178 Z" id="Path" fill-opacity="0.72" transform="translate(20.453850, 14.659712) rotate(323.000000) translate(-20.453850, -14.659712) "></path>
                <path d="M23.5145498,5.16741693 C19.3731435,5.16741693 16.0145498,8.52601068 16.0145498,12.6674169 C16.0145498,16.8088232 19.3731435,20.1674169 23.5145498,20.1674169 C27.655956,20.1674169 31.0145498,16.8088232 31.0145498,12.6674169 C31.0145498,8.52601068 27.655956,5.16741693 23.5145498,5.16741693 Z" id="Path" fill-opacity="0.78" transform="translate(23.514550, 12.667417) rotate(331.000000) translate(-23.514550, -12.667417) "></path>
                <path d="M26.8048904,3.58287242 C22.6634841,3.58287242 19.3048904,6.94146617 19.3048904,11.0828724 C19.3048904,15.2242787 22.6634841,18.5828724 26.8048904,18.5828724 C30.9462966,18.5828724 34.3048904,15.2242787 34.3048904,11.0828724 C34.3048904,6.94146617 30.9462966,3.58287242 26.8048904,3.58287242 Z" id="Path" fill-opacity="0.84" transform="translate(26.804890, 11.082872) rotate(338.000000) translate(-26.804890, -11.082872) "></path>
                <path d="M30.2708444,2.4320964 C26.1294381,2.4320964 22.7708444,5.79069015 22.7708444,9.9320964 C22.7708444,14.0735027 26.1294381,17.4320964 30.2708444,17.4320964 C34.4122506,17.4320964 37.7708444,14.0735027 37.7708444,9.9320964 C37.7708444,5.79069015 34.4122506,2.4320964 30.2708444,2.4320964 Z" id="Path" fill-opacity="0.9" transform="translate(30.270844, 9.932096) rotate(345.000000) translate(-30.270844, -9.932096) "></path>
                <path d="M33.8555009,1.73398461 C29.7140946,1.73398461 26.3555009,5.09257836 26.3555009,9.23398461 C26.3555009,13.3753909 29.7140946,16.7339846 33.8555009,16.7339846 C37.9969071,16.7339846 41.3555009,13.3753909 41.3555009,9.23398461 C41.3555009,5.09257836 37.9969071,1.73398461 33.8555009,1.73398461 Z" id="Path" fill-opacity="0.96" transform="translate(33.855501, 9.233985) rotate(353.000000) translate(-33.855501, -9.233985) "></path>
                <path d="M37.5,1.5 C33.3585937,1.5 30,4.85859375 30,9 C30,13.1414062 33.3585938,16.5 37.5,16.5 C41.6414062,16.5 45,13.1414062 45,9 C45,4.85859375 41.6414063,1.5 37.5,1.5 Z" id="Path"></path>
            </g>
            <g id="Glow-1" stroke-width="1" fill-rule="evenodd" transform="translate(10.500000, 10.500000)" fill="#3D3D3D">
                <path d="M12.2319198,43.1823413 C8.09051352,43.1823413 4.73191977,46.540935 4.73191977,50.6823413 C4.73191977,54.8237475 8.09051352,58.1823413 12.2319198,58.1823413 C16.373326,58.1823413 19.7319198,54.8237475 19.7319198,50.6823413 C19.7319198,46.540935 16.373326,43.1823413 12.2319198,43.1823413 Z" id="Path" fill-opacity="0.06" transform="translate(12.231920, 50.682341) rotate(242.000000) translate(-12.231920, -50.682341) "></path>
                <path d="M10.75365,39.8429041 C6.61224372,39.8429041 3.25364997,43.2014978 3.25364997,47.3429041 C3.25364997,51.4843103 6.61224372,54.8429041 10.75365,54.8429041 C14.8950562,54.8429041 18.25365,51.4843103 18.25365,47.3429041 C18.25365,43.2014978 14.8950562,39.8429041 10.75365,39.8429041 Z" id="Path" fill-opacity="0.12" transform="translate(10.753650, 47.342904) rotate(250.000000) translate(-10.753650, -47.342904) "></path>
                <path d="M9.7145545,36.3418466 C5.57314825,36.3418466 2.2145545,39.7004404 2.2145545,43.8418466 C2.2145545,47.9832529 5.57314825,51.3418466 9.7145545,51.3418466 C13.8559608,51.3418466 17.2145545,47.9832529 17.2145545,43.8418466 C17.2145545,39.7004404 13.8559608,36.3418466 9.7145545,36.3418466 Z" id="Path" fill-opacity="0.18" transform="translate(9.714555, 43.841847) rotate(257.000000) translate(-9.714555, -43.841847) "></path>
                <path d="M9.13169528,32.7366562 C4.99028903,32.7366562 1.63169528,36.09525 1.63169528,40.2366562 C1.63169528,44.3780625 4.99028903,47.7366562 9.13169528,47.7366562 C13.2731015,47.7366562 16.6316953,44.3780625 16.6316953,40.2366562 C16.6316953,36.09525 13.2731015,32.7366562 9.13169528,32.7366562 Z" id="Path" fill-opacity="0.24" transform="translate(9.131695, 40.236656) rotate(264.000000) translate(-9.131695, -40.236656) "></path>
                <path d="M9.01464284,29.08653 C4.87323659,29.08653 1.51464284,32.4451238 1.51464284,36.58653 C1.51464284,40.7279363 4.87323659,44.08653 9.01464284,44.08653 C13.1560491,44.08653 16.5146428,40.7279363 16.5146428,36.58653 C16.5146428,32.4451238 13.1560491,29.08653 9.01464284,29.08653 Z" id="Path" fill-opacity="0.3" transform="translate(9.014643, 36.586530) rotate(272.000000) translate(-9.014643, -36.586530) "></path>
                <path d="M9.36531917,25.451403 C5.22391292,25.451403 1.86531917,28.8099967 1.86531917,32.951403 C1.86531917,37.0928092 5.22391292,40.451403 9.36531917,40.451403 C13.5067254,40.451403 16.8653192,37.0928092 16.8653192,32.951403 C16.8653192,28.8099967 13.5067254,25.451403 9.36531917,25.451403 Z" id="Path" fill-opacity="0.36" transform="translate(9.365319, 32.951403) rotate(279.000000) translate(-9.365319, -32.951403) "></path>
                <path d="M10.1779662,21.8909638 C6.03655994,21.8909638 2.67796619,25.2495575 2.67796619,29.3909638 C2.67796619,33.53237 6.03655994,36.8909638 10.1779662,36.8909638 C14.3193724,36.8909638 17.6779662,33.53237 17.6779662,29.3909638 C17.6779662,25.2495575 14.3193724,21.8909638 10.1779662,21.8909638 Z" id="Path" fill-opacity="0.42" transform="translate(10.177966, 29.390964) rotate(287.000000) translate(-10.177966, -29.390964) "></path>
                <path d="M11.4392402,18.4636747 C7.29783399,18.4636747 3.93924024,21.8222685 3.93924024,25.9636747 C3.93924024,30.105081 7.29783399,33.4636747 11.4392402,33.4636747 C15.5806465,33.4636747 18.9392402,30.105081 18.9392402,25.9636747 C18.9392402,21.8222685 15.5806465,18.4636747 11.4392402,18.4636747 Z" id="Path" fill-opacity="0.48" transform="translate(11.439240, 25.963675) rotate(294.000000) translate(-11.439240, -25.963675) "></path>
                <path d="M13.1284313,15.2258118 C8.987025,15.2258118 5.62843125,18.5844056 5.62843125,22.7258118 C5.62843125,26.8672181 8.987025,30.2258118 13.1284313,30.2258118 C17.2698375,30.2258118 20.6284313,26.8672181 20.6284313,22.7258118 C20.6284313,18.5844056 17.2698375,15.2258118 13.1284313,15.2258118 Z" id="Path" fill-opacity="0.54" transform="translate(13.128431, 22.725812) rotate(301.000000) translate(-13.128431, -22.725812) "></path>
                <path d="M15.2178027,12.2305406 C11.0763965,12.2305406 7.71780275,15.5891344 7.71780275,19.7305406 C7.71780275,23.8719469 11.0763965,27.2305406 15.2178027,27.2305406 C19.359209,27.2305406 22.7178027,23.8719469 22.7178027,19.7305406 C22.7178027,15.5891344 19.359209,12.2305406 15.2178027,12.2305406 Z" id="Path" fill-opacity="0.6" transform="translate(15.217803, 19.730541) rotate(309.000000) translate(-15.217803, -19.730541) "></path>
                <path d="M17.6730473,9.52704352 C13.5316411,9.52704352 10.1730473,12.8856373 10.1730473,17.0270435 C10.1730473,21.1684498 13.5316411,24.5270435 17.6730473,24.5270435 C21.8144536,24.5270435 25.1730473,21.1684498 25.1730473,17.0270435 C25.1730473,12.8856373 21.8144536,9.52704352 17.6730473,9.52704352 Z" id="Path" fill-opacity="0.66" transform="translate(17.673047, 17.027044) rotate(316.000000) translate(-17.673047, -17.027044) "></path>
                <path d="M20.4538499,7.15971178 C16.3124436,7.15971178 12.9538499,10.5183055 12.9538499,14.6597118 C12.9538499,18.801118 16.3124436,22.1597118 20.4538499,22.1597118 C24.5952561,22.1597118 27.9538499,18.801118 27.9538499,14.6597118 C27.9538499,10.5183055 24.5952561,7.15971178 20.4538499,7.15971178 Z" id="Path" fill-opacity="0.72" transform="translate(20.453850, 14.659712) rotate(323.000000) translate(-20.453850, -14.659712) "></path>
                <path d="M23.5145498,5.16741693 C19.3731435,5.16741693 16.0145498,8.52601068 16.0145498,12.6674169 C16.0145498,16.8088232 19.3731435,20.1674169 23.5145498,20.1674169 C27.655956,20.1674169 31.0145498,16.8088232 31.0145498,12.6674169 C31.0145498,8.52601068 27.655956,5.16741693 23.5145498,5.16741693 Z" id="Path" fill-opacity="0.78" transform="translate(23.514550, 12.667417) rotate(331.000000) translate(-23.514550, -12.667417) "></path>
                <path d="M26.8048904,3.58287242 C22.6634841,3.58287242 19.3048904,6.94146617 19.3048904,11.0828724 C19.3048904,15.2242787 22.6634841,18.5828724 26.8048904,18.5828724 C30.9462966,18.5828724 34.3048904,15.2242787 34.3048904,11.0828724 C34.3048904,6.94146617 30.9462966,3.58287242 26.8048904,3.58287242 Z" id="Path" fill-opacity="0.84" transform="translate(26.804890, 11.082872) rotate(338.000000) translate(-26.804890, -11.082872) "></path>
                <path d="M30.2708444,2.4320964 C26.1294381,2.4320964 22.7708444,5.79069015 22.7708444,9.9320964 C22.7708444,14.0735027 26.1294381,17.4320964 30.2708444,17.4320964 C34.4122506,17.4320964 37.7708444,14.0735027 37.7708444,9.9320964 C37.7708444,5.79069015 34.4122506,2.4320964 30.2708444,2.4320964 Z" id="Path" fill-opacity="0.9" transform="translate(30.270844, 9.932096) rotate(345.000000) translate(-30.270844, -9.932096) "></path>
                <path d="M33.8555009,1.73398461 C29.7140946,1.73398461 26.3555009,5.09257836 26.3555009,9.23398461 C26.3555009,13.3753909 29.7140946,16.7339846 33.8555009,16.7339846 C37.9969071,16.7339846 41.3555009,13.3753909 41.3555009,9.23398461 C41.3555009,5.09257836 37.9969071,1.73398461 33.8555009,1.73398461 Z" id="Path" fill-opacity="0.96" transform="translate(33.855501, 9.233985) rotate(353.000000) translate(-33.855501, -9.233985) "></path>
                <path d="M37.5,1.5 C33.3585937,1.5 30,4.85859375 30,9 C30,13.1414062 33.3585938,16.5 37.5,16.5 C41.6414062,16.5 45,13.1414062 45,9 C45,4.85859375 41.6414063,1.5 37.5,1.5 Z" id="Path"></path>
            </g>
        </g>
    </g>
</svg>