<svg xmlns="http://www.w3.org/2000/svg" width="24" height="24" viewBox="0 0 24 24">
  <path fill="#595A5C" d="M12,0 C5.3726129,0 0,5.37256452 0,12 C0,18.6274355 5.3726129,24 12,24 C18.6273871,24 24,18.6273871 24,12 C24,5.3726129 18.6274355,0 12,0 Z M18.2956778,5.70445161 C21.4625524,8.87129032 21.682813,13.7115968 19.2961891,17.1062419 L6.89370968,4.704 C10.290716,2.31580645 15.1305451,2.53940323 18.2956778,5.70445161 Z M5.70448121,18.2955484 C2.53760656,15.1287097 2.317346,10.2884032 4.70396985,6.89375806 L17.1064493,19.296 C13.7094914,21.6841935 8.86961389,21.4606452 5.70448121,18.2955484 Z"/>
</svg>
