<?xml version="1.0" encoding="UTF-8"?>
<svg width="16px" height="16px" viewBox="0 0 16 16" version="1.1" xmlns="http://www.w3.org/2000/svg" xmlns:xlink="http://www.w3.org/1999/xlink">
    <!-- Generator: Sketch 52.5 (67469) - http://www.bohemiancoding.com/sketch -->
    <title>icon-16</title>
    <desc>Created with Sketch.</desc>
    <g id="icon-16" stroke="none" stroke-width="1" fill="none" fill-rule="evenodd">
        <g id="Default">
            <circle id="Background" fill="#FFFFFF" fill-rule="nonzero" cx="8" cy="8" r="8"></circle>
            <g id="Glow-2" stroke-width="1" fill-rule="evenodd" transform="translate(10.500000, 9.375000) scale(-1, -1) translate(-10.500000, -9.375000) translate(6.750000, 4.250000)" fill="#3D3D3D">
                <path d="M2.03865329,7.19705688 C1.34841892,7.19705688 0.788653295,7.7568225 0.788653295,8.44705688 C0.788653295,9.13729125 1.34841892,9.69705688 2.03865329,9.69705688 C2.72888767,9.69705688 3.28865329,9.13729125 3.28865329,8.44705688 C3.28865329,7.7568225 2.72888767,7.19705688 2.03865329,7.19705688 Z" id="Path" fill-opacity="0.06" transform="translate(2.038653, 8.447057) rotate(242.000000) translate(-2.038653, -8.447057) "></path>
                <path d="M1.792275,6.64048401 C1.10204062,6.64048401 0.542274995,7.20024963 0.542274995,7.89048401 C0.542274995,8.58071838 1.10204062,9.14048401 1.792275,9.14048401 C2.48250937,9.14048401 3.042275,8.58071838 3.042275,7.89048401 C3.042275,7.20024963 2.48250937,6.64048401 1.792275,6.64048401 Z" id="Path" fill-opacity="0.12" transform="translate(1.792275, 7.890484) rotate(250.000000) translate(-1.792275, -7.890484) "></path>
                <path d="M1.61909242,6.05697444 C0.928858042,6.05697444 0.369092417,6.61674006 0.369092417,7.30697444 C0.369092417,7.99720881 0.928858042,8.55697444 1.61909242,8.55697444 C2.30932679,8.55697444 2.86909242,7.99720881 2.86909242,7.30697444 C2.86909242,6.61674006 2.30932679,6.05697444 1.61909242,6.05697444 Z" id="Path" fill-opacity="0.18" transform="translate(1.619092, 7.306974) rotate(257.000000) translate(-1.619092, -7.306974) "></path>
                <path d="M1.52194921,5.45610937 C0.831714838,5.45610937 0.271949213,6.015875 0.271949213,6.70610937 C0.271949213,7.39634375 0.831714838,7.95610937 1.52194921,7.95610937 C2.21218359,7.95610937 2.77194921,7.39634375 2.77194921,6.70610937 C2.77194921,6.015875 2.21218359,5.45610937 1.52194921,5.45610937 Z" id="Path" fill-opacity="0.24" transform="translate(1.521949, 6.706109) rotate(264.000000) translate(-1.521949, -6.706109) "></path>
                <path d="M1.50244047,4.84775501 C0.812206098,4.84775501 0.252440473,5.40752063 0.252440473,6.09775501 C0.252440473,6.78798938 0.812206098,7.34775501 1.50244047,7.34775501 C2.19267485,7.34775501 2.75244047,6.78798938 2.75244047,6.09775501 C2.75244047,5.40752063 2.19267485,4.84775501 1.50244047,4.84775501 Z" id="Path" fill-opacity="0.3" transform="translate(1.502440, 6.097755) rotate(272.000000) translate(-1.502440, -6.097755) "></path>
                <path d="M1.56088653,4.2419005 C0.870652154,4.2419005 0.310886529,4.80166612 0.310886529,5.4919005 C0.310886529,6.18213487 0.870652154,6.7419005 1.56088653,6.7419005 C2.2511209,6.7419005 2.81088653,6.18213487 2.81088653,5.4919005 C2.81088653,4.80166612 2.2511209,4.2419005 1.56088653,4.2419005 Z" id="Path" fill-opacity="0.36" transform="translate(1.560887, 5.491900) rotate(279.000000) translate(-1.560887, -5.491900) "></path>
                <path d="M1.6963277,3.64849396 C1.00609332,3.64849396 0.446327698,4.20825959 0.446327698,4.89849396 C0.446327698,5.58872834 1.00609332,6.14849396 1.6963277,6.14849396 C2.38656207,6.14849396 2.9463277,5.58872834 2.9463277,4.89849396 C2.9463277,4.20825959 2.38656207,3.64849396 1.6963277,3.64849396 Z" id="Path" fill-opacity="0.42" transform="translate(1.696328, 4.898494) rotate(287.000000) translate(-1.696328, -4.898494) "></path>
                <path d="M1.90654004,3.07727912 C1.21630567,3.07727912 0.656540041,3.63704475 0.656540041,4.32727912 C0.656540041,5.0175135 1.21630567,5.57727912 1.90654004,5.57727912 C2.59677442,5.57727912 3.15654004,5.0175135 3.15654004,4.32727912 C3.15654004,3.63704475 2.59677442,3.07727912 1.90654004,3.07727912 Z" id="Path" fill-opacity="0.48" transform="translate(1.906540, 4.327279) rotate(294.000000) translate(-1.906540, -4.327279) "></path>
                <path d="M2.18807188,2.5376353 C1.4978375,2.5376353 0.938071876,3.09740093 0.938071876,3.7876353 C0.938071876,4.47786968 1.4978375,5.0376353 2.18807188,5.0376353 C2.87830625,5.0376353 3.43807188,4.47786968 3.43807188,3.7876353 C3.43807188,3.09740093 2.87830625,2.5376353 2.18807188,2.5376353 Z" id="Path" fill-opacity="0.54" transform="translate(2.188072, 3.787635) rotate(301.000000) translate(-2.188072, -3.787635) "></path>
                <path d="M2.53630046,2.03842344 C1.84606608,2.03842344 1.28630046,2.59818907 1.28630046,3.28842344 C1.28630046,3.97865782 1.84606608,4.53842344 2.53630046,4.53842344 C3.22653483,4.53842344 3.78630046,3.97865782 3.78630046,3.28842344 C3.78630046,2.59818907 3.22653483,2.03842344 2.53630046,2.03842344 Z" id="Path" fill-opacity="0.6" transform="translate(2.536300, 3.288423) rotate(309.000000) translate(-2.536300, -3.288423) "></path>
                <path d="M2.94550788,1.58784059 C2.25527351,1.58784059 1.69550788,2.14760621 1.69550788,2.83784059 C1.69550788,3.52807496 2.25527351,4.08784059 2.94550788,4.08784059 C3.63574226,4.08784059 4.19550788,3.52807496 4.19550788,2.83784059 C4.19550788,2.14760621 3.63574226,1.58784059 2.94550788,1.58784059 Z" id="Path" fill-opacity="0.66" transform="translate(2.945508, 2.837841) rotate(316.000000) translate(-2.945508, -2.837841) "></path>
                <path d="M3.40897498,1.1932853 C2.71874061,1.1932853 2.15897498,1.75305092 2.15897498,2.4432853 C2.15897498,3.13351967 2.71874061,3.6932853 3.40897498,3.6932853 C4.09920936,3.6932853 4.65897498,3.13351967 4.65897498,2.4432853 C4.65897498,1.75305092 4.09920936,1.1932853 3.40897498,1.1932853 Z" id="Path" fill-opacity="0.72" transform="translate(3.408975, 2.443285) rotate(323.000000) translate(-3.408975, -2.443285) "></path>
                <path d="M3.91909163,0.861236155 C3.22885725,0.861236155 2.66909163,1.42100178 2.66909163,2.11123616 C2.66909163,2.80147053 3.22885725,3.36123616 3.91909163,3.36123616 C4.609326,3.36123616 5.16909163,2.80147053 5.16909163,2.11123616 C5.16909163,1.42100178 4.609326,0.861236155 3.91909163,0.861236155 Z" id="Path" fill-opacity="0.78" transform="translate(3.919092, 2.111236) rotate(331.000000) translate(-3.919092, -2.111236) "></path>
                <path d="M4.46748173,0.597145403 C3.77724735,0.597145403 3.21748173,1.15691103 3.21748173,1.8471454 C3.21748173,2.53737978 3.77724735,3.0971454 4.46748173,3.0971454 C5.1577161,3.0971454 5.71748173,2.53737978 5.71748173,1.8471454 C5.71748173,1.15691103 5.1577161,0.597145403 4.46748173,0.597145403 Z" id="Path" fill-opacity="0.84" transform="translate(4.467482, 1.847145) rotate(338.000000) translate(-4.467482, -1.847145) "></path>
                <path d="M5.04514073,0.405349401 C4.35490635,0.405349401 3.79514073,0.965115026 3.79514073,1.6553494 C3.79514073,2.34558378 4.35490635,2.9053494 5.04514073,2.9053494 C5.7353751,2.9053494 6.29514073,2.34558378 6.29514073,1.6553494 C6.29514073,0.965115026 5.7353751,0.405349401 5.04514073,0.405349401 Z" id="Path" fill-opacity="0.9" transform="translate(5.045141, 1.655349) rotate(345.000000) translate(-5.045141, -1.655349) "></path>
                <path d="M5.64258348,0.288997434 C4.95234911,0.288997434 4.39258348,0.848763059 4.39258348,1.53899743 C4.39258348,2.22923181 4.95234911,2.78899743 5.64258348,2.78899743 C6.33281786,2.78899743 6.89258348,2.22923181 6.89258348,1.53899743 C6.89258348,0.848763059 6.33281786,0.288997434 5.64258348,0.288997434 Z" id="Path" fill-opacity="0.96" transform="translate(5.642583, 1.538997) rotate(353.000000) translate(-5.642583, -1.538997) "></path>
                <path d="M6.25,0.25 C5.55976562,0.25 5,0.809765625 5,1.5 C5,2.19023437 5.55976563,2.75 6.25,2.75 C6.94023437,2.75 7.5,2.19023437 7.5,1.5 C7.5,0.809765625 6.94023438,0.25 6.25,0.25 Z" id="Path"></path>
            </g>
            <g id="Glow-1" stroke-width="1" fill-rule="evenodd" transform="translate(1.750000, 1.750000)" fill="#3D3D3D">
                <path d="M2.03865329,7.19705688 C1.34841892,7.19705688 0.788653295,7.7568225 0.788653295,8.44705688 C0.788653295,9.13729125 1.34841892,9.69705688 2.03865329,9.69705688 C2.72888767,9.69705688 3.28865329,9.13729125 3.28865329,8.44705688 C3.28865329,7.7568225 2.72888767,7.19705688 2.03865329,7.19705688 Z" id="Path" fill-opacity="0.06" transform="translate(2.038653, 8.447057) rotate(242.000000) translate(-2.038653, -8.447057) "></path>
                <path d="M1.792275,6.64048401 C1.10204062,6.64048401 0.542274995,7.20024963 0.542274995,7.89048401 C0.542274995,8.58071838 1.10204062,9.14048401 1.792275,9.14048401 C2.48250937,9.14048401 3.042275,8.58071838 3.042275,7.89048401 C3.042275,7.20024963 2.48250937,6.64048401 1.792275,6.64048401 Z" id="Path" fill-opacity="0.12" transform="translate(1.792275, 7.890484) rotate(250.000000) translate(-1.792275, -7.890484) "></path>
                <path d="M1.61909242,6.05697444 C0.928858042,6.05697444 0.369092417,6.61674006 0.369092417,7.30697444 C0.369092417,7.99720881 0.928858042,8.55697444 1.61909242,8.55697444 C2.30932679,8.55697444 2.86909242,7.99720881 2.86909242,7.30697444 C2.86909242,6.61674006 2.30932679,6.05697444 1.61909242,6.05697444 Z" id="Path" fill-opacity="0.18" transform="translate(1.619092, 7.306974) rotate(257.000000) translate(-1.619092, -7.306974) "></path>
                <path d="M1.52194921,5.45610937 C0.831714838,5.45610937 0.271949213,6.015875 0.271949213,6.70610937 C0.271949213,7.39634375 0.831714838,7.95610937 1.52194921,7.95610937 C2.21218359,7.95610937 2.77194921,7.39634375 2.77194921,6.70610937 C2.77194921,6.015875 2.21218359,5.45610937 1.52194921,5.45610937 Z" id="Path" fill-opacity="0.24" transform="translate(1.521949, 6.706109) rotate(264.000000) translate(-1.521949, -6.706109) "></path>
                <path d="M1.50244047,4.84775501 C0.812206098,4.84775501 0.252440473,5.40752063 0.252440473,6.09775501 C0.252440473,6.78798938 0.812206098,7.34775501 1.50244047,7.34775501 C2.19267485,7.34775501 2.75244047,6.78798938 2.75244047,6.09775501 C2.75244047,5.40752063 2.19267485,4.84775501 1.50244047,4.84775501 Z" id="Path" fill-opacity="0.3" transform="translate(1.502440, 6.097755) rotate(272.000000) translate(-1.502440, -6.097755) "></path>
                <path d="M1.56088653,4.2419005 C0.870652154,4.2419005 0.310886529,4.80166612 0.310886529,5.4919005 C0.310886529,6.18213487 0.870652154,6.7419005 1.56088653,6.7419005 C2.2511209,6.7419005 2.81088653,6.18213487 2.81088653,5.4919005 C2.81088653,4.80166612 2.2511209,4.2419005 1.56088653,4.2419005 Z" id="Path" fill-opacity="0.36" transform="translate(1.560887, 5.491900) rotate(279.000000) translate(-1.560887, -5.491900) "></path>
                <path d="M1.6963277,3.64849396 C1.00609332,3.64849396 0.446327698,4.20825959 0.446327698,4.89849396 C0.446327698,5.58872834 1.00609332,6.14849396 1.6963277,6.14849396 C2.38656207,6.14849396 2.9463277,5.58872834 2.9463277,4.89849396 C2.9463277,4.20825959 2.38656207,3.64849396 1.6963277,3.64849396 Z" id="Path" fill-opacity="0.42" transform="translate(1.696328, 4.898494) rotate(287.000000) translate(-1.696328, -4.898494) "></path>
                <path d="M1.90654004,3.07727912 C1.21630567,3.07727912 0.656540041,3.63704475 0.656540041,4.32727912 C0.656540041,5.0175135 1.21630567,5.57727912 1.90654004,5.57727912 C2.59677442,5.57727912 3.15654004,5.0175135 3.15654004,4.32727912 C3.15654004,3.63704475 2.59677442,3.07727912 1.90654004,3.07727912 Z" id="Path" fill-opacity="0.48" transform="translate(1.906540, 4.327279) rotate(294.000000) translate(-1.906540, -4.327279) "></path>
                <path d="M2.18807188,2.5376353 C1.4978375,2.5376353 0.938071876,3.09740093 0.938071876,3.7876353 C0.938071876,4.47786968 1.4978375,5.0376353 2.18807188,5.0376353 C2.87830625,5.0376353 3.43807188,4.47786968 3.43807188,3.7876353 C3.43807188,3.09740093 2.87830625,2.5376353 2.18807188,2.5376353 Z" id="Path" fill-opacity="0.54" transform="translate(2.188072, 3.787635) rotate(301.000000) translate(-2.188072, -3.787635) "></path>
                <path d="M2.53630046,2.03842344 C1.84606608,2.03842344 1.28630046,2.59818907 1.28630046,3.28842344 C1.28630046,3.97865782 1.84606608,4.53842344 2.53630046,4.53842344 C3.22653483,4.53842344 3.78630046,3.97865782 3.78630046,3.28842344 C3.78630046,2.59818907 3.22653483,2.03842344 2.53630046,2.03842344 Z" id="Path" fill-opacity="0.6" transform="translate(2.536300, 3.288423) rotate(309.000000) translate(-2.536300, -3.288423) "></path>
                <path d="M2.94550788,1.58784059 C2.25527351,1.58784059 1.69550788,2.14760621 1.69550788,2.83784059 C1.69550788,3.52807496 2.25527351,4.08784059 2.94550788,4.08784059 C3.63574226,4.08784059 4.19550788,3.52807496 4.19550788,2.83784059 C4.19550788,2.14760621 3.63574226,1.58784059 2.94550788,1.58784059 Z" id="Path" fill-opacity="0.66" transform="translate(2.945508, 2.837841) rotate(316.000000) translate(-2.945508, -2.837841) "></path>
                <path d="M3.40897498,1.1932853 C2.71874061,1.1932853 2.15897498,1.75305092 2.15897498,2.4432853 C2.15897498,3.13351967 2.71874061,3.6932853 3.40897498,3.6932853 C4.09920936,3.6932853 4.65897498,3.13351967 4.65897498,2.4432853 C4.65897498,1.75305092 4.09920936,1.1932853 3.40897498,1.1932853 Z" id="Path" fill-opacity="0.72" transform="translate(3.408975, 2.443285) rotate(323.000000) translate(-3.408975, -2.443285) "></path>
                <path d="M3.91909163,0.861236155 C3.22885725,0.861236155 2.66909163,1.42100178 2.66909163,2.11123616 C2.66909163,2.80147053 3.22885725,3.36123616 3.91909163,3.36123616 C4.609326,3.36123616 5.16909163,2.80147053 5.16909163,2.11123616 C5.16909163,1.42100178 4.609326,0.861236155 3.91909163,0.861236155 Z" id="Path" fill-opacity="0.78" transform="translate(3.919092, 2.111236) rotate(331.000000) translate(-3.919092, -2.111236) "></path>
                <path d="M4.46748173,0.597145403 C3.77724735,0.597145403 3.21748173,1.15691103 3.21748173,1.8471454 C3.21748173,2.53737978 3.77724735,3.0971454 4.46748173,3.0971454 C5.1577161,3.0971454 5.71748173,2.53737978 5.71748173,1.8471454 C5.71748173,1.15691103 5.1577161,0.597145403 4.46748173,0.597145403 Z" id="Path" fill-opacity="0.84" transform="translate(4.467482, 1.847145) rotate(338.000000) translate(-4.467482, -1.847145) "></path>
                <path d="M5.04514073,0.405349401 C4.35490635,0.405349401 3.79514073,0.965115026 3.79514073,1.6553494 C3.79514073,2.34558378 4.35490635,2.9053494 5.04514073,2.9053494 C5.7353751,2.9053494 6.29514073,2.34558378 6.29514073,1.6553494 C6.29514073,0.965115026 5.7353751,0.405349401 5.04514073,0.405349401 Z" id="Path" fill-opacity="0.9" transform="translate(5.045141, 1.655349) rotate(345.000000) translate(-5.045141, -1.655349) "></path>
                <path d="M5.64258348,0.288997434 C4.95234911,0.288997434 4.39258348,0.848763059 4.39258348,1.53899743 C4.39258348,2.22923181 4.95234911,2.78899743 5.64258348,2.78899743 C6.33281786,2.78899743 6.89258348,2.22923181 6.89258348,1.53899743 C6.89258348,0.848763059 6.33281786,0.288997434 5.64258348,0.288997434 Z" id="Path" fill-opacity="0.96" transform="translate(5.642583, 1.538997) rotate(353.000000) translate(-5.642583, -1.538997) "></path>
                <path d="M6.25,0.25 C5.55976562,0.25 5,0.809765625 5,1.5 C5,2.19023437 5.55976563,2.75 6.25,2.75 C6.94023437,2.75 7.5,2.19023437 7.5,1.5 C7.5,0.809765625 6.94023438,0.25 6.25,0.25 Z" id="Path"></path>
            </g>
        </g>
    </g>
</svg>