<svg xmlns="http://www.w3.org/2000/svg" width="32" height="32" viewBox="0 0 32 32">
  <path fill="context-fill" fill-opacity="context-fill-opacity" d="M16,0 C7.16129032,0 0,7.16129032 0,16 C0,24.8387097 7.16129032,32 16,32 C24.8387097,32 32,24.8387097 32,16 C32,7.16129032 24.8387097,0 16,0 Z M16,28 C9.37,28 4,22.63 4,16 C4,9.37 9.37,4 16,4 C22.63,4 28,9.37 28,16 C28,22.63 22.63,28 16,28 Z M21,11.0416667 L21,20.9583333 C21,21.53125 20.5534884,22 20.0077519,22 L17.9922481,22 C17.4465116,22 17,21.53125 17,20.9583333 L17,11.0416667 C17,10.46875 17.4465116,10 17.9922481,10 L20.0077519,10 C20.5534884,10 21,10.46875 21,11.0416667 Z M15,11.0416667 L15,20.9583333 C15,21.53125 14.5534884,22 14.0077519,22 L11.9922481,22 C11.4465116,22 11,21.53125 11,20.9583333 L11,11.0416667 C11,10.46875 11.4465116,10 11.9922481,10 L14.0077519,10 C14.5534884,10 15,10.46875 15,11.0416667 Z"/>
</svg>
