<svg xmlns="http://www.w3.org/2000/svg" width="16" height="16" viewBox="0 0 16 16">
  <path fill="#595A5C" d="M8,0 C3.58174194,0 0,3.58170968 0,8 C0,12.4182903 3.58174194,16 8,16 C12.4182581,16 16,12.4182581 16,8 C16,3.58174194 12.4182903,0 8,0 Z M12.1971185,3.80296774 C14.3083683,5.91419355 14.4552086,9.14106452 12.8641261,11.4041613 L4.59580645,3.136 C6.86047731,1.54387097 10.0870301,1.69293548 12.1971185,3.80296774 Z M3.80298747,12.1970323 C1.69173771,10.0858065 1.54489733,6.85893548 3.1359799,4.59583871 L11.4042995,12.864 C9.13966093,14.456129 5.91307593,14.3070968 3.80298747,12.1970323 Z"/>
</svg>
