<?xml version="1.0" encoding="UTF-8"?>
<svg width="128px" height="128px" viewBox="0 0 128 128" version="1.1" xmlns="http://www.w3.org/2000/svg" xmlns:xlink="http://www.w3.org/1999/xlink">
    <!-- Generator: Sketch 52.5 (67469) - http://www.bohemiancoding.com/sketch -->
    <title>icon-128</title>
    <desc>Created with Sketch.</desc>
    <g id="icon-128" stroke="none" stroke-width="1" fill="none" fill-rule="evenodd">
        <g id="Default">
            <circle id="Background" fill="#FFFFFF" fill-rule="nonzero" cx="64" cy="64" r="64"></circle>
            <g id="Glow-2" stroke-width="1" fill-rule="evenodd" transform="translate(84.000000, 75.000000) scale(-1, -1) translate(-84.000000, -75.000000) translate(54.000000, 34.000000)" fill="#3D3D3D">
                <path d="M16.3092264,57.576455 C10.7873514,57.576455 6.30922636,62.05458 6.30922636,67.576455 C6.30922636,73.09833 10.7873514,77.576455 16.3092264,77.576455 C21.8311014,77.576455 26.3092264,73.09833 26.3092264,67.576455 C26.3092264,62.05458 21.8311014,57.576455 16.3092264,57.576455 Z" id="Path" fill-opacity="0.06" transform="translate(16.309226, 67.576455) rotate(242.000000) translate(-16.309226, -67.576455) "></path>
                <path d="M14.3382,53.1238721 C8.81632496,53.1238721 4.33819996,57.6019971 4.33819996,63.1238721 C4.33819996,68.6457471 8.81632496,73.1238721 14.3382,73.1238721 C19.860075,73.1238721 24.3382,68.6457471 24.3382,63.1238721 C24.3382,57.6019971 19.860075,53.1238721 14.3382,53.1238721 Z" id="Path" fill-opacity="0.12" transform="translate(14.338200, 63.123872) rotate(250.000000) translate(-14.338200, -63.123872) "></path>
                <path d="M12.9527393,48.4557955 C7.43086434,48.4557955 2.95273934,52.9339205 2.95273934,58.4557955 C2.95273934,63.9776705 7.43086434,68.4557955 12.9527393,68.4557955 C18.4746143,68.4557955 22.9527393,63.9776705 22.9527393,58.4557955 C22.9527393,52.9339205 18.4746143,48.4557955 12.9527393,48.4557955 Z" id="Path" fill-opacity="0.18" transform="translate(12.952739, 58.455795) rotate(257.000000) translate(-12.952739, -58.455795) "></path>
                <path d="M12.1755937,43.648875 C6.65371871,43.648875 2.17559371,48.127 2.17559371,53.648875 C2.17559371,59.17075 6.65371871,63.648875 12.1755937,63.648875 C17.6974687,63.648875 22.1755937,59.17075 22.1755937,53.648875 C22.1755937,48.127 17.6974687,43.648875 12.1755937,43.648875 Z" id="Path" fill-opacity="0.24" transform="translate(12.175594, 53.648875) rotate(264.000000) translate(-12.175594, -53.648875) "></path>
                <path d="M12.0195238,38.7820401 C6.49764878,38.7820401 2.01952378,43.2601651 2.01952378,48.7820401 C2.01952378,54.3039151 6.49764878,58.7820401 12.0195238,58.7820401 C17.5413988,58.7820401 22.0195238,54.3039151 22.0195238,48.7820401 C22.0195238,43.2601651 17.5413988,38.7820401 12.0195238,38.7820401 Z" id="Path" fill-opacity="0.3" transform="translate(12.019524, 48.782040) rotate(272.000000) translate(-12.019524, -48.782040) "></path>
                <path d="M12.4870922,33.935204 C6.96521723,33.935204 2.48709223,38.413329 2.48709223,43.935204 C2.48709223,49.457079 6.96521723,53.935204 12.4870922,53.935204 C18.0089672,53.935204 22.4870922,49.457079 22.4870922,43.935204 C22.4870922,38.413329 18.0089672,33.935204 12.4870922,33.935204 Z" id="Path" fill-opacity="0.36" transform="translate(12.487092, 43.935204) rotate(279.000000) translate(-12.487092, -43.935204) "></path>
                <path d="M13.5706216,29.1879517 C8.04874658,29.1879517 3.57062158,33.6660767 3.57062158,39.1879517 C3.57062158,44.7098267 8.04874658,49.1879517 13.5706216,49.1879517 C19.0924966,49.1879517 23.5706216,44.7098267 23.5706216,39.1879517 C23.5706216,33.6660767 19.0924966,29.1879517 13.5706216,29.1879517 Z" id="Path" fill-opacity="0.42" transform="translate(13.570622, 39.187952) rotate(287.000000) translate(-13.570622, -39.187952) "></path>
                <path d="M15.2523203,24.618233 C9.73044533,24.618233 5.25232033,29.096358 5.25232033,34.618233 C5.25232033,40.140108 9.73044533,44.618233 15.2523203,44.618233 C20.7741953,44.618233 25.2523203,40.140108 25.2523203,34.618233 C25.2523203,29.096358 20.7741953,24.618233 15.2523203,24.618233 Z" id="Path" fill-opacity="0.48" transform="translate(15.252320, 34.618233) rotate(294.000000) translate(-15.252320, -34.618233) "></path>
                <path d="M17.504575,20.3010824 C11.9827,20.3010824 7.50457501,24.7792074 7.50457501,30.3010824 C7.50457501,35.8229574 11.9827,40.3010824 17.504575,40.3010824 C23.02645,40.3010824 27.504575,35.8229574 27.504575,30.3010824 C27.504575,24.7792074 23.02645,20.3010824 17.504575,20.3010824 Z" id="Path" fill-opacity="0.54" transform="translate(17.504575, 30.301082) rotate(301.000000) translate(-17.504575, -30.301082) "></path>
                <path d="M20.2904037,16.3073875 C14.7685287,16.3073875 10.2904037,20.7855125 10.2904037,26.3073875 C10.2904037,31.8292625 14.7685287,36.3073875 20.2904037,36.3073875 C25.8122787,36.3073875 30.2904037,31.8292625 30.2904037,26.3073875 C30.2904037,20.7855125 25.8122787,16.3073875 20.2904037,16.3073875 Z" id="Path" fill-opacity="0.6" transform="translate(20.290404, 26.307388) rotate(309.000000) translate(-20.290404, -26.307388) "></path>
                <path d="M23.5640631,12.7027247 C18.0421881,12.7027247 13.5640631,17.1808497 13.5640631,22.7027247 C13.5640631,28.2245997 18.0421881,32.7027247 23.5640631,32.7027247 C29.0859381,32.7027247 33.5640631,28.2245997 33.5640631,22.7027247 C33.5640631,17.1808497 29.0859381,12.7027247 23.5640631,12.7027247 Z" id="Path" fill-opacity="0.66" transform="translate(23.564063, 22.702725) rotate(316.000000) translate(-23.564063, -22.702725) "></path>
                <path d="M27.2717998,9.54628237 C21.7499248,9.54628237 17.2717998,14.0244074 17.2717998,19.5462824 C17.2717998,25.0681574 21.7499248,29.5462824 27.2717998,29.5462824 C32.7936748,29.5462824 37.2717998,25.0681574 37.2717998,19.5462824 C37.2717998,14.0244074 32.7936748,9.54628237 27.2717998,9.54628237 Z" id="Path" fill-opacity="0.72" transform="translate(27.271800, 19.546282) rotate(323.000000) translate(-27.271800, -19.546282) "></path>
                <path d="M31.352733,6.88988924 C25.830858,6.88988924 21.352733,11.3680142 21.352733,16.8898892 C21.352733,22.4117642 25.830858,26.8898892 31.352733,26.8898892 C36.874608,26.8898892 41.352733,22.4117642 41.352733,16.8898892 C41.352733,11.3680142 36.874608,6.88988924 31.352733,6.88988924 Z" id="Path" fill-opacity="0.78" transform="translate(31.352733, 16.889889) rotate(331.000000) translate(-31.352733, -16.889889) "></path>
                <path d="M35.7398538,4.77716322 C30.2179788,4.77716322 25.7398538,9.25528822 25.7398538,14.7771632 C25.7398538,20.2990382 30.2179788,24.7771632 35.7398538,24.7771632 C41.2617288,24.7771632 45.7398538,20.2990382 45.7398538,14.7771632 C45.7398538,9.25528822 41.2617288,4.77716322 35.7398538,4.77716322 Z" id="Path" fill-opacity="0.84" transform="translate(35.739854, 14.777163) rotate(338.000000) translate(-35.739854, -14.777163) "></path>
                <path d="M40.3611258,3.2427952 C34.8392508,3.2427952 30.3611258,7.7209202 30.3611258,13.2427952 C30.3611258,18.7646702 34.8392508,23.2427952 40.3611258,23.2427952 C45.8830008,23.2427952 50.3611258,18.7646702 50.3611258,13.2427952 C50.3611258,7.7209202 45.8830008,3.2427952 40.3611258,3.2427952 Z" id="Path" fill-opacity="0.9" transform="translate(40.361126, 13.242795) rotate(345.000000) translate(-40.361126, -13.242795) "></path>
                <path d="M45.1406679,2.31197947 C39.6187929,2.31197947 35.1406679,6.79010447 35.1406679,12.3119795 C35.1406679,17.8338545 39.6187929,22.3119795 45.1406679,22.3119795 C50.6625429,22.3119795 55.1406679,17.8338545 55.1406679,12.3119795 C55.1406679,6.79010447 50.6625429,2.31197947 45.1406679,2.31197947 Z" id="Path" fill-opacity="0.96" transform="translate(45.140668, 12.311979) rotate(353.000000) translate(-45.140668, -12.311979) "></path>
                <path d="M50,2 C44.478125,2 40,6.478125 40,12 C40,17.521875 44.478125,22 50,22 C55.521875,22 60,17.521875 60,12 C60,6.478125 55.521875,2 50,2 Z" id="Path"></path>
            </g>
            <g id="Glow-1" stroke-width="1" fill-rule="evenodd" transform="translate(14.000000, 14.000000)" fill="#3D3D3D">
                <path d="M16.3092264,57.576455 C10.7873514,57.576455 6.30922636,62.05458 6.30922636,67.576455 C6.30922636,73.09833 10.7873514,77.576455 16.3092264,77.576455 C21.8311014,77.576455 26.3092264,73.09833 26.3092264,67.576455 C26.3092264,62.05458 21.8311014,57.576455 16.3092264,57.576455 Z" id="Path" fill-opacity="0.06" transform="translate(16.309226, 67.576455) rotate(242.000000) translate(-16.309226, -67.576455) "></path>
                <path d="M14.3382,53.1238721 C8.81632496,53.1238721 4.33819996,57.6019971 4.33819996,63.1238721 C4.33819996,68.6457471 8.81632496,73.1238721 14.3382,73.1238721 C19.860075,73.1238721 24.3382,68.6457471 24.3382,63.1238721 C24.3382,57.6019971 19.860075,53.1238721 14.3382,53.1238721 Z" id="Path" fill-opacity="0.12" transform="translate(14.338200, 63.123872) rotate(250.000000) translate(-14.338200, -63.123872) "></path>
                <path d="M12.9527393,48.4557955 C7.43086434,48.4557955 2.95273934,52.9339205 2.95273934,58.4557955 C2.95273934,63.9776705 7.43086434,68.4557955 12.9527393,68.4557955 C18.4746143,68.4557955 22.9527393,63.9776705 22.9527393,58.4557955 C22.9527393,52.9339205 18.4746143,48.4557955 12.9527393,48.4557955 Z" id="Path" fill-opacity="0.18" transform="translate(12.952739, 58.455795) rotate(257.000000) translate(-12.952739, -58.455795) "></path>
                <path d="M12.1755937,43.648875 C6.65371871,43.648875 2.17559371,48.127 2.17559371,53.648875 C2.17559371,59.17075 6.65371871,63.648875 12.1755937,63.648875 C17.6974687,63.648875 22.1755937,59.17075 22.1755937,53.648875 C22.1755937,48.127 17.6974687,43.648875 12.1755937,43.648875 Z" id="Path" fill-opacity="0.24" transform="translate(12.175594, 53.648875) rotate(264.000000) translate(-12.175594, -53.648875) "></path>
                <path d="M12.0195238,38.7820401 C6.49764878,38.7820401 2.01952378,43.2601651 2.01952378,48.7820401 C2.01952378,54.3039151 6.49764878,58.7820401 12.0195238,58.7820401 C17.5413988,58.7820401 22.0195238,54.3039151 22.0195238,48.7820401 C22.0195238,43.2601651 17.5413988,38.7820401 12.0195238,38.7820401 Z" id="Path" fill-opacity="0.3" transform="translate(12.019524, 48.782040) rotate(272.000000) translate(-12.019524, -48.782040) "></path>
                <path d="M12.4870922,33.935204 C6.96521723,33.935204 2.48709223,38.413329 2.48709223,43.935204 C2.48709223,49.457079 6.96521723,53.935204 12.4870922,53.935204 C18.0089672,53.935204 22.4870922,49.457079 22.4870922,43.935204 C22.4870922,38.413329 18.0089672,33.935204 12.4870922,33.935204 Z" id="Path" fill-opacity="0.36" transform="translate(12.487092, 43.935204) rotate(279.000000) translate(-12.487092, -43.935204) "></path>
                <path d="M13.5706216,29.1879517 C8.04874658,29.1879517 3.57062158,33.6660767 3.57062158,39.1879517 C3.57062158,44.7098267 8.04874658,49.1879517 13.5706216,49.1879517 C19.0924966,49.1879517 23.5706216,44.7098267 23.5706216,39.1879517 C23.5706216,33.6660767 19.0924966,29.1879517 13.5706216,29.1879517 Z" id="Path" fill-opacity="0.42" transform="translate(13.570622, 39.187952) rotate(287.000000) translate(-13.570622, -39.187952) "></path>
                <path d="M15.2523203,24.618233 C9.73044533,24.618233 5.25232033,29.096358 5.25232033,34.618233 C5.25232033,40.140108 9.73044533,44.618233 15.2523203,44.618233 C20.7741953,44.618233 25.2523203,40.140108 25.2523203,34.618233 C25.2523203,29.096358 20.7741953,24.618233 15.2523203,24.618233 Z" id="Path" fill-opacity="0.48" transform="translate(15.252320, 34.618233) rotate(294.000000) translate(-15.252320, -34.618233) "></path>
                <path d="M17.504575,20.3010824 C11.9827,20.3010824 7.50457501,24.7792074 7.50457501,30.3010824 C7.50457501,35.8229574 11.9827,40.3010824 17.504575,40.3010824 C23.02645,40.3010824 27.504575,35.8229574 27.504575,30.3010824 C27.504575,24.7792074 23.02645,20.3010824 17.504575,20.3010824 Z" id="Path" fill-opacity="0.54" transform="translate(17.504575, 30.301082) rotate(301.000000) translate(-17.504575, -30.301082) "></path>
                <path d="M20.2904037,16.3073875 C14.7685287,16.3073875 10.2904037,20.7855125 10.2904037,26.3073875 C10.2904037,31.8292625 14.7685287,36.3073875 20.2904037,36.3073875 C25.8122787,36.3073875 30.2904037,31.8292625 30.2904037,26.3073875 C30.2904037,20.7855125 25.8122787,16.3073875 20.2904037,16.3073875 Z" id="Path" fill-opacity="0.6" transform="translate(20.290404, 26.307388) rotate(309.000000) translate(-20.290404, -26.307388) "></path>
                <path d="M23.5640631,12.7027247 C18.0421881,12.7027247 13.5640631,17.1808497 13.5640631,22.7027247 C13.5640631,28.2245997 18.0421881,32.7027247 23.5640631,32.7027247 C29.0859381,32.7027247 33.5640631,28.2245997 33.5640631,22.7027247 C33.5640631,17.1808497 29.0859381,12.7027247 23.5640631,12.7027247 Z" id="Path" fill-opacity="0.66" transform="translate(23.564063, 22.702725) rotate(316.000000) translate(-23.564063, -22.702725) "></path>
                <path d="M27.2717998,9.54628237 C21.7499248,9.54628237 17.2717998,14.0244074 17.2717998,19.5462824 C17.2717998,25.0681574 21.7499248,29.5462824 27.2717998,29.5462824 C32.7936748,29.5462824 37.2717998,25.0681574 37.2717998,19.5462824 C37.2717998,14.0244074 32.7936748,9.54628237 27.2717998,9.54628237 Z" id="Path" fill-opacity="0.72" transform="translate(27.271800, 19.546282) rotate(323.000000) translate(-27.271800, -19.546282) "></path>
                <path d="M31.352733,6.88988924 C25.830858,6.88988924 21.352733,11.3680142 21.352733,16.8898892 C21.352733,22.4117642 25.830858,26.8898892 31.352733,26.8898892 C36.874608,26.8898892 41.352733,22.4117642 41.352733,16.8898892 C41.352733,11.3680142 36.874608,6.88988924 31.352733,6.88988924 Z" id="Path" fill-opacity="0.78" transform="translate(31.352733, 16.889889) rotate(331.000000) translate(-31.352733, -16.889889) "></path>
                <path d="M35.7398538,4.77716322 C30.2179788,4.77716322 25.7398538,9.25528822 25.7398538,14.7771632 C25.7398538,20.2990382 30.2179788,24.7771632 35.7398538,24.7771632 C41.2617288,24.7771632 45.7398538,20.2990382 45.7398538,14.7771632 C45.7398538,9.25528822 41.2617288,4.77716322 35.7398538,4.77716322 Z" id="Path" fill-opacity="0.84" transform="translate(35.739854, 14.777163) rotate(338.000000) translate(-35.739854, -14.777163) "></path>
                <path d="M40.3611258,3.2427952 C34.8392508,3.2427952 30.3611258,7.7209202 30.3611258,13.2427952 C30.3611258,18.7646702 34.8392508,23.2427952 40.3611258,23.2427952 C45.8830008,23.2427952 50.3611258,18.7646702 50.3611258,13.2427952 C50.3611258,7.7209202 45.8830008,3.2427952 40.3611258,3.2427952 Z" id="Path" fill-opacity="0.9" transform="translate(40.361126, 13.242795) rotate(345.000000) translate(-40.361126, -13.242795) "></path>
                <path d="M45.1406679,2.31197947 C39.6187929,2.31197947 35.1406679,6.79010447 35.1406679,12.3119795 C35.1406679,17.8338545 39.6187929,22.3119795 45.1406679,22.3119795 C50.6625429,22.3119795 55.1406679,17.8338545 55.1406679,12.3119795 C55.1406679,6.79010447 50.6625429,2.31197947 45.1406679,2.31197947 Z" id="Path" fill-opacity="0.96" transform="translate(45.140668, 12.311979) rotate(353.000000) translate(-45.140668, -12.311979) "></path>
                <path d="M50,2 C44.478125,2 40,6.478125 40,12 C40,17.521875 44.478125,22 50,22 C55.521875,22 60,17.521875 60,12 C60,6.478125 55.521875,2 50,2 Z" id="Path"></path>
            </g>
        </g>
    </g>
</svg>