<svg xmlns="http://www.w3.org/2000/svg" width="96" height="96" viewBox="0 0 96 96">
  <path fill="context-fill" fill-opacity="context-fill-opacity" d="M48,0 C21.483871,0 0,21.483871 0,48 C0,74.516129 21.483871,96 48,96 C74.516129,96 96,74.516129 96,48 C96,21.483871 74.516129,0 48,0 Z M48,84 C28.11,84 12,67.89 12,48 C12,28.11 28.11,12 48,12 C67.89,12 84,28.11 84,48 C84,67.89 67.89,84 48,84 Z M63,33.125 L63,62.875 C63,64.59375 61.6604651,66 60.0232558,66 L53.9767442,66 C52.3395349,66 51,64.59375 51,62.875 L51,33.125 C51,31.40625 52.3395349,30 53.9767442,30 L60.0232558,30 C61.6604651,30 63,31.40625 63,33.125 Z M45,33.125 L45,62.875 C45,64.59375 43.6604651,66 42.0232558,66 L35.9767442,66 C34.3395349,66 33,64.59375 33,62.875 L33,33.125 C33,31.40625 34.3395349,30 35.9767442,30 L42.0232558,30 C43.6604651,30 45,31.40625 45,33.125 Z"/>
</svg>
