<svg height="32" viewBox="0 0 32 32" width="32" xmlns="http://www.w3.org/2000/svg"><g fill="none" fill-rule="evenodd"><circle cx="16" cy="16" fill="#fff" fill-rule="nonzero" r="16"/><g fill="#3d3d3d" fill-rule="evenodd"><g transform="matrix(-1 0 0 -1 28.5 29)"><path d="m4.07730659 14.3941138c-1.38046875 0-2.5 1.1195312-2.5 2.5 0 1.3804687 1.11953125 2.5 2.5 2.5s2.5-1.1195313 2.5-2.5c0-1.3804688-1.11953125-2.5-2.5-2.5z" fill-opacity=".06" transform="matrix(-.46947156 -.88294759 .88294759 -.46947156 -8.925131 28.425469)"/><path d="m3.58454999 13.280968c-1.38046875 0-2.5 1.1195313-2.5 2.5 0 1.3804688 1.11953125 2.5 2.5 2.5s2.5-1.1195312 2.5-2.5c0-1.3804687-1.11953125-2.5-2.5-2.5z" fill-opacity=".12" transform="matrix(-.34202014 -.93969262 .93969262 -.34202014 -10.018721 24.546752)"/><path d="m3.23818483 12.1139489c-1.38046875 0-2.5 1.1195312-2.5 2.5 0 1.3804687 1.11953125 2.5 2.5 2.5s2.5-1.1195313 2.5-2.5c0-1.3804688-1.11953125-2.5-2.5-2.5z" fill-opacity=".18" transform="matrix(-.22495105 -.97437006 .97437006 -.22495105 -10.272776 21.056563)"/><path d="m3.04389843 10.9122187c-1.38046875 0-2.5 1.1195313-2.5 2.5 0 1.3804688 1.11953125 2.5 2.5 2.5s2.5-1.1195312 2.5-2.5c0-1.3804687-1.11953125-2.5-2.5-2.5z" fill-opacity=".24" transform="matrix(-.10452846 -.9945219 .9945219 -.10452846 -9.976673 17.841401)"/><path d="m3.00488095 9.69551001c-1.38046875 0-2.5 1.11953129-2.5 2.49999999 0 1.3804688 1.11953125 2.5 2.5 2.5s2.5-1.1195312 2.5-2.5c0-1.3804687-1.11953125-2.49999999-2.5-2.49999999z" fill-opacity=".3" transform="matrix(.0348995 -.99939083 .99939083 .0348995 -9.288069 14.772943)"/><path d="m3.12177306 8.483801c-1.38046875 0-2.5 1.11953125-2.5 2.5 0 1.3804687 1.11953125 2.5 2.5 2.5s2.5-1.1195313 2.5-2.5c0-1.38046875-1.11953125-2.5-2.5-2.5z" fill-opacity=".36" transform="matrix(.15643447 -.98768834 .98768834 .15643447 -8.215152 12.348895)"/><path d="m3.3926554 7.29698793c-1.38046875 0-2.5 1.11953125-2.5 2.5 0 1.38046877 1.11953125 2.49999997 2.5 2.49999997s2.5-1.1195312 2.5-2.49999997c0-1.38046875-1.11953125-2.5-2.5-2.5z" fill-opacity=".42" transform="matrix(.2923717 -.95630476 .95630476 .2923717 -6.968168 10.177038)"/><path d="m3.81308008 6.15455824c-1.38046875 0-2.5 1.11953125-2.5 2.5 0 1.38046876 1.11953125 2.49999996 2.5 2.49999996s2.5-1.1195312 2.5-2.49999996c0-1.38046875-1.11953125-2.5-2.5-2.5z" fill-opacity=".48" transform="matrix(.40673664 -.91354546 .91354546 .40673664 -5.644172 8.617854)"/><path d="m4.37614375 5.0752706c-1.38046875 0-2.5 1.11953125-2.5 2.5s1.11953125 2.5 2.5 2.5 2.5-1.11953125 2.5-2.5-1.11953125-2.5-2.5-2.5z" fill-opacity=".54" transform="matrix(.51503807 -.8571673 .8571673 .51503807 -4.371011 7.424806)"/><path d="m5.07260092 4.07684688c-1.38046875 0-2.5 1.11953125-2.5 2.5s1.11953125 2.5 2.5 2.5 2.5-1.11953125 2.5-2.5-1.11953125-2.5-2.5-2.5z" fill-opacity=".6" transform="matrix(.62932039 -.77714596 .77714596 .62932039 -3.23086 6.380054)"/><path d="m5.89101577 3.17568117c-1.38046875 0-2.5 1.11953125-2.5 2.5s1.11953125 2.5 2.5 2.5 2.5-1.11953125 2.5-2.5-1.11953125-2.5-2.5-2.5z" fill-opacity=".66" transform="matrix(.7193398 -.69465837 .69465837 .7193398 -2.289286 5.685181)"/><path d="m6.81794996 2.38657059c-1.38046875 0-2.5 1.11953125-2.5 2.5s1.11953125 2.5 2.5 2.5 2.5-1.11953125 2.5-2.5-1.11953125-2.5-2.5-2.5z" fill-opacity=".72" transform="matrix(.79863551 -.60181502 .60181502 .79863551 -1.567919 5.087127)"/><path d="m7.83818326 1.72247231c-1.38046875 0-2.5 1.11953125-2.5 2.5s1.11953125 2.5 2.5 2.5 2.50000004-1.11953125 2.50000004-2.5-1.11953129-2.5-2.50000004-2.5z" fill-opacity=".78" transform="matrix(.87461971 -.48480962 .48480962 .87461971 -1.064341 4.329441)"/><path d="m8.93496345 1.19429081c-1.38046875 0-2.5 1.11953125-2.5 2.5s1.11953125 2.5 2.5 2.5 2.50000005-1.11953125 2.50000005-2.5-1.1195313-2.5-2.50000005-2.5z" fill-opacity=".84" transform="matrix(.92718385 -.37460659 .37460659 .92718385 -.733296 3.6161)"/><path d="m10.0902815.8106988c-1.3804688 0-2.50000005 1.11953125-2.50000005 2.5s1.11953125 2.5 2.50000005 2.5c1.3804687 0 2.5-1.11953125 2.5-2.5s-1.1195313-2.5-2.5-2.5z" fill-opacity=".9" transform="matrix(.96592583 -.25881905 .25881905 .96592583 -.513054 2.724366)"/><path d="m11.285167.57799487c-1.38046879 0-2.50000004 1.11953125-2.50000004 2.5s1.11953125 2.5 2.50000004 2.5c1.3804687 0 2.5-1.11953125 2.5-2.5s-1.1195313-2.5-2.5-2.5z" fill-opacity=".96" transform="matrix(.99254615 -.12186934 .12186934 .99254615 -.290995 1.398259)"/><path d="m12.5.5c-1.3804688 0-2.5 1.11953125-2.5 2.5s1.1195313 2.5 2.5 2.5 2.5-1.11953125 2.5-2.5-1.1195312-2.5-2.5-2.5z"/></g><g transform="translate(3.5 3.5)"><path d="m4.07730659 14.3941138c-1.38046875 0-2.5 1.1195312-2.5 2.5 0 1.3804687 1.11953125 2.5 2.5 2.5s2.5-1.1195313 2.5-2.5c0-1.3804688-1.11953125-2.5-2.5-2.5z" fill-opacity=".06" transform="matrix(-.46947156 -.88294759 .88294759 -.46947156 -8.925131 28.425469)"/><path d="m3.58454999 13.280968c-1.38046875 0-2.5 1.1195313-2.5 2.5 0 1.3804688 1.11953125 2.5 2.5 2.5s2.5-1.1195312 2.5-2.5c0-1.3804687-1.11953125-2.5-2.5-2.5z" fill-opacity=".12" transform="matrix(-.34202014 -.93969262 .93969262 -.34202014 -10.018721 24.546752)"/><path d="m3.23818483 12.1139489c-1.38046875 0-2.5 1.1195312-2.5 2.5 0 1.3804687 1.11953125 2.5 2.5 2.5s2.5-1.1195313 2.5-2.5c0-1.3804688-1.11953125-2.5-2.5-2.5z" fill-opacity=".18" transform="matrix(-.22495105 -.97437006 .97437006 -.22495105 -10.272776 21.056563)"/><path d="m3.04389843 10.9122187c-1.38046875 0-2.5 1.1195313-2.5 2.5 0 1.3804688 1.11953125 2.5 2.5 2.5s2.5-1.1195312 2.5-2.5c0-1.3804687-1.11953125-2.5-2.5-2.5z" fill-opacity=".24" transform="matrix(-.10452846 -.9945219 .9945219 -.10452846 -9.976673 17.841401)"/><path d="m3.00488095 9.69551001c-1.38046875 0-2.5 1.11953129-2.5 2.49999999 0 1.3804688 1.11953125 2.5 2.5 2.5s2.5-1.1195312 2.5-2.5c0-1.3804687-1.11953125-2.49999999-2.5-2.49999999z" fill-opacity=".3" transform="matrix(.0348995 -.99939083 .99939083 .0348995 -9.288069 14.772943)"/><path d="m3.12177306 8.483801c-1.38046875 0-2.5 1.11953125-2.5 2.5 0 1.3804687 1.11953125 2.5 2.5 2.5s2.5-1.1195313 2.5-2.5c0-1.38046875-1.11953125-2.5-2.5-2.5z" fill-opacity=".36" transform="matrix(.15643447 -.98768834 .98768834 .15643447 -8.215152 12.348895)"/><path d="m3.3926554 7.29698793c-1.38046875 0-2.5 1.11953125-2.5 2.5 0 1.38046877 1.11953125 2.49999997 2.5 2.49999997s2.5-1.1195312 2.5-2.49999997c0-1.38046875-1.11953125-2.5-2.5-2.5z" fill-opacity=".42" transform="matrix(.2923717 -.95630476 .95630476 .2923717 -6.968168 10.177038)"/><path d="m3.81308008 6.15455824c-1.38046875 0-2.5 1.11953125-2.5 2.5 0 1.38046876 1.11953125 2.49999996 2.5 2.49999996s2.5-1.1195312 2.5-2.49999996c0-1.38046875-1.11953125-2.5-2.5-2.5z" fill-opacity=".48" transform="matrix(.40673664 -.91354546 .91354546 .40673664 -5.644172 8.617854)"/><path d="m4.37614375 5.0752706c-1.38046875 0-2.5 1.11953125-2.5 2.5s1.11953125 2.5 2.5 2.5 2.5-1.11953125 2.5-2.5-1.11953125-2.5-2.5-2.5z" fill-opacity=".54" transform="matrix(.51503807 -.8571673 .8571673 .51503807 -4.371011 7.424806)"/><path d="m5.07260092 4.07684688c-1.38046875 0-2.5 1.11953125-2.5 2.5s1.11953125 2.5 2.5 2.5 2.5-1.11953125 2.5-2.5-1.11953125-2.5-2.5-2.5z" fill-opacity=".6" transform="matrix(.62932039 -.77714596 .77714596 .62932039 -3.23086 6.380054)"/><path d="m5.89101577 3.17568117c-1.38046875 0-2.5 1.11953125-2.5 2.5s1.11953125 2.5 2.5 2.5 2.5-1.11953125 2.5-2.5-1.11953125-2.5-2.5-2.5z" fill-opacity=".66" transform="matrix(.7193398 -.69465837 .69465837 .7193398 -2.289286 5.685181)"/><path d="m6.81794996 2.38657059c-1.38046875 0-2.5 1.11953125-2.5 2.5s1.11953125 2.5 2.5 2.5 2.5-1.11953125 2.5-2.5-1.11953125-2.5-2.5-2.5z" fill-opacity=".72" transform="matrix(.79863551 -.60181502 .60181502 .79863551 -1.567919 5.087127)"/><path d="m7.83818326 1.72247231c-1.38046875 0-2.5 1.11953125-2.5 2.5s1.11953125 2.5 2.5 2.5 2.50000004-1.11953125 2.50000004-2.5-1.11953129-2.5-2.50000004-2.5z" fill-opacity=".78" transform="matrix(.87461971 -.48480962 .48480962 .87461971 -1.064341 4.329441)"/><path d="m8.93496345 1.19429081c-1.38046875 0-2.5 1.11953125-2.5 2.5s1.11953125 2.5 2.5 2.5 2.50000005-1.11953125 2.50000005-2.5-1.1195313-2.5-2.50000005-2.5z" fill-opacity=".84" transform="matrix(.92718385 -.37460659 .37460659 .92718385 -.733296 3.6161)"/><path d="m10.0902815.8106988c-1.3804688 0-2.50000005 1.11953125-2.50000005 2.5s1.11953125 2.5 2.50000005 2.5c1.3804687 0 2.5-1.11953125 2.5-2.5s-1.1195313-2.5-2.5-2.5z" fill-opacity=".9" transform="matrix(.96592583 -.25881905 .25881905 .96592583 -.513054 2.724366)"/><path d="m11.285167.57799487c-1.38046879 0-2.50000004 1.11953125-2.50000004 2.5s1.11953125 2.5 2.50000004 2.5c1.3804687 0 2.5-1.11953125 2.5-2.5s-1.1195313-2.5-2.5-2.5z" fill-opacity=".96" transform="matrix(.99254615 -.12186934 .12186934 .99254615 -.290995 1.398259)"/><path d="m12.5.5c-1.3804688 0-2.5 1.11953125-2.5 2.5s1.1195313 2.5 2.5 2.5 2.5-1.11953125 2.5-2.5-1.1195312-2.5-2.5-2.5z"/></g></g></g></svg>