<?xml version="1.0" encoding="UTF-8"?>
<svg width="48px" height="48px" viewBox="0 0 48 48" version="1.1" xmlns="http://www.w3.org/2000/svg" xmlns:xlink="http://www.w3.org/1999/xlink">
    <!-- Generator: Sketch 52.5 (67469) - http://www.bohemiancoding.com/sketch -->
    <title>icon-48</title>
    <desc>Created with Sketch.</desc>
    <g id="icon-48" stroke="none" stroke-width="1" fill="none" fill-rule="evenodd">
        <g id="Default">
            <circle id="Background" fill="#FFFFFF" fill-rule="nonzero" cx="24" cy="24" r="24"></circle>
            <g id="Glow-2" stroke-width="1" fill-rule="evenodd" transform="translate(31.500000, 28.125000) scale(-1, -1) translate(-31.500000, -28.125000) translate(20.250000, 12.750000)" fill="#3D3D3D">
                <path d="M6.11595988,21.5911706 C4.04525676,21.5911706 2.36595988,23.2704675 2.36595988,25.3411706 C2.36595988,27.4118738 4.04525676,29.0911706 6.11595988,29.0911706 C8.18666301,29.0911706 9.86595988,27.4118738 9.86595988,25.3411706 C9.86595988,23.2704675 8.18666301,21.5911706 6.11595988,21.5911706 Z" id="Path" fill-opacity="0.06" transform="translate(6.115960, 25.341171) rotate(242.000000) translate(-6.115960, -25.341171) "></path>
                <path d="M5.37682499,19.921452 C3.30612186,19.921452 1.62682499,21.6007489 1.62682499,23.671452 C1.62682499,25.7421552 3.30612186,27.421452 5.37682499,27.421452 C7.44752811,27.421452 9.12682499,25.7421552 9.12682499,23.671452 C9.12682499,21.6007489 7.44752811,19.921452 5.37682499,19.921452 Z" id="Path" fill-opacity="0.12" transform="translate(5.376825, 23.671452) rotate(250.000000) translate(-5.376825, -23.671452) "></path>
                <path d="M4.85727725,18.1709233 C2.78657413,18.1709233 1.10727725,19.8502202 1.10727725,21.9209233 C1.10727725,23.9916264 2.78657413,25.6709233 4.85727725,25.6709233 C6.92798038,25.6709233 8.60727725,23.9916264 8.60727725,21.9209233 C8.60727725,19.8502202 6.92798038,18.1709233 4.85727725,18.1709233 Z" id="Path" fill-opacity="0.18" transform="translate(4.857277, 21.920923) rotate(257.000000) translate(-4.857277, -21.920923) "></path>
                <path d="M4.56584764,16.3683281 C2.49514452,16.3683281 0.81584764,18.047625 0.81584764,20.1183281 C0.81584764,22.1890312 2.49514452,23.8683281 4.56584764,23.8683281 C6.63655077,23.8683281 8.31584764,22.1890312 8.31584764,20.1183281 C8.31584764,18.047625 6.63655077,16.3683281 4.56584764,16.3683281 Z" id="Path" fill-opacity="0.24" transform="translate(4.565848, 20.118328) rotate(264.000000) translate(-4.565848, -20.118328) "></path>
                <path d="M4.50732142,14.543265 C2.43661829,14.543265 0.757321419,16.2225619 0.757321419,18.293265 C0.757321419,20.3639681 2.43661829,22.043265 4.50732142,22.043265 C6.57802454,22.043265 8.25732142,20.3639681 8.25732142,18.293265 C8.25732142,16.2225619 6.57802454,14.543265 4.50732142,14.543265 Z" id="Path" fill-opacity="0.3" transform="translate(4.507321, 18.293265) rotate(272.000000) translate(-4.507321, -18.293265) "></path>
                <path d="M4.68265959,12.7257015 C2.61195646,12.7257015 0.932659586,14.4049984 0.932659586,16.4757015 C0.932659586,18.5464046 2.61195646,20.2257015 4.68265959,20.2257015 C6.75336271,20.2257015 8.43265959,18.5464046 8.43265959,16.4757015 C8.43265959,14.4049984 6.75336271,12.7257015 4.68265959,12.7257015 Z" id="Path" fill-opacity="0.36" transform="translate(4.682660, 16.475701) rotate(279.000000) translate(-4.682660, -16.475701) "></path>
                <path d="M5.08898309,10.9454819 C3.01827997,10.9454819 1.33898309,12.6247788 1.33898309,14.6954819 C1.33898309,16.766185 3.01827997,18.4454819 5.08898309,18.4454819 C7.15968622,18.4454819 8.83898309,16.766185 8.83898309,14.6954819 C8.83898309,12.6247788 7.15968622,10.9454819 5.08898309,10.9454819 Z" id="Path" fill-opacity="0.42" transform="translate(5.088983, 14.695482) rotate(287.000000) translate(-5.088983, -14.695482) "></path>
                <path d="M5.71962012,9.23183736 C3.648917,9.23183736 1.96962012,10.9111342 1.96962012,12.9818374 C1.96962012,15.0525405 3.648917,16.7318374 5.71962012,16.7318374 C7.79032325,16.7318374 9.46962012,15.0525405 9.46962012,12.9818374 C9.46962012,10.9111342 7.79032325,9.23183736 5.71962012,9.23183736 Z" id="Path" fill-opacity="0.48" transform="translate(5.719620, 12.981837) rotate(294.000000) translate(-5.719620, -12.981837) "></path>
                <path d="M6.56421563,7.6129059 C4.4935125,7.6129059 2.81421563,9.29220278 2.81421563,11.3629059 C2.81421563,13.433609 4.4935125,15.1129059 6.56421563,15.1129059 C8.63491875,15.1129059 10.3142156,13.433609 10.3142156,11.3629059 C10.3142156,9.29220278 8.63491875,7.6129059 6.56421563,7.6129059 Z" id="Path" fill-opacity="0.54" transform="translate(6.564216, 11.362906) rotate(301.000000) translate(-6.564216, -11.362906) "></path>
                <path d="M7.60890137,6.11527032 C5.53819825,6.11527032 3.85890137,7.7945672 3.85890137,9.86527032 C3.85890137,11.9359734 5.53819825,13.6152703 7.60890137,13.6152703 C9.6796045,13.6152703 11.3589014,11.9359734 11.3589014,9.86527032 C11.3589014,7.7945672 9.6796045,6.11527032 7.60890137,6.11527032 Z" id="Path" fill-opacity="0.6" transform="translate(7.608901, 9.865270) rotate(309.000000) translate(-7.608901, -9.865270) "></path>
                <path d="M8.83652365,4.76352176 C6.76582053,4.76352176 5.08652365,6.44281864 5.08652365,8.51352176 C5.08652365,10.5842249 6.76582053,12.2635218 8.83652365,12.2635218 C10.9072268,12.2635218 12.5865237,10.5842249 12.5865237,8.51352176 C12.5865237,6.44281864 10.9072268,4.76352176 8.83652365,4.76352176 Z" id="Path" fill-opacity="0.66" transform="translate(8.836524, 8.513522) rotate(316.000000) translate(-8.836524, -8.513522) "></path>
                <path d="M10.2269249,3.57985589 C8.15622182,3.57985589 6.47692494,5.25915276 6.47692494,7.32985589 C6.47692494,9.40055901 8.15622182,11.0798559 10.2269249,11.0798559 C12.2976281,11.0798559 13.9769249,9.40055901 13.9769249,7.32985589 C13.9769249,5.25915276 12.2976281,3.57985589 10.2269249,3.57985589 Z" id="Path" fill-opacity="0.72" transform="translate(10.226925, 7.329856) rotate(323.000000) translate(-10.226925, -7.329856) "></path>
                <path d="M11.7572749,2.58370847 C9.68657176,2.58370847 8.00727488,4.26300534 8.00727488,6.33370847 C8.00727488,8.40441159 9.68657176,10.0837085 11.7572749,10.0837085 C13.827978,10.0837085 15.5072749,8.40441159 15.5072749,6.33370847 C15.5072749,4.26300534 13.827978,2.58370847 11.7572749,2.58370847 Z" id="Path" fill-opacity="0.78" transform="translate(11.757275, 6.333708) rotate(331.000000) translate(-11.757275, -6.333708) "></path>
                <path d="M13.4024452,1.79143621 C11.3317421,1.79143621 9.65244518,3.47073308 9.65244518,5.54143621 C9.65244518,7.61213933 11.3317421,9.29143621 13.4024452,9.29143621 C15.4731483,9.29143621 17.1524452,7.61213933 17.1524452,5.54143621 C17.1524452,3.47073308 15.4731483,1.79143621 13.4024452,1.79143621 Z" id="Path" fill-opacity="0.84" transform="translate(13.402445, 5.541436) rotate(338.000000) translate(-13.402445, -5.541436) "></path>
                <path d="M15.1354222,1.2160482 C13.0647191,1.2160482 11.3854222,2.89534508 11.3854222,4.9660482 C11.3854222,7.03675133 13.0647191,8.7160482 15.1354222,8.7160482 C17.2061253,8.7160482 18.8854222,7.03675133 18.8854222,4.9660482 C18.8854222,2.89534508 17.2061253,1.2160482 15.1354222,1.2160482 Z" id="Path" fill-opacity="0.9" transform="translate(15.135422, 4.966048) rotate(345.000000) translate(-15.135422, -4.966048) "></path>
                <path d="M16.9277504,0.866992303 C14.8570473,0.866992303 13.1777504,2.54628918 13.1777504,4.6169923 C13.1777504,6.68769543 14.8570473,8.3669923 16.9277504,8.3669923 C18.9984536,8.3669923 20.6777504,6.68769543 20.6777504,4.6169923 C20.6777504,2.54628918 18.9984536,0.866992303 16.9277504,0.866992303 Z" id="Path" fill-opacity="0.96" transform="translate(16.927750, 4.616992) rotate(353.000000) translate(-16.927750, -4.616992) "></path>
                <path d="M18.75,0.75 C16.6792969,0.75 15,2.42929688 15,4.5 C15,6.57070312 16.6792969,8.25 18.75,8.25 C20.8207031,8.25 22.5,6.57070312 22.5,4.5 C22.5,2.42929688 20.8207031,0.75 18.75,0.75 Z" id="Path"></path>
            </g>
            <g id="Glow-1" stroke-width="1" fill-rule="evenodd" transform="translate(5.250000, 5.250000)" fill="#3D3D3D">
                <path d="M6.11595988,21.5911706 C4.04525676,21.5911706 2.36595988,23.2704675 2.36595988,25.3411706 C2.36595988,27.4118738 4.04525676,29.0911706 6.11595988,29.0911706 C8.18666301,29.0911706 9.86595988,27.4118738 9.86595988,25.3411706 C9.86595988,23.2704675 8.18666301,21.5911706 6.11595988,21.5911706 Z" id="Path" fill-opacity="0.06" transform="translate(6.115960, 25.341171) rotate(242.000000) translate(-6.115960, -25.341171) "></path>
                <path d="M5.37682499,19.921452 C3.30612186,19.921452 1.62682499,21.6007489 1.62682499,23.671452 C1.62682499,25.7421552 3.30612186,27.421452 5.37682499,27.421452 C7.44752811,27.421452 9.12682499,25.7421552 9.12682499,23.671452 C9.12682499,21.6007489 7.44752811,19.921452 5.37682499,19.921452 Z" id="Path" fill-opacity="0.12" transform="translate(5.376825, 23.671452) rotate(250.000000) translate(-5.376825, -23.671452) "></path>
                <path d="M4.85727725,18.1709233 C2.78657413,18.1709233 1.10727725,19.8502202 1.10727725,21.9209233 C1.10727725,23.9916264 2.78657413,25.6709233 4.85727725,25.6709233 C6.92798038,25.6709233 8.60727725,23.9916264 8.60727725,21.9209233 C8.60727725,19.8502202 6.92798038,18.1709233 4.85727725,18.1709233 Z" id="Path" fill-opacity="0.18" transform="translate(4.857277, 21.920923) rotate(257.000000) translate(-4.857277, -21.920923) "></path>
                <path d="M4.56584764,16.3683281 C2.49514452,16.3683281 0.81584764,18.047625 0.81584764,20.1183281 C0.81584764,22.1890312 2.49514452,23.8683281 4.56584764,23.8683281 C6.63655077,23.8683281 8.31584764,22.1890312 8.31584764,20.1183281 C8.31584764,18.047625 6.63655077,16.3683281 4.56584764,16.3683281 Z" id="Path" fill-opacity="0.24" transform="translate(4.565848, 20.118328) rotate(264.000000) translate(-4.565848, -20.118328) "></path>
                <path d="M4.50732142,14.543265 C2.43661829,14.543265 0.757321419,16.2225619 0.757321419,18.293265 C0.757321419,20.3639681 2.43661829,22.043265 4.50732142,22.043265 C6.57802454,22.043265 8.25732142,20.3639681 8.25732142,18.293265 C8.25732142,16.2225619 6.57802454,14.543265 4.50732142,14.543265 Z" id="Path" fill-opacity="0.3" transform="translate(4.507321, 18.293265) rotate(272.000000) translate(-4.507321, -18.293265) "></path>
                <path d="M4.68265959,12.7257015 C2.61195646,12.7257015 0.932659586,14.4049984 0.932659586,16.4757015 C0.932659586,18.5464046 2.61195646,20.2257015 4.68265959,20.2257015 C6.75336271,20.2257015 8.43265959,18.5464046 8.43265959,16.4757015 C8.43265959,14.4049984 6.75336271,12.7257015 4.68265959,12.7257015 Z" id="Path" fill-opacity="0.36" transform="translate(4.682660, 16.475701) rotate(279.000000) translate(-4.682660, -16.475701) "></path>
                <path d="M5.08898309,10.9454819 C3.01827997,10.9454819 1.33898309,12.6247788 1.33898309,14.6954819 C1.33898309,16.766185 3.01827997,18.4454819 5.08898309,18.4454819 C7.15968622,18.4454819 8.83898309,16.766185 8.83898309,14.6954819 C8.83898309,12.6247788 7.15968622,10.9454819 5.08898309,10.9454819 Z" id="Path" fill-opacity="0.42" transform="translate(5.088983, 14.695482) rotate(287.000000) translate(-5.088983, -14.695482) "></path>
                <path d="M5.71962012,9.23183736 C3.648917,9.23183736 1.96962012,10.9111342 1.96962012,12.9818374 C1.96962012,15.0525405 3.648917,16.7318374 5.71962012,16.7318374 C7.79032325,16.7318374 9.46962012,15.0525405 9.46962012,12.9818374 C9.46962012,10.9111342 7.79032325,9.23183736 5.71962012,9.23183736 Z" id="Path" fill-opacity="0.48" transform="translate(5.719620, 12.981837) rotate(294.000000) translate(-5.719620, -12.981837) "></path>
                <path d="M6.56421563,7.6129059 C4.4935125,7.6129059 2.81421563,9.29220278 2.81421563,11.3629059 C2.81421563,13.433609 4.4935125,15.1129059 6.56421563,15.1129059 C8.63491875,15.1129059 10.3142156,13.433609 10.3142156,11.3629059 C10.3142156,9.29220278 8.63491875,7.6129059 6.56421563,7.6129059 Z" id="Path" fill-opacity="0.54" transform="translate(6.564216, 11.362906) rotate(301.000000) translate(-6.564216, -11.362906) "></path>
                <path d="M7.60890137,6.11527032 C5.53819825,6.11527032 3.85890137,7.7945672 3.85890137,9.86527032 C3.85890137,11.9359734 5.53819825,13.6152703 7.60890137,13.6152703 C9.6796045,13.6152703 11.3589014,11.9359734 11.3589014,9.86527032 C11.3589014,7.7945672 9.6796045,6.11527032 7.60890137,6.11527032 Z" id="Path" fill-opacity="0.6" transform="translate(7.608901, 9.865270) rotate(309.000000) translate(-7.608901, -9.865270) "></path>
                <path d="M8.83652365,4.76352176 C6.76582053,4.76352176 5.08652365,6.44281864 5.08652365,8.51352176 C5.08652365,10.5842249 6.76582053,12.2635218 8.83652365,12.2635218 C10.9072268,12.2635218 12.5865237,10.5842249 12.5865237,8.51352176 C12.5865237,6.44281864 10.9072268,4.76352176 8.83652365,4.76352176 Z" id="Path" fill-opacity="0.66" transform="translate(8.836524, 8.513522) rotate(316.000000) translate(-8.836524, -8.513522) "></path>
                <path d="M10.2269249,3.57985589 C8.15622182,3.57985589 6.47692494,5.25915276 6.47692494,7.32985589 C6.47692494,9.40055901 8.15622182,11.0798559 10.2269249,11.0798559 C12.2976281,11.0798559 13.9769249,9.40055901 13.9769249,7.32985589 C13.9769249,5.25915276 12.2976281,3.57985589 10.2269249,3.57985589 Z" id="Path" fill-opacity="0.72" transform="translate(10.226925, 7.329856) rotate(323.000000) translate(-10.226925, -7.329856) "></path>
                <path d="M11.7572749,2.58370847 C9.68657176,2.58370847 8.00727488,4.26300534 8.00727488,6.33370847 C8.00727488,8.40441159 9.68657176,10.0837085 11.7572749,10.0837085 C13.827978,10.0837085 15.5072749,8.40441159 15.5072749,6.33370847 C15.5072749,4.26300534 13.827978,2.58370847 11.7572749,2.58370847 Z" id="Path" fill-opacity="0.78" transform="translate(11.757275, 6.333708) rotate(331.000000) translate(-11.757275, -6.333708) "></path>
                <path d="M13.4024452,1.79143621 C11.3317421,1.79143621 9.65244518,3.47073308 9.65244518,5.54143621 C9.65244518,7.61213933 11.3317421,9.29143621 13.4024452,9.29143621 C15.4731483,9.29143621 17.1524452,7.61213933 17.1524452,5.54143621 C17.1524452,3.47073308 15.4731483,1.79143621 13.4024452,1.79143621 Z" id="Path" fill-opacity="0.84" transform="translate(13.402445, 5.541436) rotate(338.000000) translate(-13.402445, -5.541436) "></path>
                <path d="M15.1354222,1.2160482 C13.0647191,1.2160482 11.3854222,2.89534508 11.3854222,4.9660482 C11.3854222,7.03675133 13.0647191,8.7160482 15.1354222,8.7160482 C17.2061253,8.7160482 18.8854222,7.03675133 18.8854222,4.9660482 C18.8854222,2.89534508 17.2061253,1.2160482 15.1354222,1.2160482 Z" id="Path" fill-opacity="0.9" transform="translate(15.135422, 4.966048) rotate(345.000000) translate(-15.135422, -4.966048) "></path>
                <path d="M16.9277504,0.866992303 C14.8570473,0.866992303 13.1777504,2.54628918 13.1777504,4.6169923 C13.1777504,6.68769543 14.8570473,8.3669923 16.9277504,8.3669923 C18.9984536,8.3669923 20.6777504,6.68769543 20.6777504,4.6169923 C20.6777504,2.54628918 18.9984536,0.866992303 16.9277504,0.866992303 Z" id="Path" fill-opacity="0.96" transform="translate(16.927750, 4.616992) rotate(353.000000) translate(-16.927750, -4.616992) "></path>
                <path d="M18.75,0.75 C16.6792969,0.75 15,2.42929688 15,4.5 C15,6.57070312 16.6792969,8.25 18.75,8.25 C20.8207031,8.25 22.5,6.57070312 22.5,4.5 C22.5,2.42929688 20.8207031,0.75 18.75,0.75 Z" id="Path"></path>
            </g>
        </g>
    </g>
</svg>