<svg height="64" viewBox="0 0 64 64" width="64" xmlns="http://www.w3.org/2000/svg"><g fill="none" fill-rule="evenodd"><circle cx="32" cy="32" fill="#fff" fill-rule="nonzero" r="32"/><g fill="#3d3d3d" fill-rule="evenodd"><g transform="matrix(-1 0 0 -1 57 58)"><path d="m8.15461318 28.7882275c-2.7609375 0-5 2.2390625-5 5s2.2390625 5 5 5c2.76093752 0 5.00000002-2.2390625 5.00000002-5s-2.2390625-5-5.00000002-5z" fill-opacity=".06" transform="matrix(-.46947156 -.88294759 .88294759 -.46947156 -17.850263 56.850936)"/><path d="m7.16909998 26.561936c-2.7609375 0-5 2.2390625-5 5s2.2390625 5 5 5 5.00000002-2.2390625 5.00000002-5-2.23906252-5-5.00000002-5z" fill-opacity=".12" transform="matrix(-.34202014 -.93969262 .93969262 -.34202014 -20.037442 49.093504)"/><path d="m6.47636967 24.2278977c-2.7609375 0-5 2.2390625-5 5s2.2390625 5 5 5 5.00000003-2.2390625 5.00000003-5-2.23906253-5-5.00000003-5z" fill-opacity=".18" transform="matrix(-.22495105 -.97437006 .97437006 -.22495105 -20.545553 42.113126)"/><path d="m6.08779685 21.8244375c-2.7609375 0-5 2.2390625-5 5s2.2390625 5 5 5 5.00000005-2.2390625 5.00000005-5-2.23906255-5-5.00000005-5z" fill-opacity=".24" transform="matrix(-.10452846 -.9945219 .9945219 -.10452846 -19.953345 35.682802)"/><path d="m6.00976189 19.39102c-2.7609375 0-5 2.2390625-5 5s2.2390625 5 5 5 5.00000001-2.2390625 5.00000001-5-2.23906251-5-5.00000001-5z" fill-opacity=".3" transform="matrix(.0348995 -.99939083 .99939083 .0348995 -18.576137 29.545887)"/><path d="m6.24354612 16.967602c-2.7609375 0-5 2.2390625-5 5s2.2390625 5 5 5 4.99999998-2.2390625 4.99999998-5-2.23906248-5-4.99999998-5z" fill-opacity=".36" transform="matrix(.15643447 -.98768834 .98768834 .15643447 -16.430304 24.69779)"/><path d="m6.78531079 14.5939759c-2.7609375 0-5 2.2390625-5 5s2.2390625 5 5 5 5.00000001-2.2390625 5.00000001-5-2.23906251-5-5.00000001-5z" fill-opacity=".42" transform="matrix(.2923717 -.95630476 .95630476 .2923717 -13.936334 20.354077)"/><path d="m7.62616016 12.3091165c-2.7609375 0-5 2.2390625-5 5s2.2390625 5 5 5c2.76093754 0 5.00000004-2.2390625 5.00000004-5s-2.2390625-5-5.00000004-5z" fill-opacity=".48" transform="matrix(.40673664 -.91354546 .91354546 .40673664 -11.288343 17.235708)"/><path d="m8.7522875 10.1505412c-2.7609375 0-5 2.2390625-5 5s2.2390625 5 5 5 5-2.2390625 5-5-2.2390625-5-5-5z" fill-opacity=".54" transform="matrix(.51503807 -.8571673 .8571673 .51503807 -8.742022 14.849611)"/><path d="m10.1452018 8.15369376c-2.76093747 0-4.99999997 2.23906254-4.99999997 5.00000004s2.2390625 5 4.99999997 5c2.7609375 0 5-2.2390625 5-5s-2.2390625-5.00000004-5-5.00000004z" fill-opacity=".6" transform="matrix(.62932039 -.77714596 .77714596 .62932039 -6.461721 12.760109)"/><path d="m11.7820315 6.35136235c-2.76093746 0-4.99999996 2.2390625-4.99999996 4.99999995 0 2.7609375 2.2390625 5 4.99999996 5 2.7609375 0 5-2.2390625 5-5 0-2.76093745-2.2390625-4.99999995-5-4.99999995z" fill-opacity=".66" transform="matrix(.7193398 -.69465837 .69465837 .7193398 -4.578571 11.370363)"/><path d="m13.6358999 4.77314118c-2.7609375 0-4.99999998 2.2390625-4.99999998 5 0 2.76093752 2.23906248 5.00000002 4.99999998 5.00000002s5-2.2390625 5-5.00000002c0-2.7609375-2.2390625-5-5-5z" fill-opacity=".72" transform="matrix(.79863551 -.60181502 .60181502 .79863551 -3.135837 10.174253)"/><path d="m15.6763665 3.44494462c-2.7609375 0-5 2.2390625-5 5 0 2.76093748 2.2390625 4.99999998 5 4.99999998s5-2.2390625 5-4.99999998c0-2.7609375-2.2390625-5-5-5z" fill-opacity=".78" transform="matrix(.87461971 -.48480962 .48480962 .87461971 -2.128683 8.658883)"/><path d="m17.8699269 2.38858161c-2.7609375 0-5 2.2390625-5 5 0 2.76093749 2.2390625 4.99999999 5 4.99999999s5-2.2390625 5-4.99999999c0-2.7609375-2.2390625-5-5-5z" fill-opacity=".84" transform="matrix(.92718385 -.37460659 .37460659 .92718385 -1.466592 7.232201)"/><path d="m20.1805629 1.6213976c-2.7609375 0-5 2.2390625-5 5s2.2390625 5 5 5 5-2.2390625 5-5-2.2390625-5-5-5z" fill-opacity=".9" transform="matrix(.96592583 -.25881905 .25881905 .96592583 -1.026108 5.448733)"/><path d="m22.5703339 1.15598974c-2.7609375 0-5 2.2390625-5 5s2.2390625 4.99999996 5 4.99999996 5-2.23906246 5-4.99999996-2.2390625-5-5-5z" fill-opacity=".96" transform="matrix(.99254615 -.12186934 .12186934 .99254615 -.581991 2.796518)"/><path d="m25 1c-2.7609375 0-5 2.2390625-5 5s2.2390625 5 5 5 5-2.2390625 5-5-2.2390625-5-5-5z"/></g><g transform="translate(7 7)"><path d="m8.15461318 28.7882275c-2.7609375 0-5 2.2390625-5 5s2.2390625 5 5 5c2.76093752 0 5.00000002-2.2390625 5.00000002-5s-2.2390625-5-5.00000002-5z" fill-opacity=".06" transform="matrix(-.46947156 -.88294759 .88294759 -.46947156 -17.850263 56.850936)"/><path d="m7.16909998 26.561936c-2.7609375 0-5 2.2390625-5 5s2.2390625 5 5 5 5.00000002-2.2390625 5.00000002-5-2.23906252-5-5.00000002-5z" fill-opacity=".12" transform="matrix(-.34202014 -.93969262 .93969262 -.34202014 -20.037442 49.093504)"/><path d="m6.47636967 24.2278977c-2.7609375 0-5 2.2390625-5 5s2.2390625 5 5 5 5.00000003-2.2390625 5.00000003-5-2.23906253-5-5.00000003-5z" fill-opacity=".18" transform="matrix(-.22495105 -.97437006 .97437006 -.22495105 -20.545553 42.113126)"/><path d="m6.08779685 21.8244375c-2.7609375 0-5 2.2390625-5 5s2.2390625 5 5 5 5.00000005-2.2390625 5.00000005-5-2.23906255-5-5.00000005-5z" fill-opacity=".24" transform="matrix(-.10452846 -.9945219 .9945219 -.10452846 -19.953345 35.682802)"/><path d="m6.00976189 19.39102c-2.7609375 0-5 2.2390625-5 5s2.2390625 5 5 5 5.00000001-2.2390625 5.00000001-5-2.23906251-5-5.00000001-5z" fill-opacity=".3" transform="matrix(.0348995 -.99939083 .99939083 .0348995 -18.576137 29.545887)"/><path d="m6.24354612 16.967602c-2.7609375 0-5 2.2390625-5 5s2.2390625 5 5 5 4.99999998-2.2390625 4.99999998-5-2.23906248-5-4.99999998-5z" fill-opacity=".36" transform="matrix(.15643447 -.98768834 .98768834 .15643447 -16.430304 24.69779)"/><path d="m6.78531079 14.5939759c-2.7609375 0-5 2.2390625-5 5s2.2390625 5 5 5 5.00000001-2.2390625 5.00000001-5-2.23906251-5-5.00000001-5z" fill-opacity=".42" transform="matrix(.2923717 -.95630476 .95630476 .2923717 -13.936334 20.354077)"/><path d="m7.62616016 12.3091165c-2.7609375 0-5 2.2390625-5 5s2.2390625 5 5 5c2.76093754 0 5.00000004-2.2390625 5.00000004-5s-2.2390625-5-5.00000004-5z" fill-opacity=".48" transform="matrix(.40673664 -.91354546 .91354546 .40673664 -11.288343 17.235708)"/><path d="m8.7522875 10.1505412c-2.7609375 0-5 2.2390625-5 5s2.2390625 5 5 5 5-2.2390625 5-5-2.2390625-5-5-5z" fill-opacity=".54" transform="matrix(.51503807 -.8571673 .8571673 .51503807 -8.742022 14.849611)"/><path d="m10.1452018 8.15369376c-2.76093747 0-4.99999997 2.23906254-4.99999997 5.00000004s2.2390625 5 4.99999997 5c2.7609375 0 5-2.2390625 5-5s-2.2390625-5.00000004-5-5.00000004z" fill-opacity=".6" transform="matrix(.62932039 -.77714596 .77714596 .62932039 -6.461721 12.760109)"/><path d="m11.7820315 6.35136235c-2.76093746 0-4.99999996 2.2390625-4.99999996 4.99999995 0 2.7609375 2.2390625 5 4.99999996 5 2.7609375 0 5-2.2390625 5-5 0-2.76093745-2.2390625-4.99999995-5-4.99999995z" fill-opacity=".66" transform="matrix(.7193398 -.69465837 .69465837 .7193398 -4.578571 11.370363)"/><path d="m13.6358999 4.77314118c-2.7609375 0-4.99999998 2.2390625-4.99999998 5 0 2.76093752 2.23906248 5.00000002 4.99999998 5.00000002s5-2.2390625 5-5.00000002c0-2.7609375-2.2390625-5-5-5z" fill-opacity=".72" transform="matrix(.79863551 -.60181502 .60181502 .79863551 -3.135837 10.174253)"/><path d="m15.6763665 3.44494462c-2.7609375 0-5 2.2390625-5 5 0 2.76093748 2.2390625 4.99999998 5 4.99999998s5-2.2390625 5-4.99999998c0-2.7609375-2.2390625-5-5-5z" fill-opacity=".78" transform="matrix(.87461971 -.48480962 .48480962 .87461971 -2.128683 8.658883)"/><path d="m17.8699269 2.38858161c-2.7609375 0-5 2.2390625-5 5 0 2.76093749 2.2390625 4.99999999 5 4.99999999s5-2.2390625 5-4.99999999c0-2.7609375-2.2390625-5-5-5z" fill-opacity=".84" transform="matrix(.92718385 -.37460659 .37460659 .92718385 -1.466592 7.232201)"/><path d="m20.1805629 1.6213976c-2.7609375 0-5 2.2390625-5 5s2.2390625 5 5 5 5-2.2390625 5-5-2.2390625-5-5-5z" fill-opacity=".9" transform="matrix(.96592583 -.25881905 .25881905 .96592583 -1.026108 5.448733)"/><path d="m22.5703339 1.15598974c-2.7609375 0-5 2.2390625-5 5s2.2390625 4.99999996 5 4.99999996 5-2.23906246 5-4.99999996-2.2390625-5-5-5z" fill-opacity=".96" transform="matrix(.99254615 -.12186934 .12186934 .99254615 -.581991 2.796518)"/><path d="m25 1c-2.7609375 0-5 2.2390625-5 5s2.2390625 5 5 5 5-2.2390625 5-5-2.2390625-5-5-5z"/></g></g></g></svg>