<svg xmlns="http://www.w3.org/2000/svg" width="64" height="64" viewBox="0 0 64 64">
  <path fill="rgba(12, 12, 13, 0.8)" d="M32,0 C14.3225806,0 0,14.3225806 0,32 C0,49.6774194 14.3225806,64 32,64 C49.6774194,64 64,49.6774194 64,32 C64,14.3225806 49.6774194,0 32,0 Z M32,56 C18.74,56 8,45.26 8,32 C8,18.74 18.74,8 32,8 C45.26,8 56,18.74 56,32 C56,45.26 45.26,56 32,56 Z M42,22.0833333 L42,41.9166667 C42,43.0625 41.1069767,44 40.0155039,44 L35.9844961,44 C34.8930233,44 34,43.0625 34,41.9166667 L34,22.0833333 C34,20.9375 34.8930233,20 35.9844961,20 L40.0155039,20 C41.1069767,20 42,20.9375 42,22.0833333 Z M30,22.0833333 L30,41.9166667 C30,43.0625 29.1069767,44 28.0155039,44 L23.9844961,44 C22.8930233,44 22,43.0625 22,41.9166667 L22,22.0833333 C22,20.9375 22.8930233,20 23.9844961,20 L28.0155039,20 C29.1069767,20 30,20.9375 30,22.0833333 Z"/>
</svg>
