<?xml version="1.0" encoding="UTF-8"?>
<svg width="24px" height="24px" viewBox="0 0 24 24" version="1.1" xmlns="http://www.w3.org/2000/svg" xmlns:xlink="http://www.w3.org/1999/xlink">
    <!-- Generator: Sketch 52.5 (67469) - http://www.bohemiancoding.com/sketch -->
    <title>icon-24-disabled</title>
    <desc>Created with Sketch.</desc>
    <g id="icon-24-disabled" stroke="none" stroke-width="1" fill="none" fill-rule="evenodd">
        <g id="Disabled" fill-rule="nonzero">
            <circle id="Background" fill="#FFFFFF" cx="12" cy="12" r="12"></circle>
            <path d="M8.25,8.0625 C8.25,7.54473305 8.66973305,7.125 9.1875,7.125 C9.70526695,7.125 10.125,7.54473305 10.125,8.0625 L10.125,15.9375 C10.125,16.455267 9.70526695,16.875 9.1875,16.875 C8.66973305,16.875 8.25,16.455267 8.25,15.9375 L8.25,8.0625 Z" id="Line" fill-opacity="0.8" fill="#0C0C0D"></path>
            <path d="M13.875,8.0625 C13.875,7.54473305 14.294733,7.125 14.8125,7.125 C15.330267,7.125 15.75,7.54473305 15.75,8.0625 L15.75,15.9375 C15.75,16.455267 15.330267,16.875 14.8125,16.875 C14.294733,16.875 13.875,16.455267 13.875,15.9375 L13.875,8.0625 Z" id="Line" fill-opacity="0.8" fill="#0C0C0D"></path>
        </g>
    </g>
</svg>