<?xml version="1.0" encoding="UTF-8"?>
<svg width="64px" height="64px" viewBox="0 0 64 64" version="1.1" xmlns="http://www.w3.org/2000/svg" xmlns:xlink="http://www.w3.org/1999/xlink">
    <!-- Generator: Sketch 52.5 (67469) - http://www.bohemiancoding.com/sketch -->
    <title>icon-64</title>
    <desc>Created with Sketch.</desc>
    <g id="icon-64" stroke="none" stroke-width="1" fill="none" fill-rule="evenodd">
        <g id="Default">
            <circle id="Background" fill="#FFFFFF" fill-rule="nonzero" cx="32" cy="32" r="32"></circle>
            <g id="Glow-2" stroke-width="1" fill-rule="evenodd" transform="translate(42.000000, 37.500000) scale(-1, -1) translate(-42.000000, -37.500000) translate(27.000000, 17.000000)" fill="#3D3D3D">
                <path d="M8.15461318,28.7882275 C5.39367568,28.7882275 3.15461318,31.02729 3.15461318,33.7882275 C3.15461318,36.549165 5.39367568,38.7882275 8.15461318,38.7882275 C10.9155507,38.7882275 13.1546132,36.549165 13.1546132,33.7882275 C13.1546132,31.02729 10.9155507,28.7882275 8.15461318,28.7882275 Z" id="Path" fill-opacity="0.06" transform="translate(8.154613, 33.788228) rotate(242.000000) translate(-8.154613, -33.788228) "></path>
                <path d="M7.16909998,26.561936 C4.40816248,26.561936 2.16909998,28.8009985 2.16909998,31.561936 C2.16909998,34.3228735 4.40816248,36.561936 7.16909998,36.561936 C9.93003748,36.561936 12.1691,34.3228735 12.1691,31.561936 C12.1691,28.8009985 9.93003748,26.561936 7.16909998,26.561936 Z" id="Path" fill-opacity="0.12" transform="translate(7.169100, 31.561936) rotate(250.000000) translate(-7.169100, -31.561936) "></path>
                <path d="M6.47636967,24.2278977 C3.71543217,24.2278977 1.47636967,26.4669602 1.47636967,29.2278977 C1.47636967,31.9888352 3.71543217,34.2278977 6.47636967,34.2278977 C9.23730717,34.2278977 11.4763697,31.9888352 11.4763697,29.2278977 C11.4763697,26.4669602 9.23730717,24.2278977 6.47636967,24.2278977 Z" id="Path" fill-opacity="0.18" transform="translate(6.476370, 29.227898) rotate(257.000000) translate(-6.476370, -29.227898) "></path>
                <path d="M6.08779685,21.8244375 C3.32685935,21.8244375 1.08779685,24.0635 1.08779685,26.8244375 C1.08779685,29.585375 3.32685935,31.8244375 6.08779685,31.8244375 C8.84873435,31.8244375 11.0877969,29.585375 11.0877969,26.8244375 C11.0877969,24.0635 8.84873435,21.8244375 6.08779685,21.8244375 Z" id="Path" fill-opacity="0.24" transform="translate(6.087797, 26.824437) rotate(264.000000) translate(-6.087797, -26.824437) "></path>
                <path d="M6.00976189,19.39102 C3.24882439,19.39102 1.00976189,21.6300825 1.00976189,24.39102 C1.00976189,27.1519575 3.24882439,29.39102 6.00976189,29.39102 C8.77069939,29.39102 11.0097619,27.1519575 11.0097619,24.39102 C11.0097619,21.6300825 8.77069939,19.39102 6.00976189,19.39102 Z" id="Path" fill-opacity="0.3" transform="translate(6.009762, 24.391020) rotate(272.000000) translate(-6.009762, -24.391020) "></path>
                <path d="M6.24354612,16.967602 C3.48260862,16.967602 1.24354612,19.2066645 1.24354612,21.967602 C1.24354612,24.7285395 3.48260862,26.967602 6.24354612,26.967602 C9.00448362,26.967602 11.2435461,24.7285395 11.2435461,21.967602 C11.2435461,19.2066645 9.00448362,16.967602 6.24354612,16.967602 Z" id="Path" fill-opacity="0.36" transform="translate(6.243546, 21.967602) rotate(279.000000) translate(-6.243546, -21.967602) "></path>
                <path d="M6.78531079,14.5939759 C4.02437329,14.5939759 1.78531079,16.8330384 1.78531079,19.5939759 C1.78531079,22.3549134 4.02437329,24.5939759 6.78531079,24.5939759 C9.54624829,24.5939759 11.7853108,22.3549134 11.7853108,19.5939759 C11.7853108,16.8330384 9.54624829,14.5939759 6.78531079,14.5939759 Z" id="Path" fill-opacity="0.42" transform="translate(6.785311, 19.593976) rotate(287.000000) translate(-6.785311, -19.593976) "></path>
                <path d="M7.62616016,12.3091165 C4.86522266,12.3091165 2.62616016,14.548179 2.62616016,17.3091165 C2.62616016,20.070054 4.86522266,22.3091165 7.62616016,22.3091165 C10.3870977,22.3091165 12.6261602,20.070054 12.6261602,17.3091165 C12.6261602,14.548179 10.3870977,12.3091165 7.62616016,12.3091165 Z" id="Path" fill-opacity="0.48" transform="translate(7.626160, 17.309116) rotate(294.000000) translate(-7.626160, -17.309116) "></path>
                <path d="M8.7522875,10.1505412 C5.99135,10.1505412 3.7522875,12.3896037 3.7522875,15.1505412 C3.7522875,17.9114787 5.99135,20.1505412 8.7522875,20.1505412 C11.513225,20.1505412 13.7522875,17.9114787 13.7522875,15.1505412 C13.7522875,12.3896037 11.513225,10.1505412 8.7522875,10.1505412 Z" id="Path" fill-opacity="0.54" transform="translate(8.752288, 15.150541) rotate(301.000000) translate(-8.752288, -15.150541) "></path>
                <path d="M10.1452018,8.15369376 C7.38426433,8.15369376 5.14520183,10.3927563 5.14520183,13.1536938 C5.14520183,15.9146313 7.38426433,18.1536938 10.1452018,18.1536938 C12.9061393,18.1536938 15.1452018,15.9146313 15.1452018,13.1536938 C15.1452018,10.3927563 12.9061393,8.15369376 10.1452018,8.15369376 Z" id="Path" fill-opacity="0.6" transform="translate(10.145202, 13.153694) rotate(309.000000) translate(-10.145202, -13.153694) "></path>
                <path d="M11.7820315,6.35136235 C9.02109404,6.35136235 6.78203154,8.59042485 6.78203154,11.3513623 C6.78203154,14.1122998 9.02109404,16.3513623 11.7820315,16.3513623 C14.542969,16.3513623 16.7820315,14.1122998 16.7820315,11.3513623 C16.7820315,8.59042485 14.542969,6.35136235 11.7820315,6.35136235 Z" id="Path" fill-opacity="0.66" transform="translate(11.782032, 11.351362) rotate(316.000000) translate(-11.782032, -11.351362) "></path>
                <path d="M13.6358999,4.77314118 C10.8749624,4.77314118 8.63589992,7.01220368 8.63589992,9.77314118 C8.63589992,12.5340787 10.8749624,14.7731412 13.6358999,14.7731412 C16.3968374,14.7731412 18.6358999,12.5340787 18.6358999,9.77314118 C18.6358999,7.01220368 16.3968374,4.77314118 13.6358999,4.77314118 Z" id="Path" fill-opacity="0.72" transform="translate(13.635900, 9.773141) rotate(323.000000) translate(-13.635900, -9.773141) "></path>
                <path d="M15.6763665,3.44494462 C12.915429,3.44494462 10.6763665,5.68400712 10.6763665,8.44494462 C10.6763665,11.2058821 12.915429,13.4449446 15.6763665,13.4449446 C18.437304,13.4449446 20.6763665,11.2058821 20.6763665,8.44494462 C20.6763665,5.68400712 18.437304,3.44494462 15.6763665,3.44494462 Z" id="Path" fill-opacity="0.78" transform="translate(15.676367, 8.444945) rotate(331.000000) translate(-15.676367, -8.444945) "></path>
                <path d="M17.8699269,2.38858161 C15.1089894,2.38858161 12.8699269,4.62764411 12.8699269,7.38858161 C12.8699269,10.1495191 15.1089894,12.3885816 17.8699269,12.3885816 C20.6308644,12.3885816 22.8699269,10.1495191 22.8699269,7.38858161 C22.8699269,4.62764411 20.6308644,2.38858161 17.8699269,2.38858161 Z" id="Path" fill-opacity="0.84" transform="translate(17.869927, 7.388582) rotate(338.000000) translate(-17.869927, -7.388582) "></path>
                <path d="M20.1805629,1.6213976 C17.4196254,1.6213976 15.1805629,3.8604601 15.1805629,6.6213976 C15.1805629,9.3823351 17.4196254,11.6213976 20.1805629,11.6213976 C22.9415004,11.6213976 25.1805629,9.3823351 25.1805629,6.6213976 C25.1805629,3.8604601 22.9415004,1.6213976 20.1805629,1.6213976 Z" id="Path" fill-opacity="0.9" transform="translate(20.180563, 6.621398) rotate(345.000000) translate(-20.180563, -6.621398) "></path>
                <path d="M22.5703339,1.15598974 C19.8093964,1.15598974 17.5703339,3.39505224 17.5703339,6.15598974 C17.5703339,8.91692724 19.8093964,11.1559897 22.5703339,11.1559897 C25.3312714,11.1559897 27.5703339,8.91692724 27.5703339,6.15598974 C27.5703339,3.39505224 25.3312714,1.15598974 22.5703339,1.15598974 Z" id="Path" fill-opacity="0.96" transform="translate(22.570334, 6.155990) rotate(353.000000) translate(-22.570334, -6.155990) "></path>
                <path d="M25,1 C22.2390625,1 20,3.2390625 20,6 C20,8.7609375 22.2390625,11 25,11 C27.7609375,11 30,8.7609375 30,6 C30,3.2390625 27.7609375,1 25,1 Z" id="Path"></path>
            </g>
            <g id="Glow-1" stroke-width="1" fill-rule="evenodd" transform="translate(7.000000, 7.000000)" fill="#3D3D3D">
                <path d="M8.15461318,28.7882275 C5.39367568,28.7882275 3.15461318,31.02729 3.15461318,33.7882275 C3.15461318,36.549165 5.39367568,38.7882275 8.15461318,38.7882275 C10.9155507,38.7882275 13.1546132,36.549165 13.1546132,33.7882275 C13.1546132,31.02729 10.9155507,28.7882275 8.15461318,28.7882275 Z" id="Path" fill-opacity="0.06" transform="translate(8.154613, 33.788228) rotate(242.000000) translate(-8.154613, -33.788228) "></path>
                <path d="M7.16909998,26.561936 C4.40816248,26.561936 2.16909998,28.8009985 2.16909998,31.561936 C2.16909998,34.3228735 4.40816248,36.561936 7.16909998,36.561936 C9.93003748,36.561936 12.1691,34.3228735 12.1691,31.561936 C12.1691,28.8009985 9.93003748,26.561936 7.16909998,26.561936 Z" id="Path" fill-opacity="0.12" transform="translate(7.169100, 31.561936) rotate(250.000000) translate(-7.169100, -31.561936) "></path>
                <path d="M6.47636967,24.2278977 C3.71543217,24.2278977 1.47636967,26.4669602 1.47636967,29.2278977 C1.47636967,31.9888352 3.71543217,34.2278977 6.47636967,34.2278977 C9.23730717,34.2278977 11.4763697,31.9888352 11.4763697,29.2278977 C11.4763697,26.4669602 9.23730717,24.2278977 6.47636967,24.2278977 Z" id="Path" fill-opacity="0.18" transform="translate(6.476370, 29.227898) rotate(257.000000) translate(-6.476370, -29.227898) "></path>
                <path d="M6.08779685,21.8244375 C3.32685935,21.8244375 1.08779685,24.0635 1.08779685,26.8244375 C1.08779685,29.585375 3.32685935,31.8244375 6.08779685,31.8244375 C8.84873435,31.8244375 11.0877969,29.585375 11.0877969,26.8244375 C11.0877969,24.0635 8.84873435,21.8244375 6.08779685,21.8244375 Z" id="Path" fill-opacity="0.24" transform="translate(6.087797, 26.824437) rotate(264.000000) translate(-6.087797, -26.824437) "></path>
                <path d="M6.00976189,19.39102 C3.24882439,19.39102 1.00976189,21.6300825 1.00976189,24.39102 C1.00976189,27.1519575 3.24882439,29.39102 6.00976189,29.39102 C8.77069939,29.39102 11.0097619,27.1519575 11.0097619,24.39102 C11.0097619,21.6300825 8.77069939,19.39102 6.00976189,19.39102 Z" id="Path" fill-opacity="0.3" transform="translate(6.009762, 24.391020) rotate(272.000000) translate(-6.009762, -24.391020) "></path>
                <path d="M6.24354612,16.967602 C3.48260862,16.967602 1.24354612,19.2066645 1.24354612,21.967602 C1.24354612,24.7285395 3.48260862,26.967602 6.24354612,26.967602 C9.00448362,26.967602 11.2435461,24.7285395 11.2435461,21.967602 C11.2435461,19.2066645 9.00448362,16.967602 6.24354612,16.967602 Z" id="Path" fill-opacity="0.36" transform="translate(6.243546, 21.967602) rotate(279.000000) translate(-6.243546, -21.967602) "></path>
                <path d="M6.78531079,14.5939759 C4.02437329,14.5939759 1.78531079,16.8330384 1.78531079,19.5939759 C1.78531079,22.3549134 4.02437329,24.5939759 6.78531079,24.5939759 C9.54624829,24.5939759 11.7853108,22.3549134 11.7853108,19.5939759 C11.7853108,16.8330384 9.54624829,14.5939759 6.78531079,14.5939759 Z" id="Path" fill-opacity="0.42" transform="translate(6.785311, 19.593976) rotate(287.000000) translate(-6.785311, -19.593976) "></path>
                <path d="M7.62616016,12.3091165 C4.86522266,12.3091165 2.62616016,14.548179 2.62616016,17.3091165 C2.62616016,20.070054 4.86522266,22.3091165 7.62616016,22.3091165 C10.3870977,22.3091165 12.6261602,20.070054 12.6261602,17.3091165 C12.6261602,14.548179 10.3870977,12.3091165 7.62616016,12.3091165 Z" id="Path" fill-opacity="0.48" transform="translate(7.626160, 17.309116) rotate(294.000000) translate(-7.626160, -17.309116) "></path>
                <path d="M8.7522875,10.1505412 C5.99135,10.1505412 3.7522875,12.3896037 3.7522875,15.1505412 C3.7522875,17.9114787 5.99135,20.1505412 8.7522875,20.1505412 C11.513225,20.1505412 13.7522875,17.9114787 13.7522875,15.1505412 C13.7522875,12.3896037 11.513225,10.1505412 8.7522875,10.1505412 Z" id="Path" fill-opacity="0.54" transform="translate(8.752288, 15.150541) rotate(301.000000) translate(-8.752288, -15.150541) "></path>
                <path d="M10.1452018,8.15369376 C7.38426433,8.15369376 5.14520183,10.3927563 5.14520183,13.1536938 C5.14520183,15.9146313 7.38426433,18.1536938 10.1452018,18.1536938 C12.9061393,18.1536938 15.1452018,15.9146313 15.1452018,13.1536938 C15.1452018,10.3927563 12.9061393,8.15369376 10.1452018,8.15369376 Z" id="Path" fill-opacity="0.6" transform="translate(10.145202, 13.153694) rotate(309.000000) translate(-10.145202, -13.153694) "></path>
                <path d="M11.7820315,6.35136235 C9.02109404,6.35136235 6.78203154,8.59042485 6.78203154,11.3513623 C6.78203154,14.1122998 9.02109404,16.3513623 11.7820315,16.3513623 C14.542969,16.3513623 16.7820315,14.1122998 16.7820315,11.3513623 C16.7820315,8.59042485 14.542969,6.35136235 11.7820315,6.35136235 Z" id="Path" fill-opacity="0.66" transform="translate(11.782032, 11.351362) rotate(316.000000) translate(-11.782032, -11.351362) "></path>
                <path d="M13.6358999,4.77314118 C10.8749624,4.77314118 8.63589992,7.01220368 8.63589992,9.77314118 C8.63589992,12.5340787 10.8749624,14.7731412 13.6358999,14.7731412 C16.3968374,14.7731412 18.6358999,12.5340787 18.6358999,9.77314118 C18.6358999,7.01220368 16.3968374,4.77314118 13.6358999,4.77314118 Z" id="Path" fill-opacity="0.72" transform="translate(13.635900, 9.773141) rotate(323.000000) translate(-13.635900, -9.773141) "></path>
                <path d="M15.6763665,3.44494462 C12.915429,3.44494462 10.6763665,5.68400712 10.6763665,8.44494462 C10.6763665,11.2058821 12.915429,13.4449446 15.6763665,13.4449446 C18.437304,13.4449446 20.6763665,11.2058821 20.6763665,8.44494462 C20.6763665,5.68400712 18.437304,3.44494462 15.6763665,3.44494462 Z" id="Path" fill-opacity="0.78" transform="translate(15.676367, 8.444945) rotate(331.000000) translate(-15.676367, -8.444945) "></path>
                <path d="M17.8699269,2.38858161 C15.1089894,2.38858161 12.8699269,4.62764411 12.8699269,7.38858161 C12.8699269,10.1495191 15.1089894,12.3885816 17.8699269,12.3885816 C20.6308644,12.3885816 22.8699269,10.1495191 22.8699269,7.38858161 C22.8699269,4.62764411 20.6308644,2.38858161 17.8699269,2.38858161 Z" id="Path" fill-opacity="0.84" transform="translate(17.869927, 7.388582) rotate(338.000000) translate(-17.869927, -7.388582) "></path>
                <path d="M20.1805629,1.6213976 C17.4196254,1.6213976 15.1805629,3.8604601 15.1805629,6.6213976 C15.1805629,9.3823351 17.4196254,11.6213976 20.1805629,11.6213976 C22.9415004,11.6213976 25.1805629,9.3823351 25.1805629,6.6213976 C25.1805629,3.8604601 22.9415004,1.6213976 20.1805629,1.6213976 Z" id="Path" fill-opacity="0.9" transform="translate(20.180563, 6.621398) rotate(345.000000) translate(-20.180563, -6.621398) "></path>
                <path d="M22.5703339,1.15598974 C19.8093964,1.15598974 17.5703339,3.39505224 17.5703339,6.15598974 C17.5703339,8.91692724 19.8093964,11.1559897 22.5703339,11.1559897 C25.3312714,11.1559897 27.5703339,8.91692724 27.5703339,6.15598974 C27.5703339,3.39505224 25.3312714,1.15598974 22.5703339,1.15598974 Z" id="Path" fill-opacity="0.96" transform="translate(22.570334, 6.155990) rotate(353.000000) translate(-22.570334, -6.155990) "></path>
                <path d="M25,1 C22.2390625,1 20,3.2390625 20,6 C20,8.7609375 22.2390625,11 25,11 C27.7609375,11 30,8.7609375 30,6 C30,3.2390625 27.7609375,1 25,1 Z" id="Path"></path>
            </g>
        </g>
    </g>
</svg>