<svg xmlns="http://www.w3.org/2000/svg" width="64" height="64" viewBox="0 0 64 64">
  <path fill="#595A5C" d="M32,0 C14.3269677,0 0,14.3268387 0,32 C0,49.6731613 14.3269677,64 32,64 C49.6730323,64 64,49.6730323 64,32 C64,14.3269677 49.6731613,0 32,0 Z M48.788474,15.211871 C57.2334731,23.6567742 57.8208346,36.5642581 51.4565043,45.6166452 L18.3832258,12.544 C27.4419092,6.17548387 40.3481202,6.77174194 48.788474,15.211871 Z M15.2119499,48.788129 C6.76695083,40.3432258 6.17958933,27.4357419 12.5439196,18.3833548 L45.6171981,51.456 C36.5586437,57.8245161 23.6523037,57.2283871 15.2119499,48.788129 Z"/>
</svg>
