<svg xmlns="http://www.w3.org/2000/svg" width="16" height="16" viewBox="0 0 16 16">
  <path fill="#595A5C" d="M8,0 C3.58064516,0 0,3.58064516 0,8 C0,12.4193548 3.58064516,16 8,16 C12.4193548,16 16,12.4193548 16,8 C16,3.58064516 12.4193548,0 8,0 Z M8,14 C4.685,14 2,11.315 2,8 C2,4.685 4.685,2 8,2 C11.315,2 14,4.685 14,8 C14,11.315 11.315,14 8,14 Z M10.5,5.52083333 L10.5,10.4791667 C10.5,10.765625 10.2767442,11 10.003876,11 L8.99612403,11 C8.72325581,11 8.5,10.765625 8.5,10.4791667 L8.5,5.52083333 C8.5,5.234375 8.72325581,5 8.99612403,5 L10.003876,5 C10.2767442,5 10.5,5.234375 10.5,5.52083333 Z M7.5,5.52083333 L7.5,10.4791667 C7.5,10.765625 7.27674419,11 7.00387597,11 L5.99612403,11 C5.72325581,11 5.5,10.765625 5.5,10.4791667 L5.5,5.52083333 C5.5,5.234375 5.72325581,5 5.99612403,5 L7.00387597,5 C7.27674419,5 7.5,5.234375 7.5,5.52083333 Z"/>
</svg>
