<svg xmlns="http://www.w3.org/2000/svg" width="48" height="48" viewBox="0 0 48 48">
  <path fill="#595A5C" d="M24,0 C10.7419355,0 0,10.7419355 0,24 C0,37.2580645 10.7419355,48 24,48 C37.2580645,48 48,37.2580645 48,24 C48,10.7419355 37.2580645,0 24,0 Z M24,42 C14.055,42 6,33.945 6,24 C6,14.055 14.055,6 24,6 C33.945,6 42,14.055 42,24 C42,33.945 33.945,42 24,42 Z M31.5,16.5625 L31.5,31.4375 C31.5,32.296875 30.8302326,33 30.0116279,33 L26.9883721,33 C26.1697674,33 25.5,32.296875 25.5,31.4375 L25.5,16.5625 C25.5,15.703125 26.1697674,15 26.9883721,15 L30.0116279,15 C30.8302326,15 31.5,15.703125 31.5,16.5625 Z M22.5,16.5625 L22.5,31.4375 C22.5,32.296875 21.8302326,33 21.0116279,33 L17.9883721,33 C17.1697674,33 16.5,32.296875 16.5,31.4375 L16.5,16.5625 C16.5,15.703125 17.1697674,15 17.9883721,15 L21.0116279,15 C21.8302326,15 22.5,15.703125 22.5,16.5625 Z"/>
</svg>
