<svg xmlns="http://www.w3.org/2000/svg" width="32" height="32" viewBox="0 0 32 32">
  <path fill="#595A5C" d="M16,0 C7.16348387,0 0,7.16341935 0,16 C0,24.8365806 7.16348387,32 16,32 C24.8365161,32 32,24.8365161 32,16 C32,7.16348387 24.8365806,0 16,0 Z M24.394237,7.60593548 C28.6167365,11.8283871 28.9104173,18.282129 25.7282522,22.8083226 L9.1916129,6.272 C13.7209546,3.08774194 20.1740601,3.38587097 24.394237,7.60593548 Z M7.60597494,24.3940645 C3.38347542,20.1716129 3.08979466,13.717871 6.2719598,9.19167742 L22.8085991,25.728 C18.2793219,28.9122581 11.8261519,28.6141935 7.60597494,24.3940645 Z"/>
</svg>
