<svg xmlns="http://www.w3.org/2000/svg" width="48" height="48" viewBox="0 0 48 48">
  <path fill="#595A5C" d="M24,0 C10.7452258,0 0,10.745129 0,24 C0,37.254871 10.7452258,48 24,48 C37.2547742,48 48,37.2547742 48,24 C48,10.7452258 37.254871,0 24,0 Z M36.5913555,11.4089032 C42.9251048,17.7425806 43.3656259,27.4231935 38.5923782,34.2124839 L13.7874194,9.408 C20.5814319,4.6316129 30.2610902,5.07880645 36.5913555,11.4089032 Z M11.4089624,36.5910968 C5.07521312,30.2574194 4.634692,20.5768065 9.40793971,13.7875161 L34.2128986,38.592 C27.4189828,43.3683871 17.7392278,42.9212903 11.4089624,36.5910968 Z"/>
</svg>
